<?xml version="1.0" encoding="utf-8"?>
<!-- Generator: Adobe Illustrator 26.4.1, SVG Export Plug-In . SVG Version: 6.00 Build 0)  -->
<svg version="1.1" id="_x2014_ÎÓÈ_x5F_1" xmlns="http://www.w3.org/2000/svg" xmlns:xlink="http://www.w3.org/1999/xlink"
	 x="0px" y="0px" viewBox="0 0 410.39 357.46" style="enable-background:new 0 0 410.39 357.46;" xml:space="preserve">
<style type="text/css">
	.st0{fill:#3E477E;}
	.st1{fill:#4056A9;}
	.st2{fill:#DBA195;}
	.st3{fill:url(#SVGID_1_);}
	.st4{fill:#F0F0FC;}
	.st5{fill:#C4D7F2;}
	.st6{fill:#FF7A93;}
	.st7{fill:#FCD2C8;}
	.st8{fill:#284CF9;}
	.st9{fill:#FF55A2;}
	.st10{fill:url(#SVGID_00000160892006350187825990000004129556500332357552_);}
	.st11{fill:url(#SVGID_00000178187184129488108150000011290355869436921756_);}
	.st12{fill:url(#SVGID_00000066496318079414429390000005763300065284114355_);}
	.st13{fill:#4A5EA5;}
	.st14{fill:#467DE4;}
	.st15{fill:#FFFFFF;}
	.st16{fill:#E4B8F0;}
	.st17{fill:#91BEFF;}
	.st18{fill:#E5D4EC;}
	.st19{opacity:0.2;}
	.st20{fill:#B288FD;}
	.st21{fill:#295191;}
	.st22{fill:#000D24;}
	.st23{fill:#B1CAE8;}
	.st24{opacity:0.09;fill:#C4D7F2;}
	.st25{fill:#3A3990;}
	.st26{fill:#000027;}
	.st27{fill:#600153;}
	.st28{opacity:0;fill:#B288FD;}
	.st29{fill:#FFFBFF;}
	.st30{fill:#CBC7EC;}
	.st31{opacity:0.21;fill:#B288FD;}
	.st32{fill:#232F6D;}
	.st33{fill:#FF969B;}
	.st34{fill:#98B4DE;}
	.st35{fill:#FFA2A5;}
	.st36{fill:#5E4949;}
	.st37{fill:#27317A;}
	.st38{fill:#5074F9;}
	.st39{fill:#1E44D1;}
	.st40{opacity:0.43;fill:#6878D4;}
	.st41{fill:url(#SVGID_00000093136347880692256850000005887638008548948393_);}
	.st42{fill:url(#SVGID_00000120520607726920792290000006064135819251654590_);}
	.st43{fill:#36399F;}
	.st44{fill:url(#SVGID_00000087379627963137565120000017564869018881047988_);}
	.st45{fill:#212D60;}
	.st46{fill:url(#SVGID_00000078766015149121690010000012341562733112823434_);}
	.st47{fill:url(#SVGID_00000183957548876569627240000005551770888942984326_);}
	.st48{fill:url(#SVGID_00000097466683190357115610000014586895508610992058_);}
</style>
<g>
	<path class="st0" d="M273.41,192.75c-1.75-0.88-4.84-0.77-6.87,0.25l-2.67,1.34c-2.02,1.01-2.25,2.56-0.49,3.44
		c1.75,0.88,4.84,0.77,6.87-0.25l2.67-1.34C274.94,195.17,275.16,193.63,273.41,192.75z"/>
	<path class="st0" d="M289.54,201.66c-1.75-0.88-4.84-0.77-6.87,0.25l-2.67,1.34c-2.02,1.01-2.25,2.56-0.49,3.44
		c1.75,0.88,4.84,0.77,6.87-0.25l2.67-1.34C291.07,204.09,291.29,202.54,289.54,201.66z"/>
	<g>
		<path class="st1" d="M279.37,122.32c-1.05,12.62-3.38,25.64-3.17,38.28c0.11,6.67,1.7,13.57,2.53,20.2c0.8,6.4,1.6,12.8,2.4,19.19
			c0.67,5.31,10.35,5.37,9.67,0c-0.8-6.4-1.6-12.8-2.4-19.19c-0.83-6.63-2.42-13.52-2.53-20.2c-0.21-12.65,2.12-25.66,3.17-38.28
			C289.49,116.93,279.81,116.95,279.37,122.32L279.37,122.32z"/>
	</g>
	<g>
		<path class="st1" d="M264.88,124.48c-6.65,21.62-6.02,45.89,0.2,67.45c1.51,5.24,10.85,3.02,9.33-2.23
			c-5.81-20.1-6.41-42.81-0.2-62.98C275.81,121.49,266.48,119.26,264.88,124.48L264.88,124.48z"/>
	</g>
	<g>
		<path class="st2" d="M244.38,119.86c-3.41,1.82-0.15,6.01,3.25,4.2c14.34-7.65,24.9-20.34,26.86-33.88l-5.89-0.45
			C266.99,101.83,257.29,112.97,244.38,119.86z"/>
	</g>
	
		<linearGradient id="SVGID_1_" gradientUnits="userSpaceOnUse" x1="-6088.2388" y1="321.6914" x2="-5981.9941" y2="321.6914" gradientTransform="matrix(-1 0 0 1 -5747.8354 0)">
		<stop  offset="0.4092" style="stop-color:#C4D7F2"/>
		<stop  offset="0.4717" style="stop-color:#BDD2EF"/>
		<stop  offset="0.5609" style="stop-color:#AAC3E6"/>
		<stop  offset="0.627" style="stop-color:#98B4DE"/>
	</linearGradient>
	<path class="st3" d="M330.16,295.24v24.29c0,1.19-0.59,2.37-1.76,3.05l-41.42,23.92c-3.79,2.19-8.45,2.19-12.24,0l-41.29-23.84
		c-1.19-0.69-1.75-1.92-1.68-3.13h-0.26v-24.29H330.16z"/>
	<path class="st4" d="M286.92,321.95l41.42-23.92c2.35-1.35,2.35-4.74,0-6.1l-41.65-24.05c-3.44-1.99-7.68-1.99-11.13,0
		l-42.17,24.35c-2.26,1.31-2.26,4.57,0,5.87l41.29,23.84C278.48,324.13,283.14,324.13,286.92,321.95z"/>
	<g>
		<path class="st5" d="M338.88,263.67c-1.32,0-2.59-0.27-3.54-0.81l-44.74-25.83c-0.99-0.57-1.53-1.38-1.53-2.27
			c0-1.05,0.76-2.09,2.08-2.86l15.95-9.21c2.38-1.38,6.01-1.52,8.08-0.32l44.74,25.83c0.99,0.57,1.53,1.38,1.53,2.27
			c0,1.05-0.76,2.09-2.08,2.86l-15.95,9.21C342.13,263.28,340.46,263.67,338.88,263.67z M335.74,262.16
			c1.86,1.07,5.12,0.93,7.28-0.32l15.95-9.21c1.07-0.62,1.68-1.4,1.68-2.16c0-0.6-0.4-1.16-1.13-1.58l-44.74-25.83
			c-1.85-1.07-5.12-0.93-7.28,0.32l-15.95,9.21c-1.07,0.62-1.68,1.4-1.68,2.16c0,0.6,0.4,1.16,1.13,1.58L335.74,262.16z"/>
	</g>
	<g>
		<g>
			<path class="st0" d="M280.64,275.8c5.48-2.04,10.97-4.09,16.45-6.13c5.46-2.04,14.1-5.23,15.49,3.63
				c0.46,2.94,0.2,6.17-0.18,9.36l-8.35-4.84c0.04-1.05,0.08-1.88,0.08-1.88s-5.32,1.97-7.57,2.81c-4.57,1.7-9.14,3.41-13.7,5.11
				C277.81,285.73,275.65,277.66,280.64,275.8z"/>
		</g>
		<g>
			<path class="st0" d="M293.5,283.05c5.45-2.03,10.9-4.06,16.34-6.09c2-0.75,4.07-1.78,6.23-1.98c4.32-0.4,8.31,2.68,9.04,6.95
				c0.42,2.48,0.21,5.24-0.18,8l-8.15-4.73c-0.01-0.1,0.01-0.22-0.01-0.32c-0.21-1.44,0.31-1.03-1-1.24
				c-1.55-0.26-5.34,1.99-6.79,2.53c-4.42,1.65-8.84,3.3-13.26,4.94C290.67,292.98,288.51,284.91,293.5,283.05z"/>
		</g>
		<path class="st6" d="M290.97,239.24c1.28-0.74,1.12-2.04-0.36-2.89l-2.5-1.44c-1.47-0.85-3.73-0.94-5-0.21
			c-1.28,0.74-1.12,2.04,0.36,2.89l2.5,1.44C287.44,239.88,289.69,239.98,290.97,239.24z"/>
		<g>
			<path class="st7" d="M319.71,246.65c-2.22,1.25-4.43,2.49-6.65,3.74c-2.6,1.46-5.85,4.19-8.75,4.92
				c-1.77,0.45-3.44-0.77-4.94-2.67l-3.19,2.24c1.67,2.82,3.53,5.57,7.41,5.08c3.08-0.39,6.33-3.02,8.93-4.48
				c3.1-1.74,6.2-3.48,9.29-5.23C324.16,248.94,322.06,245.33,319.71,246.65z"/>
			<path class="st8" d="M276.56,266.54c1.03-8.68,1.68-15.96,3.87-24.33c2.67-10.21,6.93-9.06,10.1-6.92
				c4.48,3.03,6.5,5.77,6.57,13.83c0.71,1.27,1.47,2.5,2.28,3.53l-2.46,1.73c-0.03,0.5-0.06,0.98-0.1,1.5
				c-0.91,11.85-1.88,10.92,0.7,28.12c0.32,2.11,0.58,4.44-0.38,6.25c-1.58,2.98-4.87,2.76-7.7,2.04
				C277.26,289.22,274.84,281.01,276.56,266.54z"/>
		</g>
		<g>
			<g>
				<path class="st7" d="M286.16,227.83c0.05,2.6,0.1,5.19,0.16,7.79c0.04,1.78,4.37,1.79,4.34,0c-0.05-2.6-0.1-5.19-0.16-7.79
					C290.46,226.05,286.12,226.04,286.16,227.83L286.16,227.83z"/>
			</g>
			<path class="st7" d="M287.91,229.87c-0.4,0-0.77-0.18-1.03-0.49c-1.9-2.29-1.83-6.86-0.56-10.04c0.83-2.08,1.58-3.04,4.88-3.15
				c0.83-0.03,3.12-0.22,3.97,0.91c0.25,0.11,0.49,0.23,0.72,0.36v6.52c0,3.26-2.64,5.9-5.9,5.9H287.91z"/>
		</g>
		<path class="st9" d="M280.73,220.86c-0.43,2.41,0.22,5.14-1.18,7.14c-1.51,2.16-7.08,3.58-10.38,7.57
			c-5.55,6.71-1.39,17.62,8.53,19.44c9.81,1.8,14.81-7.39,9.81-15.53c-2.52-4.1,1.54-3.76,2.96-5.86c0.71-1.05,1.49-3.22,0.97-4.37
			s-0.6-1.25-1-2.44c-1.81-5.41,4.89-3.23,5.9-7.68C298.09,211.38,282.49,211.06,280.73,220.86z"/>
		<path class="st7" d="M318.66,249.43c-0.63-1.16-0.2-2.61,0.96-3.24l2.6-1.41c1.16-0.63,2.61-0.2,3.24,0.96
			c0.63,1.16,0.2,2.61-0.96,3.24l-2.6,1.41C320.75,251.02,319.29,250.59,318.66,249.43z"/>
	</g>
	<g>
		<path class="st5" d="M386.48,253.15c-0.71,0-1.41-0.19-2.06-0.56l-79.52-45.91c-2.46-1.42-3.98-4.06-3.98-6.9v-48.04
			c0-1.06,0.55-2.01,1.47-2.54c0.92-0.53,2.02-0.53,2.93,0l81.66,47.15c2.23,1.29,3.62,3.69,3.62,6.26v46.42
			c0,1.49-0.77,2.82-2.06,3.56C387.89,252.97,387.19,253.15,386.48,253.15z M305.35,205.91l79.52,45.91c1.01,0.58,2.21,0.58,3.21,0
			c1.01-0.58,1.61-1.62,1.61-2.79v-46.42c0-2.26-1.21-4.36-3.17-5.49l-81.66-47.14c-0.64-0.37-1.4-0.37-2.03,0
			c-0.64,0.37-1.02,1.03-1.02,1.76v48.04C301.82,202.3,303.17,204.65,305.35,205.91L305.35,205.91z"/>
	</g>
	<g>
		<g>
			<g>
				<path class="st5" d="M306.09,194.25c-0.04,0-0.08-0.01-0.11-0.03l-0.24-0.14c-0.07-0.04-0.11-0.12-0.11-0.2v-8.68
					c0-0.08,0.04-0.15,0.11-0.2c0.07-0.04,0.16-0.04,0.22,0l0.24,0.14c0.07,0.04,0.11,0.12,0.11,0.2v8.68c0,0.08-0.04,0.15-0.11,0.2
					C306.17,194.24,306.13,194.25,306.09,194.25z"/>
			</g>
			<g>
				<path class="st5" d="M311.76,197.52c-0.04,0-0.08-0.01-0.11-0.03l-0.24-0.14c-0.07-0.04-0.11-0.12-0.11-0.2v-27.04
					c0-0.08,0.04-0.15,0.11-0.19c0.07-0.04,0.15-0.04,0.22,0l0.24,0.14c0.07,0.04,0.11,0.12,0.11,0.2v27.04
					c0,0.08-0.04,0.15-0.11,0.2C311.84,197.51,311.8,197.52,311.76,197.52z"/>
			</g>
			<g>
				<path class="st5" d="M317.68,200.94c-0.04,0-0.08-0.01-0.11-0.03l-0.24-0.14c-0.07-0.04-0.11-0.11-0.11-0.2v-17.4
					c0-0.08,0.04-0.15,0.11-0.2c0.07-0.04,0.16-0.04,0.22,0l0.24,0.14c0.07,0.04,0.11,0.11,0.11,0.19v17.4
					c0,0.08-0.04,0.15-0.11,0.2C317.75,200.93,317.71,200.94,317.68,200.94z"/>
			</g>
			<g>
				<path class="st5" d="M323.38,204.23c-0.04,0-0.08-0.01-0.11-0.03l-0.24-0.14c-0.07-0.04-0.11-0.12-0.11-0.2v-27.04
					c0-0.08,0.04-0.15,0.11-0.2c0.07-0.04,0.15-0.04,0.22,0l0.24,0.14c0.07,0.04,0.11,0.11,0.11,0.2v27.04
					c0,0.08-0.04,0.15-0.11,0.2C323.46,204.22,323.42,204.23,323.38,204.23z"/>
			</g>
			<g>
				<path class="st5" d="M328.23,207.03c-0.04,0-0.08-0.01-0.11-0.03l-0.24-0.14c-0.07-0.04-0.11-0.11-0.11-0.2v-5.08
					c0-0.08,0.04-0.15,0.11-0.2c0.07-0.04,0.15-0.04,0.22,0l0.24,0.14c0.07,0.04,0.11,0.11,0.11,0.2v5.08c0,0.08-0.04,0.15-0.11,0.2
					C328.31,207.02,328.27,207.03,328.23,207.03z"/>
			</g>
			<g>
				<path class="st5" d="M333.12,209.85c-0.04,0-0.08-0.01-0.11-0.03l-0.24-0.14c-0.07-0.04-0.11-0.12-0.11-0.2v-27.04
					c0-0.08,0.04-0.15,0.11-0.2c0.07-0.04,0.15-0.04,0.22,0l0.24,0.14c0.07,0.04,0.11,0.12,0.11,0.2v27.04
					c0,0.08-0.04,0.15-0.11,0.2C333.2,209.85,333.16,209.85,333.12,209.85z"/>
			</g>
			
				<linearGradient id="SVGID_00000157271280842009266280000013711844941075324088_" gradientUnits="userSpaceOnUse" x1="-6384.4165" y1="184.4691" x2="-6382.6689" y2="184.4691" gradientTransform="matrix(-1 0 0 1 -6071.8354 0)">
				<stop  offset="0" style="stop-color:#FD256F"/>
				<stop  offset="1" style="stop-color:#FD256F"/>
			</linearGradient>
			<path style="fill:url(#SVGID_00000157271280842009266280000013711844941075324088_);" d="M311.83,195.22l-0.25-0.14
				c-0.41-0.24-0.75-0.88-0.75-1.43v-19.35c0-0.55,0.34-0.8,0.75-0.57l0.25,0.14c0.41,0.24,0.75,0.88,0.75,1.43v19.35
				C312.58,195.2,312.24,195.45,311.83,195.22z"/>
			
				<linearGradient id="SVGID_00000158720109078314368640000000016655876181674631_" gradientUnits="userSpaceOnUse" x1="-6405.75" y1="198.6534" x2="-6404.002" y2="198.6534" gradientTransform="matrix(-1 0 0 1 -6071.8354 0)">
				<stop  offset="0" style="stop-color:#FD256F"/>
				<stop  offset="1" style="stop-color:#FD256F"/>
			</linearGradient>
			<path style="fill:url(#SVGID_00000158720109078314368640000000016655876181674631_);" d="M333.17,207.67l-0.25-0.14
				c-0.41-0.24-0.75-0.88-0.75-1.43V190.2c0-0.55,0.34-0.8,0.75-0.57l0.25,0.14c0.41,0.24,0.75,0.88,0.75,1.43v15.89
				C333.91,207.65,333.58,207.91,333.17,207.67z"/>
			
				<linearGradient id="SVGID_00000015348977299539930950000003176626783174026928_" gradientUnits="userSpaceOnUse" x1="-6395.9321" y1="194.9218" x2="-6394.1841" y2="194.9218" gradientTransform="matrix(-1 0 0 1 -6071.8354 0)">
				<stop  offset="0" style="stop-color:#FD256F"/>
				<stop  offset="1" style="stop-color:#FD256F"/>
			</linearGradient>
			<path style="fill:url(#SVGID_00000015348977299539930950000003176626783174026928_);" d="M323.35,201.86l-0.25-0.14
				c-0.41-0.24-0.75-0.88-0.75-1.43v-11.74c0-0.55,0.34-0.8,0.75-0.57l0.25,0.14c0.41,0.24,0.75,0.88,0.75,1.43v11.74
				C324.1,201.85,323.76,202.1,323.35,201.86z"/>
			<path class="st9" d="M306.2,190.35l-0.25-0.14c-0.41-0.24-0.75-0.88-0.75-1.43v-0.91c0-0.55,0.34-0.8,0.75-0.57l0.25,0.14
				c0.41,0.24,0.75,0.88,0.75,1.43v0.91C306.95,190.33,306.61,190.59,306.2,190.35z"/>
			<path class="st9" d="M317.75,195.98l-0.25-0.14c-0.41-0.24-0.75-0.88-0.75-1.43v-6.46c0-0.55,0.34-0.8,0.75-0.57l0.25,0.14
				c0.41,0.24,0.75,0.88,0.75,1.43v6.46C318.49,195.96,318.16,196.22,317.75,195.98z"/>
		</g>
		<g>
			<g>
				<path class="st5" d="M341.63,213.61c-0.04,0-0.08-0.01-0.11-0.03l-0.24-0.14c-0.07-0.04-0.11-0.11-0.11-0.2V186.2
					c0-0.08,0.04-0.15,0.11-0.2c0.07-0.04,0.15-0.04,0.22,0l0.24,0.14c0.07,0.04,0.11,0.11,0.11,0.2v27.04
					c0,0.08-0.04,0.15-0.11,0.2C341.71,213.6,341.67,213.61,341.63,213.61z"/>
			</g>
			<path class="st9" d="M341.7,211.3l-0.25-0.14c-0.41-0.24-0.75-0.88-0.75-1.43v-19.35c0-0.55,0.34-0.8,0.75-0.57l0.25,0.14
				c0.41,0.24,0.75,0.88,0.75,1.43v19.35C342.45,211.28,342.12,211.54,341.7,211.3z"/>
		</g>
	</g>
	<g>
		<g>
			<path class="st9" d="M367.56,211.37c0,0.75-0.68,1.36-1.42,1.22c-1.36-0.26-2.43,0.36-2.88,1.66c-0.25,0.71-1.1,0.99-1.75,0.62
				c-0.44-0.25-0.68-0.73-0.63-1.23c0.36-3.37,2.83-4.79,5.93-3.41C367.26,210.43,367.56,210.88,367.56,211.37z"/>
		</g>
		<g>
			<path class="st13" d="M378.4,224.63c0-6.29-3.99-13.83-9.21-17.87c-1.13-0.88-1.79-2.23-1.79-3.66v-0.22
				c0-1.52,1.75-2.34,2.94-1.4c7.59,6.02,13.36,17.02,13.36,26.21c0,10.42-7.42,14.61-16.51,9.27c0-0.01,0-6.09,0-6.09
				c0.04,0.03,0.09,0.06,0.13,0.08C373.42,234.49,378.4,231.65,378.4,224.63z"/>
			<path class="st14" d="M356.67,214.66c1.03,6.33,5.44,13.21,10.72,16.33v6.09c-8.08-4.74-14.78-15.44-16.04-25.06
				c-0.17-1.3,1.24-2.22,2.38-1.57l0.14,0.08C355.4,211.39,356.39,212.93,356.67,214.66z"/>
		</g>
	</g>
	<g>
		<path class="st5" d="M201.55,26.43c3.66-2.11,8.24,0.53,8.24,4.76v139.08c0,1.96-1.05,3.78-2.75,4.76L60.73,259.44
			c0,0-21.49,12.4-21.49,12.4c-3.66,2.11-8.24-0.53-8.24-4.76V133.38c0-5.29,2.82-10.18,7.41-12.82L201.55,26.43z"/>
		<g>
			<path class="st15" d="M203.5,28.27c3.65-2.09,8.21,0.53,8.21,4.72v137.97c0,1.95-1.04,3.75-2.74,4.72L63.35,259.42
				c0,0-21.39,12.3-21.39,12.3c-3.65,2.1-8.21-0.52-8.21-4.72V134.37c0-5.25,2.81-10.1,7.37-12.72L203.5,28.27z"/>
			<g>
				<path class="st16" d="M39.22,272.57c0.96,0,1.92-0.25,2.79-0.75l167.02-96.04c1.72-0.99,2.79-2.84,2.79-4.82V32.99
					c0-2-1.04-3.8-2.78-4.81c-1.7-0.98-3.71-1.01-5.43-0.1c0,0-0.17,0.09-0.17,0.09L41.07,121.55c-4.58,2.64-7.43,7.55-7.43,12.82
					V267c0,2,1.04,3.8,2.78,4.81C37.29,272.32,38.26,272.57,39.22,272.57z M63.46,259.23l-0.17,0.09l-21.39,12.3
					c-1.68,0.97-3.69,0.96-5.37-0.01c-1.67-0.97-2.67-2.69-2.67-4.61V134.37c0-5.19,2.8-10.03,7.32-12.62l162.21-93.28
					c0,0,0.17-0.09,0.17-0.09c1.68-0.97,3.69-0.96,5.37,0.01c1.67,0.97,2.67,2.69,2.67,4.61v137.97c0,1.9-1.03,3.67-2.68,4.62
					L63.46,259.23z"/>
			</g>
		</g>
		<g>
			<path class="st5" d="M201.49,49.63c0.01,0,0.01,3.37,0.01,3.37c0.01,0,0.01,3.37,0.01,3.37c0.01,0,0.01,3.37,0.01,3.37
				c0.01,0,0.01,3.37,0.01,3.37c0.01,0,0.01,3.37,0.01,3.37c0.01,0,0.01,3.37,0.01,3.37c0.01,0,0.01,3.37,0.01,3.37
				c0.01,0,0.01,12.75,0.01,12.75c-0.05,0.03-0.69,0.39-0.69,0.39V46.62l0.64-0.37V49.63z"/>
			<polygon class="st5" points="187.41,94.09 186.77,94.46 186.77,89.49 186.77,54.72 187.41,54.35 			"/>
			<polygon class="st5" points="173.33,102.19 172.7,102.55 172.7,92.62 172.7,62.81 173.33,62.45 			"/>
			<polygon class="st5" points="159.25,110.28 158.62,110.65 158.62,95.74 158.62,70.91 159.25,70.54 			"/>
			<polygon class="st5" points="145.18,118.38 144.54,118.74 144.54,98.87 144.54,79 145.18,78.64 			"/>
			<polygon class="st5" points="131.1,126.47 130.47,126.84 130.47,102 130.47,87.1 131.1,86.73 			"/>
			<polygon class="st5" points="117.02,134.56 116.39,134.93 116.39,105.12 116.39,95.19 117.02,94.82 			"/>
			<polygon class="st5" points="102.95,102.92 102.95,142.66 102.31,143.02 102.31,108.25 102.31,103.28 			"/>
		</g>
		<path class="st17" d="M101.97,120.16l11.4,8.02l-0.12-0.13c0.64,1.09,1.98,1.37,3.39,0.71c1.41-0.62,2.9-2.16,3.79-3.94
			c1.44-3.05,2.74-5.9,4.12-8.86l4.08-8.81c0.35-0.74,0.67-1.5,1-2.07c0.34-0.61,0.76-1.18,1.22-1.67c0.91-0.99,1.98-1.65,2.92-1.78
			l6.38-0.54c1.06-0.04,2.35-0.36,3.58-1.1c1.25-0.73,2.49-1.78,3.59-3.09c0.55-0.65,1.07-1.36,1.53-2.08l1.32-2.06l2.63-4.12
			l2.63-4.12l1.31-2.04c0.39-0.58,0.87-1.07,1.37-1.41c0.5-0.33,1.01-0.5,1.45-0.47c0.46,0.03,0.75,0.25,1.09,0.64l2.03,2.06
			l4.07,4.13l4.07,4.13c0.61,0.79,1.63,1.21,2.82,0.87c0.59-0.15,1.21-0.46,1.82-0.89c0.62-0.45,1.16-1,1.72-1.5l6.68-6.08
			c2.21-1.92,4.67-2.72,6.46-2.1l10.98,3.5l-10.85-3.76c-1.82-0.68-4.35,0.1-6.66,2.06l-6.73,5.99c-0.56,0.49-1.12,1.04-1.66,1.42
			c-0.55,0.38-1.11,0.65-1.64,0.77c-1.08,0.26-1.93-0.09-2.53-0.87l-3.98-4.25l-3.98-4.25l-1.99-2.12
			c-0.29-0.36-0.75-0.76-1.32-0.79c-0.57-0.05-1.24,0.16-1.9,0.59c-0.66,0.43-1.31,1.08-1.83,1.85l-1.35,2.07l-2.67,4.1l-2.67,4.1
			l-1.33,2.05c-0.42,0.65-0.87,1.24-1.35,1.8c-0.96,1.12-2.04,2.01-3.12,2.62c-1.1,0.62-2.1,0.87-3.13,0.89l-6.39,0.41
			c-1.23,0.15-2.65,1-3.87,2.3c-0.61,0.64-1.17,1.4-1.64,2.21c-0.49,0.85-0.79,1.58-1.15,2.3l-4.16,8.78l-4.14,8.72
			c-0.58,1.14-1.51,2.08-2.41,2.46c-0.9,0.4-1.7,0.21-2.1-0.49l-0.04-0.08l-0.07-0.05l-11.24-8.27c-0.34-0.25-0.93,0.04-1.32,0.65
			C101.67,119.21,101.63,119.91,101.97,120.16C101.97,120.16,101.97,120.16,101.97,120.16z"/>
		<path class="st5" d="M43.52,150.36c0.06-12.58,8.97-27.86,19.96-34.18c0.05-0.03,0.09-0.05,0.13-0.07
			c10.93-6.2,19.77-1.17,19.83,11.3c0,0.04,0,0.08,0,0.12c0,6.31-2.24,13.3-5.86,19.52c-3.6,6.18-8.57,11.59-14.06,14.76
			c-0.01,0.01-0.03,0.02-0.04,0.03c-11.03,6.34-19.97,1.26-19.97-11.34C43.52,150.44,43.52,150.4,43.52,150.36z M63.49,147.43
			c2.1-1.21,4-3.24,5.42-5.58c1.44-2.37,2.36-5.05,2.48-7.51c0.01-0.17,0.02-0.35,0.02-0.51c0-4.96-3.49-6.97-7.81-4.55
			c-0.04,0.02-0.07,0.04-0.11,0.06c-4.37,2.52-7.92,8.61-7.92,13.6C55.57,147.94,59.11,149.95,63.49,147.43z"/>
		<g>
			<g>
				<path class="st17" d="M104.55,166.59c-2.17,1.25-3.94,0.25-3.94-2.24c0-2.48,1.77-5.52,3.94-6.77c0.02-0.01,0.03-0.02,0.05-0.02
					v-2.15c-0.02,0.01-0.03,0.02-0.05,0.03c-3.21,1.85-5.83,6.34-5.83,10.01c0,3.67,2.61,5.16,5.83,3.31
					c0.02-0.01,0.03-0.02,0.05-0.03v-2.15C104.58,166.57,104.57,166.58,104.55,166.59z"/>
				<path class="st18" d="M104.52,155.45v2.15c2.14-1.2,3.87-0.21,3.89,2.22l1.89-1.06C110.29,155.12,107.7,153.64,104.52,155.45z"
					/>
				<path class="st17" d="M108.42,159.82c0,2.51-1.74,5.52-3.89,6.78v2.15c3.19-1.86,5.78-6.33,5.78-9.98
					C110.3,158.76,108.42,159.82,108.42,159.82z"/>
			</g>
			<g class="st19">
				<polygon class="st20" points="103.2,160.78 104.4,160.08 104.4,160.3 103.2,161 				"/>
				<polygon class="st20" points="103.2,161.2 104.4,160.5 104.4,160.72 103.2,161.42 				"/>
				<polygon class="st20" points="103.21,162.04 105.03,160.98 105.03,161.2 103.21,162.26 				"/>
				<polygon class="st20" points="105.03,161.75 105.03,161.97 103.61,162.8 103.61,162.59 				"/>
				<polygon class="st20" points="105.02,159.72 105.02,159.94 104.59,160.19 104.59,159.97 				"/>
				<polygon class="st20" points="105.02,160.14 105.02,160.36 104.59,160.61 104.59,160.39 				"/>
				<polygon class="st20" points="105.04,163.1 105.04,163.32 104.43,163.68 104.43,163.46 				"/>
				<polygon class="st20" points="105.04,163.52 105.05,163.74 104.43,164.1 104.43,163.88 				"/>
			</g>
		</g>
		<g>
			<path class="st18" d="M23.54,136.43c0,1.17,0.83,1.64,1.86,1.05c1.03-0.59,1.86-2.02,1.86-3.19c0-1.17-0.83-1.64-1.86-1.05
				C24.37,133.83,23.54,135.26,23.54,136.43z"/>
			<g>
				<path class="st9" d="M23.54,147.54c0,1.17,0.83,1.64,1.86,1.05c1.03-0.59,1.86-2.02,1.86-3.19c0-1.17-0.83-1.64-1.86-1.05
					C24.37,144.94,23.54,146.37,23.54,147.54z"/>
			</g>
			<path class="st17" d="M23.54,158.64c0,1.17,0.83,1.64,1.86,1.05c1.03-0.59,1.86-2.02,1.86-3.19c0-1.17-0.83-1.64-1.86-1.05
				C24.37,156.04,23.54,157.47,23.54,158.64z"/>
			<g>
				<path class="st21" d="M23.54,169.75c0,1.17,0.83,1.64,1.86,1.05c1.03-0.59,1.86-2.02,1.86-3.19c0-1.17-0.83-1.64-1.86-1.05
					C24.37,167.15,23.54,168.58,23.54,169.75z"/>
			</g>
			<g>
				<path class="st22" d="M23.54,180.86c0,1.17,0.83,1.64,1.86,1.05c1.03-0.59,1.86-2.02,1.86-3.19c0-1.17-0.83-1.64-1.86-1.05
					C24.37,178.26,23.54,179.68,23.54,180.86z"/>
			</g>
		</g>
		<g>
			<path class="st23" d="M38.95,272.88c1,0,1.99-0.26,2.9-0.78l167.02-96.04c1.79-1.03,2.9-2.95,2.9-5.01V33.08
				c0-2.09-1.09-3.96-2.9-5.01c-1.65-0.95-3.6-1.04-5.3-0.26c0-0.03-0.51,0.26-0.51,0.26L40.69,121.44
				c-4.65,2.68-7.54,7.66-7.54,13.01v132.63c0,2.09,1.09,3.96,2.9,5.01C36.96,272.62,37.96,272.88,38.95,272.88z M63.42,258.92
				l-0.5,0.29l-21.39,12.3c-1.61,0.93-3.53,0.93-5.13,0c-1.61-0.92-2.57-2.58-2.57-4.43V134.45c0-5.11,2.76-9.87,7.21-12.43
				L202.9,28.94c0,0,0.51-0.29,0.51-0.29c1.61-0.93,3.53-0.92,5.13,0c1.61,0.92,2.57,2.58,2.57,4.43v137.97
				c0,1.82-0.98,3.52-2.57,4.43L63.42,258.92z"/>
		</g>
		<g>
			<g>
				<path class="st24" d="M45.49,183.22l67.63-38.89c1.36-0.78,3.06,0.2,3.06,1.76v68.48c0,2.48-1.33,4.78-3.49,6.02L45.89,259
					c-2.05,1.18-4.62-0.3-4.62-2.66v-65.83C41.27,187.5,42.88,184.72,45.49,183.22z"/>
				<path class="st5" d="M44.35,259.53c0.55,0,1.1-0.14,1.6-0.43l66.81-38.42c2.19-1.26,3.55-3.6,3.55-6.12v-68.48
					c0-0.77-0.4-1.47-1.08-1.86c-0.68-0.39-1.48-0.39-2.15,0l-67.63,38.89c-2.64,1.52-4.28,4.35-4.28,7.39v65.83
					c0,1.15,0.6,2.18,1.6,2.75C43.25,259.39,43.8,259.53,44.35,259.53z M114.15,144.17c0.33,0,0.66,0.09,0.96,0.26
					c0.6,0.35,0.96,0.97,0.96,1.66v68.48c0,2.44-1.32,4.7-3.43,5.92l-66.81,38.42c-0.93,0.54-2.04,0.53-2.97,0
					c-0.93-0.53-1.48-1.49-1.48-2.56v-65.83c0-2.96,1.6-5.72,4.17-7.2l67.63-38.89C113.48,144.25,113.81,144.17,114.15,144.17z"/>
			</g>
			<g>
				<polygon class="st17" points="49.69,247.85 46.56,249.65 46.56,216.38 49.69,214.58 				"/>
				<polygon class="st25" points="54.04,245.35 50.91,247.14 50.91,225.82 54.04,224.02 				"/>
				<g>
					<polygon class="st9" points="58.38,242.85 55.26,244.64 55.26,217.97 58.38,216.17 					"/>
				</g>
				<polygon class="st25" points="62.73,240.35 59.61,242.14 59.61,224.5 62.73,222.7 				"/>
				<g>
					<polygon class="st8" points="67.08,237.84 63.96,239.64 63.96,208.87 67.08,207.07 					"/>
				</g>
				<polygon class="st26" points="71.43,235.34 68.31,237.14 68.31,224.96 71.43,223.16 				"/>
				<polygon class="st17" points="75.78,232.84 72.66,234.64 72.66,211.95 75.78,210.15 				"/>
			</g>
			<g>
				<g>
					<g>
						<polygon class="st25" points="108.17,213.76 108.23,218.2 112.21,215.89 112.16,211.46 						"/>
						<polygon class="st27" points="108.07,204.81 108.12,209.24 112.11,206.94 112.05,202.5 						"/>
						<polygon class="st17" points="107.96,195.85 108.01,200.28 112,197.98 111.95,193.55 						"/>
						<polygon class="st18" points="107.85,186.9 107.9,191.33 111.89,189.02 111.84,184.59 						"/>
						<polygon class="st25" points="107.74,177.94 107.8,182.37 111.78,180.07 111.73,175.63 						"/>
					</g>
				</g>
				<g>
					<g>
						<polygon class="st17" points="102.06,217.3 102.11,221.73 106.1,219.43 106.05,215 						"/>
						<polygon class="st25" points="101.95,208.34 102.01,212.78 105.99,210.47 105.94,206.04 						"/>
						<polygon class="st18" points="101.84,199.39 101.9,203.82 105.88,201.52 105.83,197.08 						"/>
						<polygon class="st25" points="101.74,190.43 101.79,194.86 105.78,192.56 105.72,188.13 						"/>
						<polygon class="st8" points="101.63,181.48 101.68,185.91 105.67,183.6 105.61,179.17 						"/>
						<polygon class="st28" points="101.52,172.52 101.57,176.95 105.56,174.65 105.51,170.22 						"/>
					</g>
				</g>
				<g>
					<g>
						<polygon class="st8" points="95.84,220.9 95.89,225.33 99.87,223.03 99.82,218.6 						"/>
						<polygon class="st8" points="95.73,211.94 95.78,216.38 99.77,214.07 99.71,209.64 						"/>
						<polygon class="st17" points="95.62,202.99 95.67,207.42 99.66,205.12 99.61,200.68 						"/>
						<g>
							<polygon class="st9" points="95.51,194.03 95.57,198.46 99.55,196.16 99.5,191.73 							"/>
						</g>
						<polygon class="st17" points="95.4,185.08 95.46,189.51 99.44,187.2 99.39,182.77 						"/>
						<polygon class="st28" points="95.3,176.12 95.35,180.55 99.34,178.25 99.28,173.81 						"/>
					</g>
				</g>
				<g>
					<g>
						<polygon class="st18" points="90.05,224.25 90.1,228.68 94.09,226.37 94.03,221.94 						"/>
						<polygon class="st25" points="89.94,215.29 89.99,219.72 93.98,217.42 93.93,212.99 						"/>
						<polygon class="st27" points="89.83,206.33 89.89,210.77 93.87,208.46 93.82,204.03 						"/>
						<polygon class="st27" points="89.72,197.38 89.78,201.81 93.76,199.51 93.71,195.07 						"/>
						<polygon class="st17" points="89.62,188.42 89.67,192.86 93.66,190.55 93.6,186.12 						"/>
						<polygon class="st18" points="89.51,179.47 89.56,183.9 93.55,181.59 93.49,177.16 						"/>
					</g>
				</g>
			</g>
			<g>
				<g>
					<g>
						<path class="st5" d="M53.96,209.61c-0.13,0.08-0.23,0.26-0.23,0.4c0,0.15,0.11,0.2,0.24,0.13c0.13-0.08,0.23-0.26,0.23-0.4
							C54.19,209.59,54.09,209.54,53.96,209.61z"/>
						<path class="st5" d="M53.95,208.24c-0.13,0.08-0.23,0.26-0.23,0.4c0,0.15,0.11,0.2,0.24,0.13c0.13-0.08,0.23-0.26,0.23-0.4
							C54.18,208.22,54.08,208.16,53.95,208.24z"/>
						<path class="st5" d="M53.94,206.86c-0.13,0.08-0.23,0.26-0.23,0.4c0,0.15,0.11,0.2,0.24,0.13c0.13-0.08,0.23-0.26,0.23-0.4
							C54.17,206.84,54.07,206.78,53.94,206.86z"/>
						<path class="st5" d="M53.93,205.48c-0.13,0.08-0.23,0.26-0.23,0.4c0,0.15,0.11,0.2,0.24,0.13c0.13-0.08,0.23-0.26,0.23-0.4
							C54.16,205.46,54.06,205.41,53.93,205.48z"/>
						<path class="st5" d="M53.92,204.1c-0.13,0.08-0.23,0.26-0.23,0.4c0,0.15,0.11,0.2,0.24,0.13c0.13-0.08,0.23-0.26,0.23-0.4
							C54.15,204.09,54.05,204.03,53.92,204.1z"/>
						<path class="st5" d="M53.91,202.73c-0.13,0.08-0.23,0.26-0.23,0.4c0,0.15,0.11,0.2,0.24,0.13c0.13-0.08,0.23-0.26,0.23-0.4
							C54.14,202.71,54.04,202.65,53.91,202.73z"/>
						<path class="st5" d="M53.9,201.35c-0.13,0.08-0.23,0.26-0.23,0.4c0,0.15,0.11,0.2,0.24,0.13c0.13-0.08,0.23-0.26,0.23-0.4
							C54.13,201.33,54.02,201.28,53.9,201.35z"/>
						<path class="st5" d="M53.89,199.97c-0.13,0.08-0.23,0.26-0.23,0.4c0,0.15,0.11,0.2,0.24,0.13c0.13-0.08,0.23-0.26,0.23-0.4
							C54.12,199.96,54.01,199.9,53.89,199.97z"/>
						<path class="st5" d="M53.87,198.6c-0.13,0.08-0.23,0.26-0.23,0.4c0,0.15,0.11,0.2,0.24,0.13c0.13-0.08,0.23-0.26,0.23-0.4
							C54.11,198.58,54,198.52,53.87,198.6z"/>
						<path class="st5" d="M53.86,197.22c-0.13,0.08-0.23,0.26-0.23,0.4c0,0.15,0.11,0.2,0.24,0.13c0.13-0.08,0.23-0.26,0.23-0.4
							C54.1,197.2,53.99,197.14,53.86,197.22z"/>
					</g>
					<g>
						<path class="st5" d="M53.85,195.77c-0.13,0.08-0.23,0.26-0.23,0.4c0,0.15,0.11,0.2,0.24,0.13c0.13-0.08,0.23-0.26,0.23-0.4
							C54.09,195.76,53.98,195.7,53.85,195.77z"/>
						<path class="st5" d="M53.84,194.4c-0.13,0.08-0.23,0.26-0.23,0.4c0,0.15,0.11,0.2,0.24,0.13c0.13-0.08,0.23-0.26,0.23-0.4
							C54.08,194.38,53.97,194.32,53.84,194.4z"/>
						<path class="st5" d="M53.83,193.02c-0.13,0.08-0.23,0.26-0.23,0.4c0,0.15,0.11,0.2,0.24,0.13c0.13-0.08,0.23-0.26,0.23-0.4
							C54.07,193,53.96,192.95,53.83,193.02z"/>
						<path class="st5" d="M53.82,191.64c-0.13,0.08-0.23,0.26-0.23,0.4c0,0.15,0.11,0.2,0.24,0.13c0.13-0.08,0.23-0.26,0.23-0.4
							C54.06,191.63,53.95,191.57,53.82,191.64z"/>
						<path class="st5" d="M53.81,190.27c-0.13,0.08-0.23,0.26-0.23,0.4c0,0.15,0.11,0.2,0.24,0.13c0.13-0.08,0.23-0.26,0.23-0.4
							C54.04,190.25,53.94,190.19,53.81,190.27z"/>
						<path class="st5" d="M53.8,188.89c-0.13,0.08-0.23,0.26-0.23,0.4c0,0.15,0.11,0.2,0.24,0.13c0.13-0.08,0.23-0.26,0.23-0.4
							C54.03,188.87,53.93,188.81,53.8,188.89z"/>
						<path class="st5" d="M53.79,187.51c-0.13,0.08-0.23,0.26-0.23,0.4c0,0.15,0.11,0.2,0.24,0.13c0.13-0.08,0.23-0.26,0.23-0.4
							C54.02,187.49,53.92,187.44,53.79,187.51z"/>
						<path class="st5" d="M53.78,186.14c-0.13,0.08-0.23,0.26-0.23,0.4c0,0.15,0.11,0.2,0.24,0.13c0.13-0.08,0.23-0.26,0.23-0.4
							C54.01,186.12,53.91,186.06,53.78,186.14z"/>
						<path class="st5" d="M53.77,184.76c-0.13,0.08-0.23,0.26-0.23,0.4c0,0.15,0.11,0.2,0.24,0.13c0.13-0.08,0.23-0.26,0.23-0.4
							C54,184.74,53.9,184.68,53.77,184.76z"/>
						<path class="st5" d="M53.76,183.38c-0.13,0.08-0.23,0.26-0.23,0.4c0,0.15,0.11,0.2,0.24,0.13c0.13-0.08,0.23-0.26,0.23-0.4
							C53.99,183.36,53.89,183.31,53.76,183.38z"/>
					</g>
				</g>
				<polygon class="st5" points="60.67,205.43 56.13,208.09 56.13,208.75 60.67,206.09 				"/>
				<polygon class="st5" points="60.66,204.13 56.12,206.79 56.12,207.45 60.66,204.8 				"/>
				<polygon class="st5" points="60.65,202.83 56.11,205.49 56.11,206.16 60.65,203.5 				"/>
				<polygon class="st5" points="64.33,199.38 56.1,204.19 56.1,204.86 64.33,200.04 				"/>
				<polygon class="st5" points="62.68,197.94 58.13,200.6 58.14,201.27 62.68,198.61 				"/>
				<polygon class="st5" points="62.67,196.65 58.12,199.31 58.13,199.97 62.67,197.31 				"/>
				<polygon class="st5" points="76.05,188.84 71.51,191.5 71.51,192.16 76.06,189.5 				"/>
				<polygon class="st5" points="62.66,195.35 58.11,198.01 58.12,198.67 62.66,196.01 				"/>
				<polygon class="st5" points="72.74,198.37 61.25,205.09 61.26,205.75 72.74,199.03 				"/>
				<polygon class="st5" points="69.85,198.75 61.24,203.79 61.25,204.45 69.86,199.42 				"/>
				<polygon class="st5" points="76.25,195.02 70.47,198.41 70.47,199.07 76.25,195.69 				"/>
				<polygon class="st5" points="78.1,192.62 61.23,202.49 61.24,203.16 78.11,193.29 				"/>
				<polygon class="st5" points="76.81,192.07 65.86,198.48 65.87,199.14 76.82,192.74 				"/>
				<polygon class="st5" points="78.02,188.97 63.26,197.6 63.27,198.27 78.03,189.63 				"/>
				<polygon class="st5" points="70.93,191.81 63.25,196.31 63.26,196.97 70.93,192.48 				"/>
				<polygon class="st5" points="75.15,188.04 63.24,195.01 63.25,195.67 75.15,188.7 				"/>
				<polygon class="st5" points="65.15,192.31 60.6,194.97 60.61,195.64 65.15,192.98 				"/>
				<polygon class="st5" points="77.97,184.82 65.74,191.97 65.75,192.63 77.98,185.48 				"/>
				<polygon class="st5" points="79.28,182.74 60.59,193.67 60.6,194.34 79.29,183.4 				"/>
				<polygon class="st5" points="71.27,186.12 60.58,192.38 60.59,193.04 71.27,186.79 				"/>
				<polygon class="st5" points="79.22,181.47 71.92,185.74 71.93,186.4 79.23,182.13 				"/>
				<polygon class="st5" points="62.64,189.87 58.1,192.52 58.1,193.19 62.65,190.53 				"/>
				<polygon class="st5" points="69.72,184.42 58.09,191.23 58.09,191.89 69.72,185.09 				"/>
				<polygon class="st5" points="79.25,178.86 70.39,184.04 70.4,184.71 79.26,179.53 				"/>
				<polygon class="st5" points="66.62,184.93 58.08,189.93 58.08,190.59 66.63,185.59 				"/>
				<polygon class="st5" points="68.31,182.64 58.07,188.63 58.07,189.3 68.31,183.3 				"/>
				<polygon class="st5" points="72.11,179.03 60.78,185.66 60.79,186.32 72.11,179.69 				"/>
				<polygon class="st5" points="74.99,176.04 60.77,184.36 60.78,185.02 74.99,176.71 				"/>
				<polygon class="st5" points="65.3,180.4 60.76,183.06 60.77,183.72 65.31,181.07 				"/>
				<polygon class="st5" points="78.73,171.26 76.92,172.32 76.93,172.98 78.74,171.92 				"/>
				<polygon class="st5" points="76.2,172.72 60.75,181.76 60.76,182.43 76.21,173.39 				"/>
				<polygon class="st5" points="66.03,177.37 61.49,180.03 61.5,180.69 66.04,178.03 				"/>
				<polygon class="st5" points="77.67,170.56 66.66,177 66.67,177.67 77.68,171.22 				"/>
				<polygon class="st5" points="69.37,174.11 60.73,179.17 60.74,179.83 69.37,174.78 				"/>
				<polygon class="st5" points="63.85,176.04 59.3,178.7 59.31,179.36 63.85,176.7 				"/>
				<polygon class="st5" points="52,211.15 48.29,213.32 48.29,212.66 52,210.49 				"/>
				<polygon class="st5" points="51.99,209.85 48.28,212.02 48.28,211.36 51.99,209.19 				"/>
				<polygon class="st5" points="51.97,207.26 46.36,210.54 46.36,209.88 51.97,206.59 				"/>
				<polygon class="st5" points="46.34,208.15 46.34,207.49 50.73,204.92 50.73,205.58 				"/>
				<polygon class="st5" points="46.39,214.43 46.39,213.77 47.71,213 47.71,213.66 				"/>
				<polygon class="st5" points="46.38,213.14 46.38,212.47 47.7,211.7 47.7,212.36 				"/>
				<polygon class="st5" points="46.31,203.98 46.3,203.32 48.19,202.21 48.2,202.88 				"/>
				<polygon class="st5" points="46.3,202.69 46.29,202.02 48.18,200.92 48.19,201.58 				"/>
				<polygon class="st5" points="46.27,198.79 46.26,198.13 50.63,195.58 50.63,196.24 				"/>
				<polygon class="st5" points="46.25,196.2 46.24,195.53 50.61,192.98 50.61,193.65 				"/>
				<polygon class="st5" points="46.24,194.82 46.23,194.15 47.87,193.19 47.88,193.86 				"/>
				<polygon class="st5" points="46.21,190.92 46.2,190.26 47.84,189.3 47.85,189.96 				"/>
				<polygon class="st5" points="46.19,188.33 46.18,187.66 47.82,186.7 47.83,187.37 				"/>
			</g>
		</g>
		<path class="st5" d="M152.19,116.91l48.02-27.09c1.58-0.89,3.54,0.25,3.54,2.05v67.6c0,2.13-1.13,4.09-2.97,5.17l-48.12,28.14
			c-2.05,1.2-4.64-0.27-4.64-2.65v-66.08C148.01,121.1,149.61,118.37,152.19,116.91z"/>
		<g>
			<g>
				<path class="st9" d="M79.09,137.16c0-4.96-3.49-6.97-7.81-4.55l0.03-13.17c10.93-6.2,19.77-1.17,19.83,11.3l-12.07,6.94
					C79.08,137.5,79.09,137.33,79.09,137.16z"/>
			</g>
			<path class="st25" d="M79.07,137.67l12.07-6.94c0,0.04,0,0.08,0,0.12c0,6.31-2.24,13.3-5.86,19.52l-8.69-5.18
				C78.03,142.81,78.95,140.13,79.07,137.67z"/>
			<path class="st17" d="M51.21,153.69c0.06-12.58,8.97-27.86,19.96-34.18c0.05-0.03,0.09-0.05,0.13-0.07l-0.03,13.17
				c-0.04,0.02-0.07,0.03-0.11,0.06c-4.37,2.52-7.92,8.61-7.92,13.6c0,5,3.55,7.01,7.92,4.5c2.1-1.21,4-3.24,5.42-5.58l8.69,5.18
				c-3.6,6.18-8.57,11.59-14.06,14.76c-0.01,0.01-0.03,0.02-0.04,0.03c-11.03,6.34-19.97,1.26-19.97-11.34
				C51.21,153.77,51.21,153.73,51.21,153.69z"/>
		</g>
		<g>
			<g>
				<path class="st29" d="M163.07,123.82l48.02-27.09c1.58-0.89,3.54,0.25,3.54,2.05v67.6c0,2.13-1.13,4.09-2.97,5.17l-48.12,28.14
					c-2.05,1.2-4.64-0.27-4.64-2.65v-66.08C158.89,128,160.49,125.27,163.07,123.82z"/>
				<path class="st30" d="M161.97,200.22c0.56,0,1.11-0.15,1.62-0.44l48.12-28.14c1.87-1.09,3.03-3.11,3.03-5.27v-67.6
					c0-0.89-0.46-1.69-1.23-2.13c-0.77-0.45-1.7-0.46-2.47-0.02l-48.02,27.09c-2.61,1.47-4.24,4.25-4.24,7.24v66.08
					c0,1.15,0.6,2.19,1.61,2.76C160.88,200.08,161.43,200.22,161.97,200.22z M212.26,96.53c0.39,0,0.78,0.1,1.14,0.31
					c0.7,0.41,1.12,1.13,1.12,1.94v67.6c0,2.08-1.12,4.02-2.92,5.07l-48.12,28.14c-0.93,0.54-2.04,0.55-2.98,0.01
					c-0.93-0.53-1.49-1.49-1.49-2.56v-66.08c0-2.91,1.58-5.61,4.12-7.04l48.02-27.09C211.49,96.63,211.87,96.53,212.26,96.53z"/>
			</g>
			<path class="st17" d="M211.53,166.68l-6.59-9.72c-0.91-1.35-2.99-1.07-3.5,0.48l-1.65,4.95c-0.38,1.13-1.82,1.45-2.65,0.6
				l-7.85-8.12c-1.33-1.38-3.65-0.87-4.28,0.94l-5.71,16.46c-1.03,2.98-4.71,4.05-7.19,2.1l-0.87-0.69
				c-0.96-0.75-2.37-0.28-2.68,0.9l-5.05,19.3c-0.13,0.5,0.41,0.91,0.86,0.66l46.75-26.15
				C211.73,168.05,211.92,167.26,211.53,166.68z"/>
			<g>
				<polygon class="st31" points="207.48,140.47 207.81,140.27 207.81,128.24 207.48,128.43 				"/>
				<polygon class="st31" points="199.58,145.01 199.92,144.81 199.92,107.31 199.58,107.5 				"/>
				<polygon class="st31" points="191.68,125.42 191.68,149.55 191.35,149.74 191.35,125.62 				"/>
				<polygon class="st31" points="183.41,154.31 183.74,154.12 183.74,116.61 183.41,116.81 				"/>
				<polygon class="st31" points="176.66,158.19 176.99,158 176.99,150.95 176.66,151.14 				"/>
				<polygon class="st31" points="169.84,162.11 170.18,161.92 170.18,124.41 169.84,124.6 				"/>
				<g>
					<path class="st8" d="M199.49,142.12l0.35-0.2c0.57-0.33,1.04-1.22,1.04-1.98V113.1c0-0.76-0.47-1.12-1.04-0.79l-0.35,0.2
						c-0.57,0.33-1.04,1.22-1.04,1.98v26.84C198.44,142.1,198.91,142.45,199.49,142.12z"/>
				</g>
				<path class="st17" d="M169.78,159.39l0.35-0.2c0.57-0.33,1.04-1.22,1.04-1.98v-22.04c0-0.76-0.47-1.12-1.04-0.79l-0.35,0.2
					c-0.57,0.33-1.04,1.22-1.04,1.98v22.04C168.74,159.37,169.21,159.72,169.78,159.39z"/>
				<path class="st25" d="M183.45,151.34l0.35-0.2c0.57-0.33,1.04-1.22,1.04-1.98v-16.29c0-0.76-0.47-1.12-1.04-0.79l-0.35,0.2
					c-0.57,0.33-1.04,1.22-1.04,1.98v16.29C182.41,151.32,182.88,151.67,183.45,151.34z"/>
				<path class="st18" d="M207.33,135.37l0.35-0.2c0.57-0.33,1.04-1.22,1.04-1.98v-1.26c0-0.76-0.47-1.12-1.04-0.79l-0.35,0.2
					c-0.57,0.33-1.04,1.22-1.04,1.98v1.26C206.29,135.35,206.76,135.7,207.33,135.37z"/>
				<path class="st26" d="M191.25,143.18l0.35-0.2c0.57-0.33,1.04-1.22,1.04-1.98v-8.96c0-0.76-0.47-1.12-1.04-0.79l-0.35,0.2
					c-0.57,0.33-1.04,1.22-1.04,1.98v8.96C190.21,143.15,190.68,143.51,191.25,143.18z"/>
			</g>
		</g>
		<g>
			<path class="st5" d="M21.19,293.6c0.68,0,1.35-0.18,1.96-0.53l196.66-113.08V10.25c0-1.17-0.61-2.21-1.62-2.8
				c-1.02-0.58-2.23-0.58-3.24,0L21.35,118.78c-2.52,1.45-4.08,4.15-4.08,7.04v163.85c0,1.41,0.73,2.68,1.96,3.39
				C19.84,293.42,20.52,293.6,21.19,293.6z M218.92,179.47L22.71,292.29c-0.95,0.54-2.08,0.55-3.03,0
				c-0.95-0.55-1.52-1.52-1.52-2.61V125.83c0-2.58,1.39-4.98,3.63-6.27L215.4,8.23c0.73-0.42,1.61-0.42,2.34,0
				c0.73,0.42,1.17,1.18,1.17,2.02V179.47z"/>
		</g>
	</g>
	<g>
		<polygon class="st5" points="347.28,183.95 347.28,184.65 349.85,186.15 349.85,185.46 		"/>
		<polygon class="st5" points="347.28,185.31 347.28,186 349.84,187.5 349.84,186.81 		"/>
		<polygon class="st5" points="347.28,186.66 347.28,187.35 349.83,188.85 349.83,188.16 		"/>
		<polygon class="st5" points="347.28,188.02 347.28,188.71 353.63,192.44 353.64,191.75 		"/>
		<polygon class="st5" points="347.28,190.51 347.28,191.2 351.92,193.93 351.93,193.24 		"/>
		<polygon class="st5" points="347.28,191.86 347.28,192.56 351.91,195.28 351.92,194.59 		"/>
		<polygon class="st5" points="347.28,193.22 347.28,193.91 351.9,196.63 351.91,195.94 		"/>
		<polygon class="st5" points="360.64,192.49 350.45,186.51 350.46,185.82 360.64,191.8 		"/>
		<polygon class="st5" points="359.35,193.09 350.44,187.86 350.45,187.17 359.35,192.4 		"/>
		<polygon class="st5" points="360.64,195.2 350.43,189.2 350.44,188.52 360.64,194.51 		"/>
		<polygon class="st5" points="360.64,196.55 355.22,193.37 355.23,192.68 360.64,195.86 		"/>
		<polygon class="st5" points="360.64,199.05 352.53,194.28 352.53,193.59 360.64,198.35 		"/>
		<polygon class="st5" points="360.46,200.3 352.52,195.63 352.52,194.94 360.47,199.61 		"/>
		<polygon class="st5" points="360.64,201.76 352.51,196.98 352.51,196.29 360.64,201.06 		"/>
		<polygon class="st5" points="354.48,199.78 349.78,197.02 349.78,196.33 354.48,199.09 		"/>
		<polygon class="st5" points="360.64,203.39 355.1,200.13 355.1,199.44 360.64,202.7 		"/>
		<polygon class="st5" points="360.64,204.75 349.77,198.37 349.77,197.68 360.64,204.06 		"/>
	</g>
	<g>
		<path class="st15" d="M161.7,113.55c0,0.54,0.38,0.76,0.86,0.49c0.47-0.27,0.86-0.94,0.86-1.48c0-0.54-0.38-0.76-0.86-0.49
			C162.08,112.34,161.7,113,161.7,113.55z"/>
		<path class="st15" d="M164.61,111.99c0,0.54,0.38,0.76,0.86,0.49c0.47-0.27,0.86-0.94,0.86-1.48c0-0.54-0.38-0.76-0.86-0.49
			C165,110.79,164.61,111.45,164.61,111.99z"/>
		<path class="st15" d="M167.48,110.52c0,0.54,0.38,0.76,0.86,0.49c0.47-0.27,0.86-0.94,0.86-1.48c0-0.54-0.38-0.76-0.86-0.49
			C167.87,109.31,167.48,109.98,167.48,110.52z"/>
	</g>
	<g>
		<g>
			<g>
				<path class="st0" d="M187.04,85.37c-0.7-0.26-1.53-0.38-2.01-0.85c-0.41-0.4-0.47-0.97-0.92-1.34c-1.1-0.92-3.26,0.13-4.64-0.51
					c-0.36-0.17-0.64-0.44-1.03-0.57c-1.35-0.41-2.56,1.22-3.99,1.01c-0.39-0.06-0.74-0.25-1.13-0.24
					c-0.33,0.01-0.62,0.18-0.86,0.35c-0.5,0.36-0.99,0.95-1.33,1.61c-0.31,0.12-0.58,0.28-0.74,0.51c-0.15,0.21-0.19,0.45-0.21,0.69
					c-0.05,0.75,0.28,1.65,0.84,2.43c0.07,0.34,0.21,0.68,0.39,1.01c0.5,0.88,1.33,1.67,2.09,2.12c0.37,0.22,0.76,0.43,1.15,0.64
					v1.25c0,0.26,0.28,0.48,0.62,0.48c0.14,0,0.26-0.04,0.36-0.1c-0.02-0.13-0.04-0.26-0.04-0.39c0-0.9,0.51-1.64,1.14-1.64
					c0.63,0,1.14,0.73,1.14,1.64c0,0.48-0.15,0.91-0.38,1.21c0.39,0.67,0.68,1.39,1.16,2.01c0.68,0.88,2.02,1.59,3.13,1.12
					c0.18-0.08,0.36-0.2,0.55-0.34c0.24-0.18,0.49-0.41,0.73-0.69c0.19-0.06,0.36-0.14,0.49-0.28c0.22-0.23,0.28-0.53,0.48-0.77
					c0.47-0.57,1.62-0.73,1.84-1.38c0.13-0.4-0.16-0.83-0.04-1.24c0.19-0.63,1.25-0.88,1.6-1.47c0.33-0.56-0.1-1.2-0.25-1.81
					c-0.26-1.05,0.33-2.1,0.91-3.07C188.41,86.23,187.74,85.63,187.04,85.37z"/>
				<path class="st7" d="M181.78,97.82c-1.11,0.47-2.46-0.23-3.13-1.12c-0.48-0.63-0.77-1.34-1.16-2.01
					c0.23-0.3,0.38-0.73,0.38-1.21c0-0.9-0.51-1.64-1.14-1.64c-0.63,0-1.14,0.73-1.14,1.64c0,0.14,0.01,0.27,0.04,0.39
					c-0.1,0.06-0.22,0.1-0.36,0.1c-0.34,0-0.62-0.22-0.62-0.48v-1.25c-0.39-0.21-0.77-0.42-1.15-0.64c-0.77-0.45-1.6-1.24-2.09-2.12
					v4c0,2.69,2.64,4.9,6.02,5.14c-0.04,1.68-0.09,3.37-0.13,5.05c-0.04,1.56,4.84,1.56,4.88,0c0.05-2.06,0.11-4.13,0.16-6.19
					C182.14,97.62,181.96,97.74,181.78,97.82z"/>
			</g>
			<g>
				<path class="st0" d="M203.68,117.45c-0.84-0.82-1.68-1.63-2.53-2.44c-0.8-0.77-1.6-1.54-2.39-2.32c-2.65-2.57-5.3-5.14-7.96-7.7
					c-2.6-2.52-7.14,1.06-4.56,3.55c2.69,2.6,5.38,5.21,8.07,7.81c0.72,0.69,1.43,1.39,2.15,2.08c0.42,0.41,0.84,0.82,1.26,1.22
					c-4.37,8.45-8.74,16.9-13.1,25.36c-1.55,3,4.69,4.3,6.22,1.33c4.56-8.82,9.11-17.63,13.67-26.45
					C204.96,119.03,204.35,118.11,203.68,117.45z"/>
				<path class="st9" d="M165.84,221.72c1.87-0.84,5.17-0.73,7.33,0.24l2.85,1.28c2.16,0.97,2.4,2.45,0.53,3.29
					c-1.87,0.84-5.17,0.73-7.33-0.24l-2.85-1.28C164.21,224.04,163.97,222.56,165.84,221.72z"/>
				<path class="st9" d="M179.18,213.14c1.87-0.84,5.17-0.73,7.33,0.24l2.85,1.28c2.16,0.97,2.4,2.45,0.53,3.29
					c-1.87,0.84-5.17,0.73-7.33-0.24l-2.85-1.28C177.55,215.46,177.31,213.98,179.18,213.14z"/>
				<path class="st14" d="M168.19,153.81c-0.34-5.17,9.99-5.15,10.33,0c0.13,2.01,0.25,4.03,0.36,6.04l4.96-2.23
					c0.18-3.01,0.35-6.02,0.53-9.03c0.32-5.15,10.65-5.18,10.33,0c-1.35,21.61-2.45,43.21-2.82,64.84c-0.09,5.17-10.41,5.18-10.33,0
					c0.28-16.57,1-33.12,1.92-49.67l-4.29,1.93c0.91,18.63,1.06,37.25,0.34,55.91c-0.2,5.16-10.53,5.18-10.33,0
					C170.08,198.98,169.68,176.41,168.19,153.81z"/>
				<path class="st0" d="M168.25,113.36c0.15-2.69,1.52-5.23,3.86-6.83c3.64-2.48,8.89-3.96,13.9-3.79c5.87,0.2,8,6.46,8.87,12.09
					v36.48c-0.98,3.94-4,5.91-16.2,10.91c-1.96,0.8-4.15,1.31-6.35,1.37c-2.2,0.07-3.07-1.06-4.3-2.52
					c-1.1-1.31-0.25-6.63-0.22-8.21C168.11,139.6,167.7,123.26,168.25,113.36z"/>
			</g>
		</g>
		<path class="st32" d="M151.29,103.1c0.33-0.17,0.6-0.6,0.59-0.95l-0.01-4.43c0.95-0.61,1.86-1.53,2.59-2.69
			c1.68-2.68,1.67-5.58-0.02-6.47c-1.69-0.89-4.42,0.56-6.1,3.24c-1.68,2.68-1.67,5.58,0.02,6.47c0.66,0.35,1.47,0.33,2.32,0.04
			l0.01,4.47C150.69,103.13,150.96,103.27,151.29,103.1z M153.71,94.64c-1.27,2.03-3.34,3.13-4.61,2.45
			c-1.27-0.67-1.28-2.87-0.01-4.89c1.27-2.03,3.34-3.13,4.61-2.45C154.98,90.42,154.98,92.62,153.71,94.64z"/>
		<path class="st7" d="M152.48,107.17l-3.33-1.78c-1.05-0.56-1.92-2.09-1.92-3.39c0-1.3,0.86-1.9,1.92-1.34l3.33,1.78
			c1.05,0.56,1.92,2.09,1.92,3.39C154.39,107.13,153.53,107.73,152.48,107.17z"/>
		<g>
			<path class="st0" d="M150.45,107.21c3.59,7.22,7.19,14.43,10.78,21.65c0.85,1.71,4.01,1.71,4.86,0c2.79-5.6,5.58-11.2,8.36-16.8
				c1.51-3.03-3.34-5.68-4.86-2.63c-2.79,5.6-5.58,11.2-8.36,16.8c1.62,0,3.24,0,4.86,0c-3.59-7.22-7.19-14.43-10.78-21.65
				C153.8,101.53,148.94,104.18,150.45,107.21L150.45,107.21z"/>
		</g>
	</g>
	<path class="st14" d="M265.73,92.69c-0.68,9.63-1.98,19.32-1.39,28.95c0.48,7.87,0.62,9.24,15.68,16.12
		c1.83,0.84,3.89,1.36,5.95,1.43c2.07,0.07,2.87-1.1,4.02-2.63c1.03-1.37,0.24-6.93,0.2-8.57c-0.8-39.88,1.67-37.43,0.12-42.82
		c-1.65-5.73-7.46-6.91-14.66-8.67C268.91,74.85,266.18,86.31,265.73,92.69z"/>
	<g>
		<path class="st1" d="M280.18,60.44c-0.07-0.25-0.13-0.51-0.22-0.76c-0.04-0.1-0.08-0.15-0.11-0.17c-0.21-1.07-0.81-1.84-2.05-2.54
			c-1.82-1.04-4.06-1.63-6.23-1.22c-0.64-0.05-1.3,0.2-1.94,0.18c-0.98-0.03-1.75-0.67-2.73-0.7c-0.35-0.01-0.71,0.06-1.06,0.15
			c-0.97,0.26-1.98,0.76-2.29,1.54c-0.14,0.34-0.13,0.69-0.08,1.03c0.18,1.29,1.09,2.74,2.35,3.77c0.44,0.56,0.91,0.86,1.41,1.04
			c2.44,0.87,5.59-1.61,8.05,0.24c0.4,0.3,0.77,0.66,0.99,1.09c0.33,0.67,0.35,1.58,1.07,1.92c0.06,0.03,0.12,0.04,0.19,0.06
			c-0.08-0.19-0.15-0.39-0.2-0.61c-0.2-1,0.16-1.92,0.8-2.04c0.64-0.12,1.31,0.59,1.51,1.59c0.18,0.92-0.11,1.76-0.65,1.99
			c0.07,0.12,0.12,0.25,0.15,0.39c0.04,0.19,0.08,0.38,0.12,0.57c0.28-0.42,0.52-0.87,0.68-1.34c0.23-0.67,0.35-1.37,0.48-2.07
			c0.05-0.3,0.11-0.6,0.14-0.89c0.06-0.58,0.03-1.16-0.06-1.73C280.43,61.43,280.32,60.93,280.18,60.44z"/>
		<path class="st2" d="M278.99,67.01c0.54-0.23,0.83-1.07,0.65-1.99c-0.2-1-0.87-1.72-1.51-1.59c-0.64,0.12-0.99,1.04-0.8,2.04
			c0.04,0.22,0.11,0.42,0.2,0.61c-0.06-0.02-0.13-0.03-0.19-0.06c-0.72-0.35-0.74-1.25-1.07-1.92c-0.22-0.43-0.58-0.79-0.99-1.09
			c-2.46-1.84-5.62,0.63-8.05-0.24l0.96,4.88c0.59,3,3.48,4.98,6.66,4.76c0.34,1.56,0.67,3.13,1.01,4.69
			c-0.55,0.17-1.05,0.41-1.42,0.71c-1.15,0.94-0.75,2.13,0.89,2.64l2.07,0.64c1.65,0.51,3.93,0.15,5.09-0.79
			c1.15-0.94,0.75-2.13-0.89-2.64l-0.33-0.1c0.01-0.12,0-0.25-0.02-0.38c-0.66-3.07-1.32-6.15-1.99-9.22
			c-0.04-0.19-0.08-0.38-0.12-0.57C279.11,67.25,279.06,67.12,278.99,67.01z"/>
	</g>
	<path class="st33" d="M247.02,117.04c-1.14-0.98-3-0.98-4.13,0.01c-1.13,0.99-1.13,2.6,0.01,3.59l3.28,2.84
		c1.14,0.98,3,0.98,4.13-0.01c1.13-0.99,1.13-2.6-0.01-3.59L247.02,117.04z"/>
	<path class="st34" d="M235.34,121.49l14.36-6.28l24.38,13.7c0.86,0.48,0.89,1.71,0.05,2.23l-10.71,6.73L235.34,121.49z"/>
	<g>
		<path class="st2" d="M254.6,127.05c-3.65,1.28-1.07,5.92,2.57,4.64c15.35-5.37,27.72-16.29,31.73-29.37l-5.75-1.34
			C279.7,112.69,268.41,122.22,254.6,127.05z"/>
	</g>
	<path class="st5" d="M236.81,122.87l25.03,15.25c1.01,0.62,2.28-0.25,2.06-1.42l-2.75-14.95c-0.33-1.78-1.4-3.33-2.94-4.27
		l-23.86-14.54c-1.14-0.69-2.56,0.29-2.32,1.59l2.86,15.56C235.11,121.25,235.81,122.26,236.81,122.87z"/>
	<g>
		<path class="st5" d="M231.92,210.92c-0.67,0-1.34-0.18-1.94-0.54c-1.15-0.69-1.84-1.9-1.84-3.25V56.28c0-0.54-0.27-1.04-0.74-1.33
			c-0.46-0.29-1.03-0.32-1.52-0.08l-6.11,2.95l-0.39-0.81l6.11-2.95c0.77-0.37,1.66-0.32,2.39,0.13c0.72,0.45,1.16,1.24,1.16,2.09
			v150.86c0,1.02,0.53,1.95,1.4,2.48c0.88,0.52,1.94,0.55,2.85,0.06l10.96-5.9c2.51-1.35,4.03-3.96,3.97-6.81l-1.45-68.41l0.9-0.02
			l1.45,68.41c0.07,3.19-1.64,6.11-4.45,7.63l-10.96,5.9C233.14,210.77,232.53,210.92,231.92,210.92z"/>
	</g>
	<g>
		<path class="st5" d="M315.23,154.32h-0.9V70.49c0-3.59-1.97-6.87-5.14-8.56l-89.74-47.89l0.42-0.79l89.74,47.89
			c3.46,1.85,5.61,5.43,5.61,9.36V154.32z"/>
	</g>
</g>
<g>
	<g>
		<path class="st35" d="M87.81,214.23c-0.12,1.31-1.38,2.29-2.79,2.18l-4.08-0.32c-1.41-0.11-2.47-1.28-2.35-2.59
			c0.12-1.31,1.38-2.29,2.79-2.18l4.08,0.32C86.87,211.75,87.93,212.92,87.81,214.23z"/>
		<path class="st36" d="M55.86,154.95c1.41-0.13,2.68,0.83,2.83,2.14l0.41,3.78c0.14,1.31-0.9,2.49-2.31,2.62
			c-1.41,0.13-2.68-0.83-2.83-2.14l-0.41-3.78C53.41,156.26,54.45,155.08,55.86,154.95z"/>
		<g>
			<path class="st36" d="M94.79,176.87c-1.19,0.6-2.64-0.3-3.37-1.43c-0.52-0.8-0.83-1.72-1.25-2.58c0.25-0.38,0.4-0.93,0.4-1.55
				c0-1.16-0.55-2.1-1.22-2.1s-1.22,0.94-1.22,2.1c0,0.17,0.02,0.34,0.04,0.5c-0.11,0.07-0.24,0.13-0.38,0.13
				c-0.37,0-0.67-0.28-0.67-0.62v-1.6c-0.41-0.27-0.83-0.54-1.23-0.83c-0.83-0.58-1.72-1.59-2.25-2.72v5.13
				c0,3.45,2.84,6.28,6.48,6.59c-0.05,2.16-0.09,4.32-0.14,6.48c-0.04,2.01,5.2,2,5.25,0c0.06-2.65,0.12-5.29,0.17-7.94
				C95.18,176.62,94.99,176.77,94.79,176.87z"/>
			<path class="st37" d="M85.88,168.9c0.4,0.28,0.82,0.55,1.23,0.83v1.6c0,0.34,0.3,0.62,0.66,0.62c0.15,0,0.28-0.05,0.39-0.13
				c-0.02-0.16-0.04-0.33-0.04-0.5c0-1.16,0.55-2.1,1.22-2.1s1.22,0.94,1.22,2.1c0,0.62-0.16,1.17-0.4,1.55
				c0.42,0.86,0.74,1.78,1.25,2.58c0.73,1.13,2.17,2.03,3.37,1.43c0.19-0.1,0.39-0.25,0.59-0.43c2.25-2.04,4.68-9.06,2.07-13.5
				c-1.48-2.51-6.81-2.88-10.41-2.09c-0.53-0.28-0.97-0.72-1.57-0.87c-0.28-0.07-0.58-0.07-0.87-0.05c-0.82,0.06-1.7,0.33-2.07,0.95
				c-0.16,0.27-0.21,0.58-0.22,0.88c-0.05,0.96,0.3,2.11,0.91,3.12c0.08,0.44,0.22,0.88,0.42,1.3
				C84.17,167.3,85.06,168.32,85.88,168.9z"/>
		</g>
		<path class="st38" d="M73.82,300.1c1.55-0.83,4.28-0.72,6.07,0.23l2.36,1.26c1.79,0.96,1.98,2.42,0.44,3.25
			c-1.55,0.83-4.28,0.72-6.07-0.23l-2.36-1.26C72.47,302.39,72.27,300.93,73.82,300.1z"/>
		<path class="st38" d="M86.31,292.2c1.55-0.83,4.28-0.72,6.07,0.23l2.36,1.26c1.79,0.96,1.98,2.42,0.44,3.25s-4.28,0.72-6.07-0.23
			l-2.36-1.26C84.96,294.49,84.77,293.03,86.31,292.2z"/>
		<g>
			<path class="st0" d="M91.84,227.7c-1.99,12.54-4.55,24.99-4.08,37.71c0.32,8.84,0.6,17.69,0.9,26.53c0.17,5.09,8.72,5.11,8.55,0
				c-0.3-8.81-0.54-17.63-0.9-26.44c-0.5-12.06,1.88-23.82,3.77-35.7C100.87,224.82,92.64,222.66,91.84,227.7L91.84,227.7z"/>
		</g>
		<g>
			<path class="st0" d="M78.63,229.69c-1.13,11.76-2.99,23.64-3.31,35.44c-0.32,11.66,0.63,23.43,0.97,35.09
				c0.15,5.09,8.7,5.11,8.55,0c-0.35-11.65-1.32-23.43-0.97-35.09c0.35-11.8,2.18-23.68,3.31-35.44
				C87.66,224.61,79.11,224.64,78.63,229.69L78.63,229.69z"/>
		</g>
		<g>
			<path class="st39" d="M87.09,216.09c5.63-1.57,11.5-4.22,15.68-8.1c7.32-6.81,4.82-14.98-1.71-21.4
				c-2.36-2.32-6.23,1.1-3.87,3.42c6.12,6.02,6.29,11.91-1.14,16.72c-3.08,1.99-6.68,3.56-10.28,4.56
				C82.49,212.21,83.79,217.02,87.09,216.09L87.09,216.09z"/>
		</g>
		<path class="st8" d="M91.6,184.18c-8.49,2.37-11.69,7.7-11.69,7.7s0.31,10.25-0.55,19.4l-2,29.81c1.4,2.23,4.57,2.41,6.31,1.61
			c9.32-4.27,16.45-5.36,17.2-12.82c0.16-1.61,0-4.6-0.12-9.48c-0.05-1.88-0.01-3.86,0.19-5.83c0.06-0.63,0.14-1.49,0.21-2.49
			c0.34-4.31,0.8-11.29,1.12-14.12C104.28,180.17,94.35,183.41,91.6,184.18z"/>
		<path class="st8" d="M95.25,185.1l-3.88,1.22c-0.9,0.28-1.89-0.17-2.2-1.01c-0.31-0.84,0.18-1.76,1.09-2.04l3.88-1.22
			c0.9-0.28,1.89,0.17,2.2,1.01C96.65,183.9,96.16,184.82,95.25,185.1z"/>
	</g>
	<g>
		<path class="st8" d="M59.42,160.56c1.62,3.61,3.25,7.23,4.87,10.84c1.43,3.18,2.52,7.52,4.93,10.13c2.58,2.8,6.32,5,9.3,7.36
			c3.12,2.47,6.23,4.93,9.35,7.4c2.63,2.08-1.09,5.74-3.69,3.68c-6.12-4.84-13.16-9.31-18.69-14.8c-2.64-2.61-3.81-6.93-5.29-10.23
			c-1.76-3.92-3.52-7.84-5.28-11.76C53.55,160.16,58.05,157.51,59.42,160.56L59.42,160.56z"/>
	</g>
</g>
<g>
	<g>
		<path class="st40" d="M208.07,230.42l20.26-11.76c2-1.16,4.47-1.16,6.48-0.01l19.36,16.91l-16.22,11.61h-9.81l-20.13-12.39
			C206.38,233.77,206.41,231.38,208.07,230.42z"/>
		<g>
			<g>
				
					<linearGradient id="SVGID_00000066513998676746730150000007652219369633946786_" gradientUnits="userSpaceOnUse" x1="90.5198" y1="212.6004" x2="132.9464" y2="212.6004" gradientTransform="matrix(-1 0 0 1 350.5096 0)">
					<stop  offset="0.4092" style="stop-color:#B4CCFC"/>
					<stop  offset="0.4618" style="stop-color:#ADC7FB"/>
					<stop  offset="0.5371" style="stop-color:#9AB9F9"/>
					<stop  offset="0.6257" style="stop-color:#7CA1F5"/>
					<stop  offset="0.627" style="stop-color:#7BA1F5"/>
				</linearGradient>
				<path style="fill:url(#SVGID_00000066513998676746730150000007652219369633946786_);" d="M217.56,177.73h42.43v57.44
					c0,0.51-0.25,1.02-0.76,1.31l-17.82,10.29c-1.63,0.94-3.63,0.94-5.26,0l-17.76-10.25c-0.51-0.3-0.75-0.83-0.72-1.35h-0.11
					V177.73z"/>
				<path class="st15" d="M241.4,189.41l17.82-10.29c1.01-0.58,1.01-2.04,0-2.62l-17.91-10.34c-1.48-0.85-3.3-0.85-4.78,0
					l-18.14,10.47c-0.97,0.56-0.97,1.97,0,2.53l17.76,10.25C237.76,190.35,239.77,190.35,241.4,189.41z"/>
			</g>
			<g>
				<g>
					<path class="st0" d="M240.53,185.52l12.84-7.41c0.73-0.42,0.73-1.47,0-1.89l-12.91-7.46c-1.07-0.62-2.38-0.62-3.45,0
						l-13.07,7.55c-0.7,0.4-0.7,1.42,0,1.82l12.8,7.39C237.91,186.2,239.35,186.2,240.53,185.52z"/>
					
						<linearGradient id="SVGID_00000073711943529332476800000018053115896117282487_" gradientUnits="userSpaceOnUse" x1="125.4431" y1="172.9625" x2="93.8565" y2="172.9625" gradientTransform="matrix(-1 0 0 1 347.9934 0)">
						<stop  offset="0.4222" style="stop-color:#EAEAF9"/>
						<stop  offset="0.4493" style="stop-color:#E3E5F8"/>
						<stop  offset="0.4881" style="stop-color:#D0D5F4"/>
						<stop  offset="0.534" style="stop-color:#B1BDEE"/>
						<stop  offset="0.5848" style="stop-color:#879AE5"/>
						<stop  offset="0.6116" style="stop-color:#6D86E0"/>
					</linearGradient>
					<path style="fill:url(#SVGID_00000073711943529332476800000018053115896117282487_);" d="M253.38,177.21l-12.94-7.44
						c-1.07-0.61-2.39-0.61-3.46,0l-13.1,7.53c-0.17,0.1-0.29,0.23-0.38,0.38c-0.28-0.48-0.15-1.13,0.38-1.44l13.1-7.53
						c1.07-0.61,2.39-0.61,3.46,0l12.94,7.44c0.55,0.31,0.68,0.98,0.41,1.48C253.7,177.46,253.56,177.32,253.38,177.21z"/>
				</g>
			</g>
		</g>
	</g>
	<g>
		<g>
			<path class="st43" d="M243.42,233.03l10.62-6.13c0.82-0.47,1.32-1.34,1.32-2.28v-35.27l0.14-0.08c0.68-0.39,1.52,0.1,1.52,0.88
				v35.62c0,0.94-0.5,1.81-1.32,2.28l-10.62,6.13c-0.93,0.53-2.05,0.01-2.31-0.95C242.99,233.2,243.21,233.15,243.42,233.03z"/>
			<path class="st37" d="M242.72,198.53c0-1.17,0.62-2.24,1.63-2.83l11.01-6.35v35.27c0,0.94-0.5,1.81-1.32,2.28l-10.62,6.13
				c-0.21,0.12-0.43,0.17-0.65,0.19c-0.03-0.13-0.06-0.27-0.06-0.41V198.53z"/>
		</g>
		<path class="st9" d="M252.41,223.78c0.38-0.22,0.69-0.81,0.69-1.32V194.4c0-0.51-0.31-0.74-0.69-0.52
			c-0.38,0.22-0.69,0.81-0.69,1.32v28.06C251.72,223.76,252.03,223.99,252.41,223.78z"/>
		<path class="st15" d="M249.58,225.33c0.37-0.21,0.67-0.79,0.67-1.29v-18.43c0-0.49-0.3-0.72-0.67-0.51
			c-0.37,0.21-0.67,0.79-0.67,1.29v18.43C248.91,225.31,249.21,225.54,249.58,225.33z"/>
		<path class="st9" d="M246.68,199.36c0.37-0.21,0.67,0.02,0.67,0.51v7.5v10.93v7.5c0,0.49-0.3,1.07-0.67,1.29
			c-0.37,0.21-0.67-0.02-0.67-0.51v-7.5v-10.93v-7.5C246.01,200.16,246.31,199.58,246.68,199.36z"/>
	</g>
</g>
<g>
	<path class="st40" d="M237.67,252.25l-11.95-6.94c-1.18-0.69-2.64-0.69-3.82,0l-15.31,8.84l13.46,7.99h5.79l11.87-7.31
		C238.67,254.23,238.65,252.82,237.67,252.25z"/>
	<g>
		
			<linearGradient id="SVGID_00000078737024045051958420000017020698108383381410_" gradientUnits="userSpaceOnUse" x1="177.6735" y1="254.0812" x2="200.3286" y2="254.0812" gradientTransform="matrix(1 0 0 1 28.1772 0)">
			<stop  offset="0.4092" style="stop-color:#B4CCFC"/>
			<stop  offset="0.4618" style="stop-color:#ADC7FB"/>
			<stop  offset="0.5371" style="stop-color:#9AB9F9"/>
			<stop  offset="0.6257" style="stop-color:#7CA1F5"/>
			<stop  offset="0.627" style="stop-color:#7BA1F5"/>
		</linearGradient>
		<path style="fill:url(#SVGID_00000078737024045051958420000017020698108383381410_);" d="M234.32,245.96v7.46
			c0,0.36-0.18,0.73-0.54,0.94l-12.72,7.34c-1.16,0.67-2.59,0.67-3.76,0l-12.68-7.32c-0.37-0.21-0.54-0.59-0.52-0.96h-0.08v-7.46
			H234.32z"/>
		<path class="st15" d="M221.05,254.16l12.72-7.34c0.72-0.42,0.72-1.46,0-1.87l-12.79-7.38c-1.06-0.61-2.36-0.61-3.42,0l-12.95,7.48
			c-0.69,0.4-0.69,1.4,0,1.8l12.68,7.32C218.45,254.83,219.89,254.83,221.05,254.16z"/>
	</g>
	<path class="st45" d="M222.63,256.26c-0.24,0.14-0.45,0.52-0.45,0.85c0,0.33,0.2,0.48,0.45,0.34l8.2-4.74l0.01-1.19L222.63,256.26z
		"/>
	<path class="st45" d="M231.99,250.86l-1.15,0.67l-0.01,1.19l1.16-0.67c0.24-0.14,0.45-0.52,0.45-0.85
		C232.44,250.87,232.24,250.71,231.99,250.86z"/>
	<g>
		<g>
			
				<linearGradient id="SVGID_00000007422062936574044990000017963231660690324404_" gradientUnits="userSpaceOnUse" x1="177.6735" y1="244.3656" x2="200.3286" y2="244.3656" gradientTransform="matrix(1 0 0 1 28.1772 0)">
				<stop  offset="0.4092" style="stop-color:#B4CCFC"/>
				<stop  offset="0.4618" style="stop-color:#ADC7FB"/>
				<stop  offset="0.5371" style="stop-color:#9AB9F9"/>
				<stop  offset="0.6257" style="stop-color:#7CA1F5"/>
				<stop  offset="0.627" style="stop-color:#7BA1F5"/>
			</linearGradient>
			<path style="fill:url(#SVGID_00000007422062936574044990000017963231660690324404_);" d="M234.32,236.24v7.46
				c0,0.36-0.18,0.73-0.54,0.94l-12.72,7.34c-1.16,0.67-2.59,0.67-3.76,0l-12.68-7.32c-0.37-0.21-0.54-0.59-0.52-0.96h-0.08v-7.46
				H234.32z"/>
			<path class="st15" d="M221.05,244.44l12.72-7.34c0.72-0.42,0.72-1.46,0-1.87l-12.79-7.38c-1.06-0.61-2.36-0.61-3.42,0
				l-12.95,7.48c-0.69,0.4-0.69,1.4,0,1.8l12.68,7.32C218.45,245.12,219.89,245.12,221.05,244.44z"/>
		</g>
		<path class="st45" d="M222.63,246.55c-0.24,0.14-0.45,0.52-0.45,0.85s0.2,0.48,0.45,0.34l8.2-4.74l0.01-1.19L222.63,246.55z"/>
		<path class="st45" d="M231.99,241.14l-1.15,0.67l-0.01,1.19l1.16-0.67c0.24-0.14,0.45-0.52,0.45-0.85
			C232.44,241.15,232.24,241,231.99,241.14z"/>
	</g>
	<g>
		<g>
			
				<linearGradient id="SVGID_00000127039153153808517400000000766579904014086307_" gradientUnits="userSpaceOnUse" x1="177.6735" y1="234.6279" x2="200.3286" y2="234.6279" gradientTransform="matrix(1 0 0 1 28.1772 0)">
				<stop  offset="0.4092" style="stop-color:#B4CCFC"/>
				<stop  offset="0.4618" style="stop-color:#ADC7FB"/>
				<stop  offset="0.5371" style="stop-color:#9AB9F9"/>
				<stop  offset="0.6257" style="stop-color:#7CA1F5"/>
				<stop  offset="0.627" style="stop-color:#7BA1F5"/>
			</linearGradient>
			<path style="fill:url(#SVGID_00000127039153153808517400000000766579904014086307_);" d="M234.32,226.51v7.46
				c0,0.36-0.18,0.73-0.54,0.94l-12.72,7.34c-1.16,0.67-2.59,0.67-3.76,0l-12.68-7.32c-0.37-0.21-0.54-0.59-0.52-0.96h-0.08v-7.46
				H234.32z"/>
			<path class="st15" d="M221.05,234.71l12.72-7.34c0.72-0.42,0.72-1.46,0-1.87l-12.79-7.38c-1.06-0.61-2.36-0.61-3.42,0
				l-12.95,7.48c-0.69,0.4-0.69,1.4,0,1.8l12.68,7.32C218.45,235.38,219.89,235.38,221.05,234.71z"/>
		</g>
		<path class="st45" d="M222.63,236.81c-0.24,0.14-0.45,0.52-0.45,0.85c0,0.33,0.2,0.48,0.45,0.34l8.2-4.74l0.01-1.19L222.63,236.81
			z"/>
		<path class="st45" d="M231.99,231.4l-1.15,0.67l-0.01,1.19l1.16-0.67c0.24-0.14,0.45-0.52,0.45-0.85
			C232.44,231.41,232.24,231.26,231.99,231.4z"/>
	</g>
	<g>
		<g>
			
				<linearGradient id="SVGID_00000041973895903094938350000007265807230205822398_" gradientUnits="userSpaceOnUse" x1="177.6735" y1="224.8239" x2="200.3286" y2="224.8239" gradientTransform="matrix(1 0 0 1 28.1772 0)">
				<stop  offset="0.4092" style="stop-color:#B4CCFC"/>
				<stop  offset="0.4618" style="stop-color:#ADC7FB"/>
				<stop  offset="0.5371" style="stop-color:#9AB9F9"/>
				<stop  offset="0.6257" style="stop-color:#7CA1F5"/>
				<stop  offset="0.627" style="stop-color:#7BA1F5"/>
			</linearGradient>
			<path style="fill:url(#SVGID_00000041973895903094938350000007265807230205822398_);" d="M234.32,216.7v7.46
				c0,0.36-0.18,0.73-0.54,0.94l-12.72,7.34c-1.16,0.67-2.59,0.67-3.76,0l-12.68-7.32c-0.37-0.21-0.54-0.59-0.52-0.96h-0.08v-7.46
				H234.32z"/>
			<path class="st5" d="M221.05,224.9l12.72-7.34c0.72-0.42,0.72-1.46,0-1.87l-12.79-7.38c-1.06-0.61-2.36-0.61-3.42,0l-12.95,7.48
				c-0.69,0.4-0.69,1.4,0,1.8l12.68,7.32C218.45,225.57,219.89,225.57,221.05,224.9z"/>
		</g>
		<path class="st45" d="M222.63,227.01c-0.24,0.14-0.45,0.52-0.45,0.85c0,0.33,0.2,0.48,0.45,0.34l8.2-4.74l0.01-1.19L222.63,227.01
			z"/>
		<path class="st45" d="M231.99,221.6l-1.15,0.67l-0.01,1.19l1.16-0.67c0.24-0.14,0.45-0.52,0.45-0.85
			C232.44,221.61,232.24,221.46,231.99,221.6z"/>
	</g>
	<g>
		<path class="st45" d="M216.68,228.06c0,0.33,0.23,0.72,0.51,0.89c0.28,0.16,0.51,0.03,0.51-0.29c0-0.33-0.23-0.72-0.51-0.89
			C216.92,227.6,216.68,227.73,216.68,228.06z"/>
		<path class="st45" d="M214.87,227.01c0,0.33,0.23,0.72,0.51,0.89c0.28,0.16,0.51,0.03,0.51-0.29c0-0.33-0.23-0.72-0.51-0.89
			C215.1,226.56,214.87,226.69,214.87,227.01z"/>
		<path class="st45" d="M213.06,225.97c0,0.33,0.23,0.72,0.51,0.89c0.28,0.16,0.51,0.03,0.51-0.29c0-0.33-0.23-0.72-0.51-0.89
			C213.29,225.51,213.06,225.64,213.06,225.97z"/>
		<path class="st45" d="M211.25,224.92c0,0.33,0.23,0.72,0.51,0.89c0.28,0.16,0.51,0.03,0.51-0.29c0-0.33-0.23-0.72-0.51-0.89
			C211.48,224.46,211.25,224.6,211.25,224.92z"/>
		<path class="st9" d="M209.44,223.88c0,0.33,0.23,0.72,0.51,0.89c0.28,0.16,0.51,0.03,0.51-0.29c0-0.33-0.23-0.72-0.51-0.89
			C209.67,223.42,209.44,223.55,209.44,223.88z"/>
		<path class="st9" d="M207.63,222.83c0,0.33,0.23,0.72,0.51,0.89c0.28,0.16,0.51,0.03,0.51-0.29c0-0.33-0.23-0.72-0.51-0.89
			C207.86,222.37,207.63,222.5,207.63,222.83z"/>
		<path class="st9" d="M205.81,221.78c0,0.33,0.23,0.72,0.51,0.89c0.28,0.16,0.51,0.03,0.51-0.29c0-0.33-0.23-0.72-0.51-0.89
			C206.04,221.33,205.81,221.46,205.81,221.78z"/>
	</g>
	<g>
		<path class="st45" d="M216.95,238.22c0,0.33,0.23,0.72,0.51,0.89c0.28,0.16,0.51,0.03,0.51-0.29s-0.23-0.72-0.51-0.89
			C217.18,237.76,216.95,237.89,216.95,238.22z"/>
		<path class="st8" d="M215.14,237.17c0,0.33,0.23,0.72,0.51,0.89c0.28,0.16,0.51,0.03,0.51-0.29s-0.23-0.72-0.51-0.89
			C215.37,236.71,215.14,236.85,215.14,237.17z"/>
		<path class="st8" d="M213.33,236.13c0,0.33,0.23,0.72,0.51,0.89c0.28,0.16,0.51,0.03,0.51-0.29s-0.23-0.72-0.51-0.89
			C213.56,235.67,213.33,235.8,213.33,236.13z"/>
		<path class="st8" d="M211.51,235.08c0,0.33,0.23,0.72,0.51,0.89c0.28,0.16,0.51,0.03,0.51-0.29c0-0.33-0.23-0.72-0.51-0.89
			C211.74,234.62,211.51,234.75,211.51,235.08z"/>
		<path class="st8" d="M209.7,234.03c0,0.33,0.23,0.72,0.51,0.89c0.28,0.16,0.51,0.03,0.51-0.29s-0.23-0.72-0.51-0.89
			C209.93,233.58,209.7,233.71,209.7,234.03z"/>
		<path class="st8" d="M207.89,232.99c0,0.33,0.23,0.72,0.51,0.89c0.28,0.16,0.51,0.03,0.51-0.29s-0.23-0.72-0.51-0.89
			C208.12,232.53,207.89,232.66,207.89,232.99z"/>
		<path class="st45" d="M206.08,231.94c0,0.33,0.23,0.72,0.51,0.89c0.28,0.16,0.51,0.03,0.51-0.29c0-0.33-0.23-0.72-0.51-0.89
			C206.31,231.48,206.08,231.62,206.08,231.94z"/>
	</g>
	<g>
		<path class="st9" d="M216.55,248.01c0,0.33,0.23,0.72,0.51,0.89c0.28,0.16,0.51,0.03,0.51-0.29s-0.23-0.72-0.51-0.89
			C216.78,247.55,216.55,247.68,216.55,248.01z"/>
		<path class="st45" d="M214.74,246.96c0,0.33,0.23,0.72,0.51,0.89c0.28,0.16,0.51,0.03,0.51-0.29c0-0.33-0.23-0.72-0.51-0.89
			C214.97,246.5,214.74,246.63,214.74,246.96z"/>
		<path class="st45" d="M212.93,245.91c0,0.33,0.23,0.72,0.51,0.89c0.28,0.16,0.51,0.03,0.51-0.29s-0.23-0.72-0.51-0.89
			C213.16,245.46,212.93,245.59,212.93,245.91z"/>
		<path class="st9" d="M211.12,244.87c0,0.33,0.23,0.72,0.51,0.89c0.28,0.16,0.51,0.03,0.51-0.29s-0.23-0.72-0.51-0.89
			C211.35,244.41,211.12,244.54,211.12,244.87z"/>
		<path class="st9" d="M209.3,243.82c0,0.33,0.23,0.72,0.51,0.89c0.28,0.16,0.51,0.03,0.51-0.29c0-0.33-0.23-0.72-0.51-0.89
			C209.54,243.36,209.3,243.49,209.3,243.82z"/>
		<path class="st9" d="M207.49,242.77c0,0.33,0.23,0.72,0.51,0.89c0.28,0.16,0.51,0.03,0.51-0.29s-0.23-0.72-0.51-0.89
			C207.72,242.32,207.49,242.45,207.49,242.77z"/>
		<path class="st9" d="M205.68,241.73c0,0.33,0.23,0.72,0.51,0.89c0.28,0.16,0.51,0.03,0.51-0.29s-0.23-0.72-0.51-0.89
			C205.91,241.27,205.68,241.4,205.68,241.73z"/>
	</g>
	<g>
		<path class="st45" d="M216.42,257.15c0,0.33,0.23,0.72,0.51,0.89c0.28,0.16,0.51,0.03,0.51-0.29c0-0.33-0.23-0.72-0.51-0.89
			C216.65,256.69,216.42,256.82,216.42,257.15z"/>
		<path class="st45" d="M214.61,256.1c0,0.33,0.23,0.72,0.51,0.89c0.28,0.16,0.51,0.03,0.51-0.29c0-0.33-0.23-0.72-0.51-0.89
			C214.84,255.64,214.61,255.77,214.61,256.1z"/>
		<path class="st8" d="M212.8,255.05c0,0.33,0.23,0.72,0.51,0.89c0.28,0.16,0.51,0.03,0.51-0.29c0-0.33-0.23-0.72-0.51-0.89
			C213.03,254.6,212.8,254.73,212.8,255.05z"/>
		<path class="st8" d="M210.98,254.01c0,0.33,0.23,0.72,0.51,0.89c0.28,0.16,0.51,0.03,0.51-0.29c0-0.33-0.23-0.72-0.51-0.89
			C211.21,253.55,210.98,253.68,210.98,254.01z"/>
		<path class="st8" d="M209.17,252.96c0,0.33,0.23,0.72,0.51,0.89c0.28,0.16,0.51,0.03,0.51-0.29c0-0.33-0.23-0.72-0.51-0.89
			C209.4,252.5,209.17,252.64,209.17,252.96z"/>
		<path class="st45" d="M207.36,251.92c0,0.33,0.23,0.72,0.51,0.89c0.28,0.16,0.51,0.03,0.51-0.29c0-0.33-0.23-0.72-0.51-0.89
			C207.59,251.46,207.36,251.59,207.36,251.92z"/>
		<path class="st45" d="M205.55,250.87c0,0.33,0.23,0.72,0.51,0.89c0.28,0.16,0.51,0.03,0.51-0.29c0-0.33-0.23-0.72-0.51-0.89
			C205.78,250.41,205.55,250.54,205.55,250.87z"/>
	</g>
</g>
</svg>
