<?xml version="1.0" encoding="utf-8"?>
<!-- Generator: Adobe Illustrator 26.4.1, SVG Export Plug-In . SVG Version: 6.00 Build 0)  -->
<svg version="1.1" id="Layer_1" xmlns="http://www.w3.org/2000/svg" xmlns:xlink="http://www.w3.org/1999/xlink" x="0px" y="0px"
	 viewBox="0 0 376.09 402.35" style="enable-background:new 0 0 376.09 402.35;" xml:space="preserve">
<style type="text/css">
	.st0{fill:#C4D7F2;}
	.st1{fill:#FFFFFF;}
	.st2{fill:#E4B8F0;}
	.st3{fill:#91BEFF;}
	.st4{fill:#FF55A2;}
	.st5{fill:#3A3990;}
	.st6{opacity:0.2;}
	.st7{fill:#B288FD;}
	.st8{fill:#E5D4EC;}
	.st9{fill:#295191;}
	.st10{fill:#000D24;}
	.st11{fill:#B1CAE8;}
	.st12{opacity:0.09;fill:#C4D7F2;}
	.st13{fill:#284CF9;}
	.st14{fill:#000027;}
	.st15{fill:#600153;}
	.st16{opacity:0;fill:#B288FD;}
	.st17{fill:#FFFBFF;}
	.st18{fill:#CBC7EC;}
	.st19{opacity:0.21;fill:#B288FD;}
	.st20{fill:#FFA2A5;}
	.st21{fill:#5E4949;}
	.st22{fill:#27317A;}
	.st23{fill:#5074F9;}
	.st24{fill:#3E477E;}
	.st25{fill:#1E44D1;}
	.st26{opacity:0.43;fill:#6878D4;}
	.st27{fill:url(#SVGID_1_);}
	.st28{fill:url(#SVGID_00000121965181188453212260000006270021728059443599_);}
	.st29{fill:#36399F;}
	.st30{fill:url(#SVGID_00000163070136823192393820000004519855497137905025_);}
	.st31{fill:#212D60;}
	.st32{fill:url(#SVGID_00000052787606158813055820000018025344737336825236_);}
	.st33{fill:url(#SVGID_00000012464855579242533300000017474060185621738651_);}
	.st34{fill:url(#SVGID_00000020390973817370831910000016114415253901498012_);}
	.st35{fill:#FCD2C8;}
	.st36{fill:#467DE4;}
	.st37{fill:#232F6D;}
	.st38{fill:#1D0765;}
	.st39{fill:#F4247E;}
</style>
<g>
	<path class="st0" d="M114.75,35.53c-4.07-2.35-9.17,0.59-9.17,5.29v154.62c0,2.18,1.16,4.2,3.06,5.29l162.66,93.85
		c0,0,23.89,13.78,23.89,13.78c4.07,2.35,9.17-0.59,9.17-5.29V154.43c0-5.88-3.14-11.32-8.24-14.26L114.75,35.53z"/>
	<g>
		<path class="st1" d="M112.57,37.58c-4.05-2.33-9.12,0.59-9.12,5.25v153.38c0,2.16,1.16,4.16,3.04,5.25l161.9,93.1
			c0,0,23.78,13.67,23.78,13.67c4.05,2.33,9.12-0.58,9.12-5.25V155.53c0-5.83-3.12-11.22-8.2-14.14L112.57,37.58z"/>
		<g>
			<path class="st2" d="M295.21,309.17c-1.07,0-2.13-0.28-3.1-0.84L106.43,201.57c-1.91-1.1-3.1-3.15-3.1-5.35V42.83
				c0-2.23,1.15-4.23,3.09-5.35c1.88-1.09,4.12-1.13,6.03-0.11c0,0,0.19,0.1,0.19,0.1l180.52,103.81c5.1,2.93,8.26,8.39,8.26,14.25
				v147.45c0,2.23-1.16,4.23-3.09,5.35C297.35,308.89,296.28,309.17,295.21,309.17z M268.27,294.34l0.19,0.1l23.78,13.67
				c1.87,1.08,4.1,1.07,5.97-0.01c1.86-1.07,2.96-2.99,2.96-5.13V155.53c0-5.77-3.12-11.15-8.14-14.03L112.7,37.8
				c0,0-0.19-0.11-0.19-0.11c-1.87-1.08-4.1-1.07-5.97,0.01c-1.86,1.07-2.96,2.99-2.96,5.13v153.38c0,2.11,1.14,4.08,2.98,5.14
				L268.27,294.34z"/>
		</g>
	</g>
	<g>
		<path class="st0" d="M114.82,61.32c-0.01,0-0.01,3.75-0.01,3.75c-0.01,0-0.01,3.75-0.01,3.75c-0.01,0-0.01,3.75-0.01,3.75
			c-0.01,0-0.01,3.75-0.01,3.75c-0.01,0-0.01,3.75-0.01,3.75c-0.01,0-0.01,3.75-0.01,3.75c-0.01,0-0.01,3.75-0.01,3.75
			c-0.01,0-0.01,14.18-0.01,14.18c0.06,0.03,0.76,0.44,0.76,0.44V57.98l-0.71-0.41V61.32z"/>
		<polygon class="st0" points="130.47,110.75 131.17,111.16 131.17,105.64 131.17,66.98 130.47,66.57 		"/>
		<polygon class="st0" points="146.12,119.75 146.82,120.16 146.82,109.11 146.82,75.98 146.12,75.57 		"/>
		<polygon class="st0" points="161.77,128.75 162.47,129.16 162.47,112.59 162.47,84.98 161.77,84.57 		"/>
		<polygon class="st0" points="177.42,137.75 178.12,138.16 178.12,116.07 178.12,93.98 177.42,93.57 		"/>
		<polygon class="st0" points="193.06,146.75 193.77,147.16 193.77,119.54 193.77,102.98 193.06,102.57 		"/>
		<polygon class="st0" points="208.71,155.75 209.42,156.15 209.42,123.02 209.42,111.97 208.71,111.57 		"/>
		<polygon class="st0" points="224.36,120.57 224.36,164.75 225.07,165.15 225.07,126.5 225.07,120.97 		"/>
	</g>
	<path class="st3" d="M225.44,139.74l-12.67,8.91l0.13-0.14c-0.71,1.21-2.2,1.52-3.77,0.79c-1.57-0.69-3.23-2.4-4.21-4.38
		c-1.6-3.39-3.05-6.56-4.58-9.85l-4.54-9.79c-0.39-0.82-0.75-1.67-1.11-2.3c-0.38-0.67-0.85-1.31-1.35-1.85
		c-1.01-1.1-2.21-1.83-3.25-1.98l-7.09-0.6c-1.18-0.04-2.61-0.41-3.98-1.23c-1.39-0.81-2.77-1.98-4-3.43
		c-0.61-0.72-1.19-1.51-1.7-2.31l-1.46-2.29l-2.93-4.58l-2.93-4.58l-1.45-2.27c-0.43-0.65-0.96-1.19-1.52-1.57
		c-0.55-0.37-1.12-0.55-1.61-0.52c-0.51,0.04-0.83,0.28-1.21,0.71l-2.26,2.3l-4.52,4.59l-4.52,4.59c-0.68,0.87-1.82,1.34-3.13,0.97
		c-0.65-0.16-1.35-0.51-2.02-0.99c-0.69-0.5-1.29-1.11-1.91-1.66l-7.43-6.75c-2.46-2.13-5.19-3.02-7.19-2.34l-12.21,3.89l12.07-4.18
		c2.02-0.75,4.84,0.11,7.41,2.29l7.48,6.66c0.63,0.55,1.24,1.15,1.84,1.58c0.61,0.42,1.23,0.73,1.82,0.86
		c1.2,0.29,2.15-0.1,2.81-0.97l4.43-4.72l4.43-4.72l2.21-2.36c0.32-0.4,0.84-0.85,1.47-0.88c0.64-0.06,1.38,0.18,2.12,0.65
		c0.73,0.48,1.46,1.2,2.04,2.06l1.5,2.3l2.96,4.56l2.97,4.56l1.48,2.28c0.47,0.72,0.96,1.38,1.5,2c1.07,1.24,2.27,2.23,3.46,2.91
		c1.22,0.69,2.33,0.97,3.48,0.99l7.11,0.46c1.37,0.17,2.95,1.12,4.3,2.55c0.68,0.71,1.31,1.55,1.83,2.45
		c0.55,0.95,0.88,1.76,1.27,2.56l4.63,9.77l4.61,9.69c0.65,1.27,1.68,2.31,2.68,2.74c1.01,0.44,1.89,0.23,2.33-0.54l0.05-0.08
		l0.08-0.06l12.49-9.19c0.38-0.28,1.03,0.05,1.46,0.73C225.78,138.68,225.83,139.45,225.44,139.74
		C225.45,139.73,225.45,139.74,225.44,139.74z"/>
	<path class="st0" d="M290.43,173.31c-0.06-13.99-9.97-30.97-22.19-38c-0.05-0.03-0.1-0.05-0.15-0.08
		c-12.15-6.9-21.98-1.3-22.04,12.56c0,0.04,0,0.09,0,0.13c0,7.01,2.49,14.79,6.51,21.7c4.01,6.87,9.53,12.88,15.64,16.41
		c0.02,0.01,0.03,0.02,0.05,0.03c12.26,7.05,22.2,1.41,22.2-12.6C290.43,173.4,290.43,173.36,290.43,173.31z M268.23,170.06
		c-2.33-1.34-4.45-3.6-6.03-6.2c-1.6-2.63-2.63-5.61-2.75-8.35c-0.01-0.19-0.02-0.38-0.02-0.57c0-5.51,3.88-7.75,8.68-5.06
		c0.04,0.02,0.08,0.04,0.12,0.06c4.86,2.8,8.8,9.57,8.8,15.12C277.04,170.61,273.09,172.85,268.23,170.06z"/>
	<g>
		<path class="st3" d="M57.45,52.03c4.08,2.35,7.41,0.46,7.41-4.21s-3.32-10.38-7.41-12.73c-0.03-0.02-0.06-0.03-0.09-0.04v-4.05
			c0.03,0.02,0.06,0.03,0.09,0.05c6.04,3.47,10.95,11.91,10.95,18.81c0,6.9-4.91,9.69-10.95,6.22c-0.03-0.02-0.06-0.04-0.09-0.05
			v-4.05C57.39,52,57.42,52.02,57.45,52.03z"/>
		<g>
			<path class="st4" d="M57.51,31.09v4.05c-4.02-2.26-7.28-0.4-7.32,4.17l-3.54-1.99C46.67,30.48,51.52,27.7,57.51,31.09z"/>
		</g>
		<path class="st5" d="M50.18,39.31c0,0.03,0,0.05,0,0.08c0,4.64,3.28,10.29,7.32,12.67v4.05c-6-3.5-10.86-11.89-10.86-18.76
			C46.64,37.32,50.18,39.31,50.18,39.31z"/>
	</g>
	<g>
		<g>
			<path class="st5" d="M222.27,70.75c3.27,1.88,5.94,0.37,5.94-3.37c0-3.74-2.66-8.32-5.94-10.2c-0.02-0.01-0.05-0.02-0.07-0.04
				V53.9c0.02,0.01,0.05,0.02,0.07,0.04c4.84,2.78,8.78,9.55,8.78,15.08c0,5.53-3.94,7.77-8.78,4.98c-0.02-0.01-0.05-0.03-0.07-0.04
				v-3.25C222.23,70.72,222.25,70.74,222.27,70.75z"/>
			<g>
				<path class="st4" d="M222.32,53.97v3.25c-3.22-1.81-5.84-0.32-5.87,3.35l-2.84-1.6C213.63,53.48,217.52,51.25,222.32,53.97z"/>
			</g>
			<path class="st5" d="M216.45,60.55c0,0.02,0,0.04,0,0.06c0,3.72,2.63,8.25,5.87,10.16v3.25c-4.81-2.81-8.71-9.53-8.71-15.04
				C213.61,58.96,216.45,60.55,216.45,60.55z"/>
		</g>
		<g class="st6">
			<polygon class="st7" points="224.31,62.01 222.5,60.95 222.5,61.27 224.31,62.33 			"/>
			<polygon class="st7" points="224.31,62.64 222.5,61.58 222.5,61.91 224.3,62.96 			"/>
			<polygon class="st7" points="224.3,63.91 221.56,62.3 221.56,62.63 224.29,64.23 			"/>
			<polygon class="st7" points="221.55,63.47 221.55,63.79 223.69,65.05 223.69,64.72 			"/>
			<polygon class="st7" points="221.57,60.41 221.57,60.73 222.22,61.11 222.22,60.78 			"/>
			<polygon class="st7" points="221.57,61.04 221.57,61.36 222.21,61.74 222.21,61.42 			"/>
			<polygon class="st7" points="221.53,65.5 221.53,65.83 222.45,66.36 222.46,66.04 			"/>
			<polygon class="st7" points="221.53,66.13 221.53,66.46 222.45,67 222.45,66.67 			"/>
		</g>
	</g>
	<g>
		<g>
			<path class="st3" d="M334.91,223.71c2.42,1.39,4.38,0.27,4.38-2.49c0-2.76-1.97-6.14-4.38-7.53c-0.02-0.01-0.03-0.02-0.05-0.03
				v-2.39c0.02,0.01,0.03,0.02,0.05,0.03c3.57,2.05,6.48,7.04,6.48,11.13c0,4.08-2.91,5.73-6.48,3.68
				c-0.02-0.01-0.03-0.02-0.05-0.03v-2.39C334.88,223.69,334.9,223.7,334.91,223.71z"/>
			<path class="st8" d="M334.95,211.32v2.39c-2.38-1.34-4.31-0.24-4.33,2.47l-2.1-1.18C328.54,210.96,331.41,209.32,334.95,211.32z"
				/>
			<path class="st3" d="M330.62,216.18c0,2.79,1.94,6.13,4.33,7.54v2.39c-3.55-2.07-6.43-7.03-6.43-11.1
				C328.52,215.01,330.62,216.18,330.62,216.18z"/>
		</g>
		<g class="st6">
			<polygon class="st7" points="336.42,217.26 335.09,216.47 335.08,216.71 336.42,217.5 			"/>
			<polygon class="st7" points="336.42,217.72 335.08,216.94 335.08,217.18 336.41,217.96 			"/>
			<polygon class="st7" points="336.41,218.66 334.39,217.48 334.39,217.71 336.41,218.9 			"/>
			<polygon class="st7" points="334.38,218.33 334.38,218.57 335.96,219.5 335.96,219.26 			"/>
			<polygon class="st7" points="334.4,216.07 334.4,216.31 334.87,216.59 334.88,216.35 			"/>
			<polygon class="st7" points="334.4,216.54 334.39,216.78 334.87,217.06 334.87,216.82 			"/>
			<polygon class="st7" points="334.37,219.83 334.37,220.07 335.05,220.47 335.05,220.23 			"/>
			<polygon class="st7" points="334.37,220.3 334.37,220.54 335.05,220.94 335.05,220.7 			"/>
		</g>
	</g>
	<g>
		<g>
			<path class="st3" d="M306.74,89.7c5.48,3.15,9.94,0.62,9.94-5.64c0-6.26-4.46-13.92-9.94-17.07c-0.04-0.02-0.08-0.04-0.12-0.06
				V61.5c0.04,0.02,0.08,0.04,0.12,0.06c8.1,4.66,14.68,15.97,14.68,25.22s-6.59,12.99-14.68,8.34c-0.04-0.02-0.08-0.05-0.12-0.07
				v-5.43C306.66,89.65,306.7,89.67,306.74,89.7z"/>
			<path class="st5" d="M306.82,61.62v5.43c-5.39-3.03-9.76-0.54-9.81,5.6l-4.75-2.67C292.28,60.8,298.8,57.07,306.82,61.62z"/>
			<path class="st3" d="M296.99,72.63c0,0.04,0,0.07,0,0.1c0,6.22,4.39,13.8,9.82,16.99v5.43c-8.04-4.7-14.57-15.94-14.57-25.15
				C292.24,69.96,296.99,72.63,296.99,72.63z"/>
		</g>
		<g>
			<polygon class="st8" points="310.15,75.06 307.12,73.29 307.12,73.83 310.15,75.6 			"/>
			<polygon class="st8" points="310.14,76.12 307.12,74.35 307.11,74.89 310.14,76.66 			"/>
			<polygon class="st8" points="310.13,78.24 305.55,75.56 305.54,76.1 310.12,78.78 			"/>
			<polygon class="st8" points="305.53,77.51 305.53,78.05 309.11,80.15 309.11,79.6 			"/>
			<polygon class="st8" points="305.57,72.38 305.57,72.93 306.64,73.56 306.65,73.01 			"/>
			<polygon class="st8" points="305.56,73.44 305.56,73.98 306.63,74.61 306.64,74.07 			"/>
			<polygon class="st8" points="305.5,80.91 305.5,81.45 307.04,82.35 307.05,81.81 			"/>
			<polygon class="st8" points="305.5,81.97 305.49,82.51 307.03,83.41 307.04,82.87 			"/>
		</g>
	</g>
	<g>
		<path class="st8" d="M312.64,157.83c0,1.3-0.92,1.83-2.06,1.17c-1.14-0.66-2.06-2.24-2.06-3.55s0.92-1.83,2.06-1.17
			C311.72,154.94,312.64,156.52,312.64,157.83z"/>
		<g>
			<path class="st4" d="M312.64,170.17c0,1.3-0.92,1.83-2.06,1.17c-1.14-0.66-2.06-2.24-2.06-3.55c0-1.3,0.92-1.83,2.06-1.17
				C311.72,167.28,312.64,168.87,312.64,170.17z"/>
		</g>
		<path class="st3" d="M312.64,182.52c0,1.3-0.92,1.83-2.06,1.17c-1.14-0.66-2.06-2.24-2.06-3.55c0-1.3,0.92-1.83,2.06-1.17
			C311.72,179.63,312.64,181.22,312.64,182.52z"/>
		<g>
			<path class="st9" d="M312.64,194.87c0,1.3-0.92,1.83-2.06,1.17c-1.14-0.66-2.06-2.24-2.06-3.55c0-1.3,0.92-1.83,2.06-1.17
				C311.72,191.97,312.64,193.56,312.64,194.87z"/>
		</g>
		<g>
			<path class="st10" d="M312.64,207.21c0,1.3-0.92,1.83-2.06,1.17c-1.14-0.66-2.06-2.24-2.06-3.55c0-1.3,0.92-1.83,2.06-1.17
				C311.72,204.32,312.64,205.91,312.64,207.21z"/>
		</g>
	</g>
	<g>
		<path class="st11" d="M295.51,309.51c-1.11,0-2.22-0.29-3.23-0.87L106.6,201.87c-1.99-1.14-3.23-3.28-3.23-5.57V42.92
			c0-2.32,1.21-4.41,3.23-5.57c1.84-1.06,4-1.15,5.89-0.29c0-0.03,0.56,0.29,0.56,0.29l180.52,103.81
			c5.17,2.98,8.39,8.52,8.39,14.46v147.45c0,2.32-1.21,4.41-3.23,5.57C297.72,309.22,296.62,309.51,295.51,309.51z M268.31,294
			l0.56,0.32L292.65,308c1.79,1.03,3.92,1.03,5.71,0c1.79-1.03,2.85-2.87,2.85-4.92V155.62c0-5.68-3.07-10.98-8.01-13.82
			L113.24,38.32c0,0-0.56-0.32-0.56-0.32c-1.79-1.03-3.92-1.03-5.71,0c-1.79,1.03-2.85,2.87-2.85,4.92v153.38
			c0,2.02,1.09,3.91,2.85,4.92L268.31,294z"/>
	</g>
	<g>
		<g>
			<path class="st12" d="M288.24,209.84l-75.19-43.24c-1.51-0.87-3.4,0.22-3.4,1.96v76.13c0,2.76,1.48,5.31,3.88,6.69l74.27,42.71
				c2.28,1.31,5.14-0.33,5.14-2.95v-73.19C292.94,214.6,291.14,211.51,288.24,209.84z"/>
			<path class="st0" d="M289.51,294.68c-0.61,0-1.22-0.16-1.77-0.48l-74.27-42.71c-2.43-1.4-3.94-4-3.94-6.8v-76.13
				c0-0.86,0.45-1.63,1.2-2.06c0.75-0.43,1.64-0.43,2.39,0l75.19,43.24c2.94,1.69,4.76,4.84,4.76,8.22v73.19
				c0,1.28-0.66,2.42-1.77,3.06C290.73,294.52,290.12,294.68,289.51,294.68z M211.91,166.42c-0.37,0-0.74,0.1-1.07,0.29
				c-0.67,0.39-1.07,1.08-1.07,1.85v76.13c0,2.71,1.46,5.23,3.82,6.58l74.27,42.71c1.03,0.6,2.27,0.59,3.3,0
				c1.03-0.59,1.65-1.66,1.65-2.85v-73.19c0-3.29-1.78-6.36-4.64-8l-75.19-43.24C212.65,166.52,212.28,166.42,211.91,166.42z"/>
		</g>
		<g>
			<polygon class="st3" points="243.06,261.94 246.54,263.93 246.54,226.95 243.06,224.95 			"/>
			<polygon class="st5" points="238.23,259.16 241.7,261.15 241.7,237.44 238.23,235.45 			"/>
			<g>
				<polygon class="st4" points="233.39,256.38 236.87,258.37 236.87,228.72 233.39,226.72 				"/>
			</g>
			<polygon class="st5" points="228.56,253.6 232.03,255.59 232.03,235.98 228.56,233.98 			"/>
			<g>
				<polygon class="st13" points="223.72,250.82 227.2,252.81 227.2,218.6 223.72,216.6 				"/>
			</g>
			<polygon class="st14" points="218.89,248.03 222.36,250.03 222.36,236.49 218.89,234.49 			"/>
			<polygon class="st3" points="214.05,245.25 217.53,247.25 217.53,222.02 214.05,220.02 			"/>
		</g>
		<g>
			<g>
				<g>
					<polygon class="st5" points="262.1,263.95 262.03,270.06 256.64,266.88 256.71,260.76 					"/>
					<polygon class="st15" points="262.25,251.58 262.17,257.7 256.78,254.52 256.86,248.4 					"/>
					<polygon class="st3" points="262.39,239.22 262.32,245.34 256.93,242.16 257,236.04 					"/>
					<polygon class="st8" points="262.54,226.86 262.46,232.98 257.07,229.79 257.15,223.67 					"/>
					<polygon class="st5" points="262.68,214.49 262.61,220.61 257.22,217.43 257.29,211.31 					"/>
				</g>
			</g>
			<g>
				<g>
					<polygon class="st3" points="270.37,268.83 270.3,274.95 264.91,271.76 264.98,265.64 					"/>
					<polygon class="st5" points="270.52,256.46 270.44,262.58 265.05,259.4 265.13,253.28 					"/>
					<polygon class="st8" points="270.66,244.1 270.59,250.22 265.2,247.04 265.27,240.92 					"/>
					<polygon class="st5" points="270.81,231.74 270.73,237.86 265.34,234.67 265.42,228.56 					"/>
					<polygon class="st13" points="270.95,219.38 270.88,225.49 265.49,222.31 265.56,216.19 					"/>
					<polygon class="st16" points="271.1,207.01 271.03,213.13 265.64,209.95 265.71,203.83 					"/>
				</g>
			</g>
			<g>
				<g>
					<polygon class="st13" points="278.79,273.8 278.71,279.91 273.32,276.73 273.4,270.61 					"/>
					<polygon class="st13" points="278.93,261.43 278.86,267.55 273.47,264.37 273.54,258.25 					"/>
					<polygon class="st3" points="279.08,249.07 279.01,255.19 273.62,252.01 273.69,245.89 					"/>
					<g>
						<polygon class="st4" points="279.22,236.71 279.15,242.83 273.76,239.64 273.83,233.53 						"/>
					</g>
					<polygon class="st3" points="279.37,224.34 279.3,230.46 273.91,227.28 273.98,221.16 					"/>
					<polygon class="st16" points="279.52,211.98 279.44,218.1 274.05,214.92 274.13,208.8 					"/>
				</g>
			</g>
			<g>
				<g>
					<polygon class="st8" points="286.61,278.42 286.54,284.53 281.15,281.35 281.22,275.23 					"/>
					<polygon class="st5" points="286.76,266.05 286.69,272.17 281.3,268.99 281.37,262.87 					"/>
					<polygon class="st15" points="286.9,253.69 286.83,259.81 281.44,256.63 281.51,250.51 					"/>
					<polygon class="st15" points="287.05,241.33 286.98,247.45 281.59,244.26 281.66,238.15 					"/>
					<polygon class="st3" points="287.2,228.96 287.12,235.08 281.73,231.9 281.81,225.78 					"/>
					<polygon class="st8" points="287.34,216.6 287.27,222.72 281.88,219.54 281.95,213.42 					"/>
				</g>
			</g>
		</g>
		<g>
			<g>
				<g>
					<path class="st0" d="M222.81,178.32c-0.14-0.08-0.26-0.28-0.26-0.45c0-0.16,0.12-0.23,0.26-0.14c0.14,0.08,0.26,0.28,0.26,0.45
						C223.07,178.34,222.95,178.41,222.81,178.32z"/>
					<path class="st0" d="M222.8,179.85c-0.14-0.08-0.26-0.28-0.26-0.45c0-0.16,0.12-0.23,0.26-0.14c0.14,0.08,0.26,0.28,0.26,0.45
						C223.06,179.87,222.94,179.94,222.8,179.85z"/>
					<path class="st0" d="M222.78,181.39c-0.14-0.08-0.26-0.28-0.26-0.45c0-0.16,0.12-0.23,0.26-0.14c0.14,0.08,0.26,0.28,0.26,0.45
						C223.04,181.4,222.93,181.47,222.78,181.39z"/>
					<path class="st0" d="M222.77,182.92c-0.14-0.08-0.26-0.28-0.26-0.45c0-0.16,0.12-0.23,0.26-0.14c0.14,0.08,0.26,0.28,0.26,0.45
						C223.03,182.94,222.91,183,222.77,182.92z"/>
					<path class="st0" d="M222.76,184.45c-0.14-0.08-0.26-0.28-0.26-0.45c0-0.16,0.12-0.23,0.26-0.14c0.14,0.08,0.26,0.28,0.26,0.45
						C223.02,184.47,222.9,184.53,222.76,184.45z"/>
					<path class="st0" d="M222.75,185.98c-0.14-0.08-0.26-0.28-0.26-0.45c0-0.16,0.12-0.23,0.26-0.14c0.14,0.08,0.26,0.28,0.26,0.45
						S222.89,186.06,222.75,185.98z"/>
					<path class="st0" d="M222.74,187.51c-0.14-0.08-0.26-0.28-0.26-0.45c0-0.16,0.12-0.23,0.26-0.14c0.14,0.08,0.26,0.28,0.26,0.45
						C223,187.53,222.88,187.59,222.74,187.51z"/>
					<path class="st0" d="M222.72,189.04c-0.14-0.08-0.26-0.28-0.26-0.45c0-0.16,0.12-0.23,0.26-0.14c0.14,0.08,0.26,0.28,0.26,0.45
						C222.98,189.06,222.87,189.12,222.72,189.04z"/>
					<path class="st0" d="M222.71,190.57c-0.14-0.08-0.26-0.28-0.26-0.45c0-0.16,0.12-0.23,0.26-0.14c0.14,0.08,0.26,0.28,0.26,0.45
						C222.97,190.59,222.86,190.65,222.71,190.57z"/>
					<path class="st0" d="M222.7,192.1c-0.14-0.08-0.26-0.28-0.26-0.45c0-0.16,0.12-0.23,0.26-0.14c0.14,0.08,0.26,0.28,0.26,0.45
						C222.96,192.12,222.84,192.18,222.7,192.1z"/>
				</g>
				<g>
					<path class="st0" d="M222.69,193.71c-0.14-0.08-0.26-0.28-0.26-0.45c0-0.16,0.12-0.23,0.26-0.14c0.14,0.08,0.26,0.28,0.26,0.45
						C222.95,193.73,222.83,193.79,222.69,193.71z"/>
					<path class="st0" d="M222.68,195.24c-0.14-0.08-0.26-0.28-0.26-0.45c0-0.16,0.12-0.23,0.26-0.14c0.14,0.08,0.26,0.28,0.26,0.45
						C222.94,195.26,222.82,195.32,222.68,195.24z"/>
					<path class="st0" d="M222.66,196.77c-0.14-0.08-0.26-0.28-0.26-0.45c0-0.16,0.12-0.23,0.26-0.14c0.14,0.08,0.26,0.28,0.26,0.45
						C222.92,196.79,222.81,196.85,222.66,196.77z"/>
					<path class="st0" d="M222.65,198.3c-0.14-0.08-0.26-0.28-0.26-0.45c0-0.16,0.12-0.23,0.26-0.14c0.14,0.08,0.26,0.28,0.26,0.45
						C222.91,198.32,222.8,198.38,222.65,198.3z"/>
					<path class="st0" d="M222.64,199.83c-0.14-0.08-0.26-0.28-0.26-0.45c0-0.16,0.12-0.23,0.26-0.14c0.14,0.08,0.26,0.28,0.26,0.45
						C222.9,199.85,222.78,199.91,222.64,199.83z"/>
					<path class="st0" d="M222.63,201.36c-0.14-0.08-0.26-0.28-0.26-0.45c0-0.16,0.12-0.23,0.26-0.14c0.14,0.08,0.26,0.28,0.26,0.45
						C222.89,201.38,222.77,201.45,222.63,201.36z"/>
					<path class="st0" d="M222.62,202.89c-0.14-0.08-0.26-0.28-0.26-0.45c0-0.16,0.12-0.23,0.26-0.14c0.14,0.08,0.26,0.28,0.26,0.45
						C222.88,202.91,222.76,202.98,222.62,202.89z"/>
					<path class="st0" d="M222.6,204.42c-0.14-0.08-0.26-0.28-0.26-0.45c0-0.16,0.12-0.23,0.26-0.14c0.14,0.08,0.26,0.28,0.26,0.45
						C222.87,204.44,222.75,204.51,222.6,204.42z"/>
					<path class="st0" d="M222.59,205.95c-0.14-0.08-0.26-0.28-0.26-0.45c0-0.16,0.12-0.23,0.26-0.14c0.14,0.08,0.26,0.28,0.26,0.45
						C222.85,205.97,222.74,206.04,222.59,205.95z"/>
					<path class="st0" d="M222.58,207.48c-0.14-0.08-0.26-0.28-0.26-0.45c0-0.16,0.12-0.23,0.26-0.14s0.26,0.28,0.26,0.45
						C222.84,207.5,222.72,207.57,222.58,207.48z"/>
				</g>
			</g>
			<polygon class="st0" points="230.27,182.97 225.21,180.02 225.22,179.28 230.27,182.24 			"/>
			<polygon class="st0" points="230.25,184.42 225.2,181.46 225.21,180.72 230.26,183.68 			"/>
			<polygon class="st0" points="230.24,185.86 225.19,182.9 225.2,182.17 230.25,185.12 			"/>
			<polygon class="st0" points="234.33,189.7 225.18,184.35 225.19,183.61 234.34,188.96 			"/>
			<polygon class="st0" points="232.5,191.29 227.45,188.34 227.45,187.6 232.5,190.56 			"/>
			<polygon class="st0" points="232.49,192.74 227.44,189.78 227.44,189.04 232.49,192 			"/>
			<polygon class="st0" points="247.37,201.42 242.32,198.46 242.32,197.72 247.37,200.68 			"/>
			<polygon class="st0" points="232.48,194.18 227.42,191.22 227.43,190.49 232.48,193.44 			"/>
			<polygon class="st0" points="243.68,190.82 230.91,183.35 230.92,182.62 243.69,190.09 			"/>
			<polygon class="st0" points="240.47,190.4 230.9,184.8 230.91,184.06 240.48,189.66 			"/>
			<polygon class="st0" points="247.59,194.54 241.16,190.78 241.16,190.04 247.59,193.81 			"/>
			<polygon class="st0" points="249.64,197.21 230.89,186.24 230.9,185.5 249.65,196.47 			"/>
			<polygon class="st0" points="248.21,197.82 236.04,190.7 236.05,189.96 248.22,197.08 			"/>
			<polygon class="st0" points="249.56,201.28 233.15,191.67 233.15,190.94 249.56,200.54 			"/>
			<polygon class="st0" points="241.67,198.11 233.14,193.12 233.14,192.38 241.68,197.37 			"/>
			<polygon class="st0" points="246.36,202.31 233.12,194.56 233.13,193.82 246.37,201.57 			"/>
			<polygon class="st0" points="235.24,197.56 230.19,194.6 230.2,193.86 235.25,196.82 			"/>
			<polygon class="st0" points="249.5,205.89 235.91,197.94 235.91,197.2 249.51,205.15 			"/>
			<polygon class="st0" points="250.96,208.2 230.18,196.04 230.19,195.3 250.96,207.46 			"/>
			<polygon class="st0" points="242.05,204.44 230.17,197.49 230.17,196.75 242.05,203.7 			"/>
			<polygon class="st0" points="250.89,209.61 242.78,204.86 242.78,204.12 250.9,208.87 			"/>
			<polygon class="st0" points="232.46,200.28 227.41,197.32 227.41,196.58 232.46,199.54 			"/>
			<polygon class="st0" points="240.33,206.33 227.4,198.76 227.4,198.02 240.33,205.59 			"/>
			<polygon class="st0" points="250.92,212.51 241.08,206.75 241.08,206.01 250.93,211.77 			"/>
			<polygon class="st0" points="236.89,205.76 227.39,200.21 227.39,199.47 236.89,205.03 			"/>
			<polygon class="st0" points="238.76,208.31 227.37,201.65 227.38,200.91 238.76,207.57 			"/>
			<polygon class="st0" points="242.98,212.32 230.39,204.96 230.4,204.22 242.99,211.58 			"/>
			<polygon class="st0" points="246.18,215.65 230.38,206.4 230.38,205.66 246.19,214.91 			"/>
			<polygon class="st0" points="235.42,210.8 230.37,207.84 230.37,207.1 235.42,210.06 			"/>
			<polygon class="st0" points="250.35,220.96 248.34,219.79 248.34,219.05 250.35,220.22 			"/>
			<polygon class="st0" points="247.53,219.34 230.36,209.29 230.36,208.55 247.54,218.6 			"/>
			<polygon class="st0" points="236.23,214.17 231.18,211.22 231.19,210.48 236.24,213.43 			"/>
			<polygon class="st0" points="249.17,221.74 236.93,214.58 236.93,213.84 249.17,221 			"/>
			<polygon class="st0" points="239.93,217.79 230.33,212.17 230.34,211.43 239.94,217.05 			"/>
			<polygon class="st0" points="233.8,215.65 228.75,212.69 228.75,211.95 233.8,214.91 			"/>
			<polygon class="st0" points="220.63,176.61 216.51,174.2 216.5,174.94 220.63,177.35 			"/>
			<polygon class="st0" points="220.62,178.06 216.5,175.64 216.49,176.38 220.62,178.79 			"/>
			<polygon class="st0" points="220.6,180.94 214.36,177.29 214.35,178.03 220.59,181.68 			"/>
			<polygon class="st0" points="214.34,179.95 214.33,180.68 219.21,183.54 219.22,182.8 			"/>
			<polygon class="st0" points="214.39,172.96 214.39,173.7 215.85,174.56 215.86,173.82 			"/>
			<polygon class="st0" points="214.38,174.41 214.37,175.14 215.84,176 215.85,175.26 			"/>
			<polygon class="st0" points="214.3,184.58 214.3,185.32 216.4,186.55 216.4,185.81 			"/>
			<polygon class="st0" points="214.29,186.02 214.28,186.76 216.39,187.99 216.39,187.25 			"/>
			<polygon class="st0" points="214.26,190.35 214.25,191.09 219.1,193.93 219.11,193.19 			"/>
			<polygon class="st0" points="214.23,193.24 214.23,193.97 219.08,196.81 219.09,196.07 			"/>
			<polygon class="st0" points="214.22,194.77 214.22,195.51 216.04,196.58 216.05,195.84 			"/>
			<polygon class="st0" points="214.19,199.1 214.18,199.84 216.01,200.91 216.01,200.17 			"/>
			<polygon class="st0" points="214.17,201.99 214.16,202.73 215.98,203.79 215.99,203.05 			"/>
		</g>
	</g>
	<path class="st0" d="M169.62,136.12l-53.38-30.11c-1.76-0.99-3.93,0.27-3.93,2.28v75.15c0,2.36,1.26,4.55,3.3,5.75l53.5,31.28
		c2.28,1.33,5.16-0.3,5.16-2.94v-73.47C174.27,140.78,172.49,137.74,169.62,136.12z"/>
	<g>
		<g>
			<path class="st4" d="M250.88,158.63c0-5.51,3.88-7.75,8.68-5.06l-0.03-14.64c-12.15-6.9-21.98-1.3-22.04,12.56l13.41,7.71
				C250.9,159.01,250.88,158.82,250.88,158.63z"/>
		</g>
		<path class="st5" d="M250.91,159.2l-13.41-7.71c0,0.04,0,0.09,0,0.13c0,7.01,2.49,14.79,6.51,21.7l9.66-5.76
			C252.07,164.92,251.04,161.94,250.91,159.2z"/>
		<path class="st3" d="M281.88,177.01c-0.06-13.99-9.97-30.97-22.19-38c-0.05-0.03-0.1-0.05-0.15-0.08l0.03,14.64
			c0.04,0.02,0.08,0.04,0.12,0.06c4.86,2.8,8.8,9.57,8.8,15.12c0,5.56-3.94,7.8-8.8,5c-2.33-1.34-4.45-3.6-6.03-6.2l-9.66,5.76
			c4.01,6.87,9.53,12.88,15.64,16.41c0.02,0.01,0.03,0.02,0.05,0.03c12.26,7.05,22.2,1.41,22.2-12.6
			C281.89,177.1,281.88,177.06,281.88,177.01z"/>
	</g>
	<g>
		<g>
			<path class="st17" d="M157.52,143.8l-53.38-30.12c-1.76-0.99-3.93,0.27-3.93,2.28v75.15c0,2.36,1.26,4.55,3.3,5.75l53.5,31.28
				c2.28,1.33,5.16-0.3,5.16-2.94v-73.47C162.17,148.45,160.4,145.42,157.52,143.8z"/>
			<path class="st18" d="M158.75,228.74c-0.62,0-1.24-0.16-1.8-0.49l-53.5-31.28c-2.08-1.21-3.36-3.46-3.36-5.85v-75.15
				c0-0.99,0.51-1.88,1.37-2.37c0.86-0.5,1.89-0.51,2.75-0.02l53.38,30.12c2.91,1.64,4.71,4.72,4.71,8.05v73.47
				c0,1.28-0.67,2.43-1.79,3.07C159.96,228.59,159.35,228.74,158.75,228.74z M102.84,113.46c-0.43,0-0.87,0.11-1.26,0.34
				c-0.78,0.45-1.24,1.26-1.24,2.16v75.15c0,2.31,1.24,4.47,3.24,5.64l53.5,31.28c1.03,0.6,2.27,0.61,3.31,0.02
				c1.04-0.59,1.66-1.66,1.66-2.85v-73.47c0-3.24-1.76-6.24-4.58-7.83l-53.38-30.12C103.69,113.57,103.27,113.46,102.84,113.46z"/>
		</g>
		<path class="st3" d="M103.65,191.46l7.32-10.8c1.02-1.5,3.32-1.19,3.9,0.53l1.84,5.5c0.42,1.25,2.02,1.61,2.94,0.66l8.73-9.03
			c1.48-1.53,4.06-0.96,4.76,1.04l6.35,18.3c1.15,3.31,5.23,4.5,7.99,2.34l0.97-0.76c1.06-0.83,2.64-0.31,2.98,1l5.61,21.46
			c0.15,0.56-0.45,1.01-0.95,0.73l-51.98-29.07C103.43,192.97,103.22,192.1,103.65,191.46z"/>
		<g>
			<polygon class="st19" points="108.16,162.31 107.78,162.1 107.78,148.71 108.16,148.93 			"/>
			<polygon class="st19" points="116.93,167.36 116.56,167.14 116.56,125.45 116.93,125.66 			"/>
			<polygon class="st19" points="125.71,145.59 125.71,172.41 126.09,172.62 126.09,145.8 			"/>
			<polygon class="st19" points="134.92,177.7 134.54,177.48 134.54,135.79 134.92,136.01 			"/>
			<polygon class="st19" points="142.42,182.01 142.04,181.8 142.04,173.96 142.42,174.17 			"/>
			<polygon class="st19" points="150,186.37 149.62,186.16 149.62,144.46 150,144.68 			"/>
			<g>
				<path class="st13" d="M117.04,164.15l-0.39-0.22c-0.64-0.37-1.16-1.36-1.16-2.21v-29.84c0-0.85,0.52-1.24,1.16-0.87l0.39,0.22
					c0.64,0.37,1.16,1.36,1.16,2.21v29.84C118.2,164.12,117.68,164.52,117.04,164.15z"/>
			</g>
			<path class="st3" d="M150.06,183.35l-0.39-0.22c-0.64-0.37-1.16-1.36-1.16-2.21v-24.5c0-0.85,0.52-1.24,1.16-0.87l0.39,0.22
				c0.64,0.37,1.16,1.36,1.16,2.21v24.5C151.22,183.32,150.7,183.72,150.06,183.35z"/>
			<path class="st5" d="M134.86,174.4l-0.39-0.22c-0.64-0.37-1.16-1.36-1.16-2.21v-18.11c0-0.85,0.52-1.24,1.16-0.87l0.39,0.22
				c0.64,0.37,1.16,1.36,1.16,2.21v18.11C136.02,174.37,135.5,174.77,134.86,174.4z"/>
			<path class="st8" d="M108.31,156.64l-0.39-0.22c-0.64-0.37-1.16-1.36-1.16-2.21v-1.4c0-0.85,0.52-1.24,1.16-0.87l0.39,0.22
				c0.64,0.37,1.16,1.36,1.16,2.21v1.4C109.47,156.62,108.95,157.01,108.31,156.64z"/>
			<path class="st14" d="M126.19,165.32l-0.39-0.22c-0.64-0.37-1.16-1.36-1.16-2.21v-9.97c0-0.85,0.52-1.24,1.16-0.87l0.39,0.22
				c0.64,0.37,1.16,1.36,1.16,2.21v9.97C127.35,165.3,126.83,165.69,126.19,165.32z"/>
		</g>
	</g>
	<g>
		<path class="st0" d="M315.25,332.55c-0.75,0-1.5-0.2-2.18-0.59L94.44,206.24V17.55c0-1.3,0.67-2.46,1.8-3.11
			c1.13-0.65,2.47-0.65,3.6,0l215.24,123.77c2.8,1.61,4.54,4.61,4.54,7.83v182.16c0,1.57-0.82,2.98-2.18,3.77
			C316.75,332.35,316,332.55,315.25,332.55z M95.44,205.67L313.57,331.1c1.05,0.6,2.31,0.61,3.37,0c1.05-0.61,1.68-1.69,1.68-2.91
			V146.03c0-2.87-1.55-5.54-4.04-6.97L99.35,15.3c-0.82-0.47-1.79-0.47-2.6,0c-0.82,0.47-1.3,1.31-1.3,2.25V205.67z"/>
	</g>
	<g>
		<g>
			<path class="st20" d="M193.71,192.97c0.12,1.25,1.32,2.19,2.67,2.08l3.9-0.31c1.35-0.11,2.36-1.22,2.25-2.47
				c-0.12-1.25-1.32-2.19-2.67-2.08l-3.9,0.31C194.6,190.6,193.59,191.72,193.71,192.97z"/>
			<path class="st21" d="M224.23,136.33c-1.35-0.13-2.57,0.79-2.7,2.05l-0.39,3.61c-0.14,1.25,0.86,2.38,2.21,2.5
				c1.35,0.13,2.57-0.8,2.7-2.05l0.39-3.61C226.58,137.58,225.58,136.45,224.23,136.33z"/>
			<g>
				<path class="st21" d="M187.04,157.27c1.14,0.58,2.52-0.28,3.22-1.37c0.49-0.77,0.8-1.65,1.2-2.47
					c-0.24-0.37-0.39-0.89-0.39-1.48c0-1.11,0.52-2.01,1.17-2.01s1.17,0.9,1.17,2.01c0,0.17-0.02,0.33-0.04,0.48
					c0.1,0.07,0.23,0.12,0.37,0.12c0.35,0,0.64-0.26,0.64-0.59v-1.53c0.4-0.26,0.79-0.52,1.18-0.79c0.79-0.55,1.64-1.52,2.15-2.6
					v4.9c0,3.29-2.72,6-6.19,6.29c0.04,2.06,0.09,4.12,0.13,6.19c0.04,1.92-4.97,1.91-5.01,0c-0.05-2.53-0.11-5.05-0.17-7.58
					C186.66,157.03,186.85,157.18,187.04,157.27z"/>
				<path class="st22" d="M195.55,149.65c-0.38,0.27-0.78,0.53-1.18,0.79v1.53c0,0.32-0.29,0.59-0.63,0.59
					c-0.14,0-0.27-0.05-0.37-0.12c0.02-0.15,0.04-0.31,0.04-0.48c0-1.11-0.52-2.01-1.17-2.01s-1.17,0.9-1.17,2.01
					c0,0.59,0.15,1.11,0.39,1.48c-0.4,0.82-0.7,1.7-1.2,2.47c-0.69,1.08-2.08,1.94-3.22,1.37c-0.18-0.09-0.37-0.24-0.57-0.42
					c-2.15-1.95-4.47-8.65-1.97-12.9c1.41-2.4,6.51-2.75,9.94-2c0.5-0.27,0.93-0.69,1.5-0.83c0.27-0.07,0.56-0.07,0.83-0.05
					c0.78,0.06,1.63,0.31,1.98,0.91c0.15,0.26,0.2,0.56,0.21,0.85c0.05,0.92-0.29,2.02-0.87,2.98c-0.07,0.42-0.21,0.84-0.41,1.24
					C197.19,148.13,196.34,149.1,195.55,149.65z"/>
			</g>
			<path class="st23" d="M207.08,275.02c-1.48-0.79-4.09-0.69-5.8,0.22l-2.25,1.21c-1.71,0.91-1.9,2.31-0.42,3.1
				c1.48,0.79,4.09,0.69,5.8-0.22l2.25-1.21C208.37,277.21,208.56,275.81,207.08,275.02z"/>
			<path class="st23" d="M195.14,267.47c-1.48-0.79-4.09-0.69-5.8,0.22l-2.25,1.21c-1.71,0.91-1.9,2.31-0.42,3.1
				c1.48,0.79,4.09,0.69,5.8-0.22l2.25-1.21C196.43,269.66,196.62,268.27,195.14,267.47z"/>
			<g>
				<path class="st24" d="M189.86,205.84c1.91,11.98,4.35,23.88,3.9,36.04c-0.31,8.45-0.57,16.9-0.86,25.35
					c-0.17,4.86-8.33,4.88-8.17,0c0.29-8.42,0.51-16.84,0.86-25.26c0.47-11.53-1.8-22.76-3.61-34.11
					C181.22,203.09,189.09,201.03,189.86,205.84L189.86,205.84z"/>
			</g>
			<g>
				<path class="st24" d="M202.48,207.74c1.08,11.23,2.85,22.58,3.16,33.86c0.31,11.14-0.6,22.39-0.93,33.53
					c-0.14,4.86-8.31,4.88-8.17,0c0.33-11.13,1.26-22.39,0.93-33.53c-0.34-11.28-2.08-22.62-3.16-33.86
					C193.85,202.89,202.02,202.92,202.48,207.74L202.48,207.74z"/>
			</g>
			<g>
				<path class="st25" d="M194.4,194.75c-5.38-1.5-10.98-4.03-14.98-7.74c-7-6.51-4.6-14.32,1.63-20.44
					c2.26-2.22,5.95,1.05,3.69,3.27c-5.85,5.75-6.01,11.38,1.09,15.97c2.94,1.9,6.38,3.4,9.82,4.36
					C198.79,191.04,197.55,195.63,194.4,194.75L194.4,194.75z"/>
			</g>
			<path class="st13" d="M190.09,164.25c8.11,2.26,11.17,7.36,11.17,7.36s-0.29,9.79,0.53,18.53l1.91,28.48
				c-1.34,2.13-4.36,2.3-6.02,1.54c-8.9-4.08-15.72-5.12-16.43-12.25c-0.15-1.54,0-4.4,0.11-9.05c0.04-1.8,0.01-3.69-0.18-5.57
				c-0.06-0.6-0.13-1.42-0.21-2.38c-0.33-4.12-0.76-10.79-1.07-13.5C177.97,160.43,187.46,163.52,190.09,164.25z"/>
			<path class="st13" d="M186.6,165.14l3.71,1.16c0.86,0.27,1.81-0.16,2.1-0.96c0.29-0.8-0.18-1.68-1.04-1.95l-3.71-1.16
				c-0.86-0.27-1.81,0.16-2.1,0.96C185.26,163.99,185.73,164.87,186.6,165.14z"/>
		</g>
		<g>
			<path class="st13" d="M220.83,141.69c-1.55,3.45-3.1,6.91-4.65,10.36c-1.37,3.04-2.41,7.18-4.71,9.68
				c-2.47,2.67-6.04,4.78-8.89,7.04c-2.98,2.36-5.95,4.71-8.93,7.07c-2.51,1.99,1.04,5.49,3.53,3.52
				c5.85-4.63,12.57-8.9,17.86-14.14c2.52-2.5,3.64-6.62,5.06-9.77c1.68-3.75,3.37-7.49,5.05-11.24
				C226.44,141.3,222.14,138.77,220.83,141.69L220.83,141.69z"/>
		</g>
	</g>
</g>
<g>
	<g>
		<path class="st26" d="M19.87,162.91l22.53-13.07c2.23-1.29,4.97-1.29,7.2-0.01l21.52,18.8l-18.03,12.91H42.18L19.8,167.76
			C17.99,166.64,18.02,163.98,19.87,162.91z"/>
		<g>
			<g>
				
					<linearGradient id="SVGID_1_" gradientUnits="userSpaceOnUse" x1="284.7803" y1="143.105" x2="331.947" y2="143.105" gradientTransform="matrix(-1 0 0 1 362.3684 0)">
					<stop  offset="0.4092" style="stop-color:#B4CCFC"/>
					<stop  offset="0.4618" style="stop-color:#ADC7FB"/>
					<stop  offset="0.5371" style="stop-color:#9AB9F9"/>
					<stop  offset="0.6257" style="stop-color:#7CA1F5"/>
					<stop  offset="0.627" style="stop-color:#7BA1F5"/>
				</linearGradient>
				<path class="st27" d="M30.42,104.34h47.17v63.85c0,0.57-0.28,1.13-0.84,1.46l-19.81,11.43c-1.81,1.04-4.04,1.04-5.85,0
					l-19.74-11.4c-0.57-0.33-0.84-0.92-0.81-1.5h-0.12V104.34z"/>
				<path class="st1" d="M56.92,117.32l19.81-11.43c1.12-0.65,1.12-2.27,0-2.92l-19.91-11.5c-1.65-0.95-3.67-0.95-5.32,0
					l-20.16,11.64c-1.08,0.62-1.08,2.18,0,2.81l19.74,11.4C52.88,118.37,55.11,118.37,56.92,117.32z"/>
			</g>
			<g>
				<g>
					<path class="st24" d="M55.95,113l14.28-8.24c0.81-0.47,0.81-1.63,0-2.1l-14.36-8.29c-1.19-0.68-2.65-0.68-3.83,0l-14.54,8.39
						c-0.78,0.45-0.78,1.58,0,2.03L51.73,113C53.04,113.75,54.65,113.75,55.95,113z"/>
					
						<linearGradient id="SVGID_00000123405719635902329390000012695207069030683565_" gradientUnits="userSpaceOnUse" x1="323.8865" y1="99.0385" x2="288.7709" y2="99.0385" gradientTransform="matrix(-1 0 0 1 359.8522 0)">
						<stop  offset="0.4222" style="stop-color:#EAEAF9"/>
						<stop  offset="0.4493" style="stop-color:#E3E5F8"/>
						<stop  offset="0.4881" style="stop-color:#D0D5F4"/>
						<stop  offset="0.534" style="stop-color:#B1BDEE"/>
						<stop  offset="0.5848" style="stop-color:#879AE5"/>
						<stop  offset="0.6116" style="stop-color:#6D86E0"/>
					</linearGradient>
					<path style="fill:url(#SVGID_00000123405719635902329390000012695207069030683565_);" d="M70.24,103.76l-14.38-8.27
						c-1.19-0.68-2.65-0.68-3.84,0l-14.56,8.37c-0.19,0.11-0.33,0.25-0.42,0.42c-0.31-0.53-0.17-1.26,0.42-1.6l14.56-8.37
						c1.19-0.68,2.65-0.68,3.84,0l14.38,8.27c0.61,0.35,0.76,1.09,0.45,1.64C70.59,104.04,70.44,103.88,70.24,103.76z"/>
				</g>
			</g>
		</g>
	</g>
	<g>
		<g>
			<path class="st29" d="M59.17,165.81l11.8-6.81c0.91-0.52,1.47-1.49,1.47-2.54v-39.21l0.15-0.09c0.75-0.43,1.69,0.11,1.69,0.98
				v39.6c0,1.05-0.56,2.01-1.47,2.54l-11.8,6.81c-1.03,0.59-2.28,0.01-2.57-1.06C58.69,166.01,58.93,165.95,59.17,165.81z"/>
			<path class="st22" d="M58.38,127.46c0-1.3,0.69-2.49,1.81-3.14l12.23-7.06v39.21c0,1.05-0.56,2.01-1.47,2.54l-11.8,6.81
				c-0.23,0.14-0.48,0.19-0.72,0.22c-0.04-0.14-0.06-0.3-0.06-0.46V127.46z"/>
		</g>
		<path class="st4" d="M69.16,155.53c0.42-0.24,0.77-0.9,0.77-1.47v-31.19c0-0.56-0.35-0.83-0.77-0.58
			c-0.42,0.24-0.77,0.9-0.77,1.47v31.19C68.39,155.51,68.74,155.77,69.16,155.53z"/>
		<path class="st1" d="M66.02,157.25c0.41-0.24,0.75-0.88,0.75-1.43v-20.49c0-0.55-0.34-0.8-0.75-0.57
			c-0.41,0.24-0.75,0.88-0.75,1.43v20.49C65.27,157.24,65.61,157.49,66.02,157.25z"/>
		<path class="st4" d="M62.8,128.39c0.41-0.24,0.75,0.02,0.75,0.57v8.34v12.15v8.34c0,0.55-0.34,1.19-0.75,1.43
			c-0.41,0.24-0.75-0.02-0.75-0.57v-8.34v-12.15v-8.34C62.05,129.27,62.38,128.63,62.8,128.39z"/>
	</g>
</g>
<g>
	<path class="st26" d="M334.16,353.6l-13.29-7.71c-1.31-0.76-2.93-0.76-4.25,0l-17.02,9.83l14.96,8.88H321l13.2-8.13
		C335.27,355.79,335.25,354.23,334.16,353.6z"/>
	<g>
		
			<linearGradient id="SVGID_00000086686223140401931920000009990337508936095668_" gradientUnits="userSpaceOnUse" x1="270.6053" y1="355.6287" x2="295.7916" y2="355.6287" gradientTransform="matrix(1 0 0 1 28.1772 0)">
			<stop  offset="0.4092" style="stop-color:#B4CCFC"/>
			<stop  offset="0.4618" style="stop-color:#ADC7FB"/>
			<stop  offset="0.5371" style="stop-color:#9AB9F9"/>
			<stop  offset="0.6257" style="stop-color:#7CA1F5"/>
			<stop  offset="0.627" style="stop-color:#7BA1F5"/>
		</linearGradient>
		<path style="fill:url(#SVGID_00000086686223140401931920000009990337508936095668_);" d="M330.43,346.6v8.29
			c0,0.4-0.2,0.81-0.6,1.04l-14.14,8.16c-1.29,0.75-2.88,0.75-4.18,0l-14.09-8.14c-0.41-0.24-0.6-0.66-0.57-1.07h-0.09v-8.29H330.43
			z"/>
		<path class="st1" d="M315.68,355.72l14.14-8.16c0.8-0.46,0.8-1.62,0-2.08l-14.22-8.21c-1.17-0.68-2.62-0.68-3.8,0l-14.39,8.31
			c-0.77,0.45-0.77,1.56,0,2.01l14.09,8.14C312.79,356.46,314.39,356.46,315.68,355.72z"/>
	</g>
	<path class="st31" d="M317.43,358.05c-0.27,0.16-0.5,0.58-0.5,0.95c0,0.36,0.22,0.53,0.5,0.37l9.12-5.26l0.01-1.33L317.43,358.05z"
		/>
	<path class="st31" d="M327.85,352.04l-1.28,0.74l-0.01,1.33l1.29-0.75c0.27-0.16,0.5-0.58,0.5-0.95
		C328.34,352.05,328.12,351.89,327.85,352.04z"/>
	<g>
		<g>
			
				<linearGradient id="SVGID_00000031891664046632636510000006177619064640079759_" gradientUnits="userSpaceOnUse" x1="270.6053" y1="344.8276" x2="295.7916" y2="344.8276" gradientTransform="matrix(1 0 0 1 28.1772 0)">
				<stop  offset="0.4092" style="stop-color:#B4CCFC"/>
				<stop  offset="0.4618" style="stop-color:#ADC7FB"/>
				<stop  offset="0.5371" style="stop-color:#9AB9F9"/>
				<stop  offset="0.6257" style="stop-color:#7CA1F5"/>
				<stop  offset="0.627" style="stop-color:#7BA1F5"/>
			</linearGradient>
			<path style="fill:url(#SVGID_00000031891664046632636510000006177619064640079759_);" d="M330.43,335.8v8.29
				c0,0.4-0.2,0.81-0.6,1.04l-14.14,8.16c-1.29,0.75-2.88,0.75-4.18,0l-14.09-8.14c-0.41-0.24-0.6-0.66-0.57-1.07h-0.09v-8.29
				H330.43z"/>
			<path class="st1" d="M315.68,344.92l14.14-8.16c0.8-0.46,0.8-1.62,0-2.08l-14.22-8.21c-1.17-0.68-2.62-0.68-3.8,0l-14.39,8.31
				c-0.77,0.45-0.77,1.56,0,2.01l14.09,8.14C312.79,345.66,314.39,345.66,315.68,344.92z"/>
		</g>
		<path class="st31" d="M317.43,347.25c-0.27,0.16-0.5,0.58-0.5,0.95s0.22,0.53,0.5,0.37l9.12-5.26l0.01-1.33L317.43,347.25z"/>
		<path class="st31" d="M327.85,341.24l-1.28,0.74l-0.01,1.33l1.29-0.75c0.27-0.16,0.5-0.58,0.5-0.95S328.12,341.08,327.85,341.24z"
			/>
	</g>
	<g>
		<g>
			
				<linearGradient id="SVGID_00000060030032374694793060000000383388533062459823_" gradientUnits="userSpaceOnUse" x1="270.6053" y1="334.002" x2="295.7916" y2="334.002" gradientTransform="matrix(1 0 0 1 28.1772 0)">
				<stop  offset="0.4092" style="stop-color:#B4CCFC"/>
				<stop  offset="0.4618" style="stop-color:#ADC7FB"/>
				<stop  offset="0.5371" style="stop-color:#9AB9F9"/>
				<stop  offset="0.6257" style="stop-color:#7CA1F5"/>
				<stop  offset="0.627" style="stop-color:#7BA1F5"/>
			</linearGradient>
			<path style="fill:url(#SVGID_00000060030032374694793060000000383388533062459823_);" d="M330.43,324.97v8.29
				c0,0.4-0.2,0.81-0.6,1.04l-14.14,8.16c-1.29,0.75-2.88,0.75-4.18,0l-14.09-8.14c-0.41-0.24-0.6-0.66-0.57-1.07h-0.09v-8.29
				H330.43z"/>
			<path class="st1" d="M315.68,334.09l14.14-8.16c0.8-0.46,0.8-1.62,0-2.08l-14.22-8.21c-1.17-0.68-2.62-0.68-3.8,0l-14.39,8.31
				c-0.77,0.45-0.77,1.56,0,2.01l14.09,8.14C312.79,334.84,314.39,334.84,315.68,334.09z"/>
		</g>
		<path class="st31" d="M317.43,336.43c-0.27,0.16-0.5,0.58-0.5,0.95c0,0.36,0.22,0.53,0.5,0.37l9.12-5.26l0.01-1.33L317.43,336.43z
			"/>
		<path class="st31" d="M327.85,330.42l-1.28,0.74l-0.01,1.33l1.29-0.75c0.27-0.16,0.5-0.58,0.5-0.95S328.12,330.26,327.85,330.42z"
			/>
	</g>
	<g>
		<g>
			
				<linearGradient id="SVGID_00000157309996274801025160000018330565716585996210_" gradientUnits="userSpaceOnUse" x1="270.6053" y1="323.1026" x2="295.7916" y2="323.1026" gradientTransform="matrix(1 0 0 1 28.1772 0)">
				<stop  offset="0.4092" style="stop-color:#B4CCFC"/>
				<stop  offset="0.4618" style="stop-color:#ADC7FB"/>
				<stop  offset="0.5371" style="stop-color:#9AB9F9"/>
				<stop  offset="0.6257" style="stop-color:#7CA1F5"/>
				<stop  offset="0.627" style="stop-color:#7BA1F5"/>
			</linearGradient>
			<path style="fill:url(#SVGID_00000157309996274801025160000018330565716585996210_);" d="M330.43,314.07v8.29
				c0,0.4-0.2,0.81-0.6,1.04l-14.14,8.16c-1.29,0.75-2.88,0.75-4.18,0l-14.09-8.14c-0.41-0.24-0.6-0.66-0.57-1.07h-0.09v-8.29
				H330.43z"/>
			<path class="st0" d="M315.68,323.19l14.14-8.16c0.8-0.46,0.8-1.62,0-2.08l-14.22-8.21c-1.17-0.68-2.62-0.68-3.8,0l-14.39,8.31
				c-0.77,0.45-0.77,1.56,0,2.01l14.09,8.14C312.79,323.94,314.39,323.94,315.68,323.19z"/>
		</g>
		<path class="st31" d="M317.43,325.53c-0.27,0.16-0.5,0.58-0.5,0.95c0,0.36,0.22,0.53,0.5,0.37l9.12-5.26l0.01-1.33L317.43,325.53z
			"/>
		<path class="st31" d="M327.85,319.52l-1.28,0.74l-0.01,1.33l1.29-0.75c0.27-0.16,0.5-0.58,0.5-0.95
			C328.34,319.53,328.12,319.36,327.85,319.52z"/>
	</g>
	<g>
		<path class="st31" d="M310.83,326.7c0,0.36,0.26,0.8,0.57,0.99c0.32,0.18,0.57,0.04,0.57-0.33c0-0.36-0.26-0.8-0.57-0.99
			C311.08,326.19,310.83,326.34,310.83,326.7z"/>
		<path class="st31" d="M308.81,325.54c0,0.36,0.26,0.8,0.57,0.99c0.32,0.18,0.57,0.04,0.57-0.33c0-0.36-0.26-0.8-0.57-0.99
			C309.07,325.03,308.81,325.18,308.81,325.54z"/>
		<path class="st31" d="M306.8,324.38c0,0.36,0.26,0.8,0.57,0.99c0.32,0.18,0.57,0.04,0.57-0.33c0-0.36-0.26-0.8-0.57-0.99
			C307.05,323.87,306.8,324.01,306.8,324.38z"/>
		<path class="st31" d="M304.78,323.21c0,0.36,0.26,0.8,0.57,0.99c0.32,0.18,0.57,0.04,0.57-0.33c0-0.36-0.26-0.8-0.57-0.99
			C305.04,322.7,304.78,322.85,304.78,323.21z"/>
		<path class="st4" d="M302.77,322.05c0,0.36,0.26,0.8,0.57,0.99c0.32,0.18,0.57,0.04,0.57-0.33c0-0.36-0.26-0.8-0.57-0.99
			C303.03,321.54,302.77,321.69,302.77,322.05z"/>
		<path class="st4" d="M300.76,320.89c0,0.36,0.26,0.8,0.57,0.99c0.32,0.18,0.57,0.04,0.57-0.33c0-0.36-0.26-0.8-0.57-0.99
			C301.01,320.38,300.76,320.52,300.76,320.89z"/>
		<path class="st4" d="M298.74,319.72c0,0.36,0.26,0.8,0.57,0.99c0.32,0.18,0.57,0.04,0.57-0.33c0-0.36-0.26-0.8-0.57-0.99
			C299,319.21,298.74,319.36,298.74,319.72z"/>
	</g>
	<g>
		<path class="st31" d="M311.12,337.99c0,0.36,0.26,0.8,0.57,0.99c0.32,0.18,0.57,0.04,0.57-0.33s-0.26-0.8-0.57-0.99
			C311.38,337.48,311.12,337.63,311.12,337.99z"/>
		<path class="st13" d="M309.11,336.83c0,0.36,0.26,0.8,0.57,0.99c0.32,0.18,0.57,0.04,0.57-0.33s-0.26-0.8-0.57-0.99
			C309.36,336.32,309.11,336.47,309.11,336.83z"/>
		<path class="st13" d="M307.09,335.67c0,0.36,0.26,0.8,0.57,0.99c0.32,0.18,0.57,0.04,0.57-0.33c0-0.36-0.26-0.8-0.57-0.99
			C307.35,335.16,307.09,335.3,307.09,335.67z"/>
		<path class="st13" d="M305.08,334.5c0,0.36,0.26,0.8,0.57,0.99c0.32,0.18,0.57,0.04,0.57-0.33s-0.26-0.8-0.57-0.99
			C305.33,334,305.08,334.14,305.08,334.5z"/>
		<path class="st13" d="M303.06,333.34c0,0.36,0.26,0.8,0.57,0.99s0.57,0.04,0.57-0.33s-0.26-0.8-0.57-0.99
			C303.32,332.83,303.06,332.98,303.06,333.34z"/>
		<path class="st13" d="M301.05,332.18c0,0.36,0.26,0.8,0.57,0.99c0.32,0.18,0.57,0.04,0.57-0.33s-0.26-0.8-0.57-0.99
			C301.31,331.67,301.05,331.82,301.05,332.18z"/>
		<path class="st31" d="M299.04,331.02c0,0.36,0.26,0.8,0.57,0.99c0.32,0.18,0.57,0.04,0.57-0.33s-0.26-0.8-0.57-0.99
			C299.29,330.51,299.04,330.65,299.04,331.02z"/>
	</g>
	<g>
		<path class="st4" d="M310.68,348.87c0,0.36,0.26,0.8,0.57,0.99c0.32,0.18,0.57,0.04,0.57-0.33s-0.26-0.8-0.57-0.99
			C310.94,348.37,310.68,348.51,310.68,348.87z"/>
		<path class="st31" d="M308.67,347.71c0,0.36,0.26,0.8,0.57,0.99c0.32,0.18,0.57,0.04,0.57-0.33s-0.26-0.8-0.57-0.99
			C308.92,347.2,308.67,347.35,308.67,347.71z"/>
		<path class="st31" d="M306.65,346.55c0,0.36,0.26,0.8,0.57,0.99c0.32,0.18,0.57,0.04,0.57-0.33s-0.26-0.8-0.57-0.99
			C306.91,346.04,306.65,346.19,306.65,346.55z"/>
		<path class="st4" d="M304.64,345.39c0,0.36,0.26,0.8,0.57,0.99c0.32,0.18,0.57,0.04,0.57-0.33s-0.26-0.8-0.57-0.99
			C304.89,344.88,304.64,345.02,304.64,345.39z"/>
		<path class="st4" d="M302.62,344.22c0,0.36,0.26,0.8,0.57,0.99c0.32,0.18,0.57,0.04,0.57-0.33s-0.26-0.8-0.57-0.99
			C302.88,343.71,302.62,343.86,302.62,344.22z"/>
		<path class="st4" d="M300.61,343.06c0,0.36,0.26,0.8,0.57,0.99c0.32,0.18,0.57,0.04,0.57-0.33s-0.26-0.8-0.57-0.99
			C300.86,342.55,300.61,342.7,300.61,343.06z"/>
		<path class="st4" d="M298.59,341.9c0,0.36,0.26,0.8,0.57,0.99c0.32,0.18,0.57,0.04,0.57-0.33s-0.26-0.8-0.57-0.99
			C298.85,341.39,298.59,341.53,298.59,341.9z"/>
	</g>
	<g>
		<path class="st31" d="M310.53,359.04c0,0.36,0.26,0.8,0.57,0.99c0.32,0.18,0.57,0.04,0.57-0.33c0-0.36-0.26-0.8-0.57-0.99
			C310.79,358.53,310.53,358.67,310.53,359.04z"/>
		<path class="st31" d="M308.52,357.87c0,0.36,0.26,0.8,0.57,0.99c0.32,0.18,0.57,0.04,0.57-0.33c0-0.36-0.26-0.8-0.57-0.99
			C308.77,357.37,308.52,357.51,308.52,357.87z"/>
		<path class="st13" d="M306.5,356.71c0,0.36,0.26,0.8,0.57,0.99c0.32,0.18,0.57,0.04,0.57-0.33c0-0.36-0.26-0.8-0.57-0.99
			C306.76,356.2,306.5,356.35,306.5,356.71z"/>
		<path class="st13" d="M304.49,355.55c0,0.36,0.26,0.8,0.57,0.99c0.32,0.18,0.57,0.04,0.57-0.33c0-0.36-0.26-0.8-0.57-0.99
			C304.75,355.04,304.49,355.19,304.49,355.55z"/>
		<path class="st13" d="M302.48,354.39c0,0.36,0.26,0.8,0.57,0.99c0.32,0.18,0.57,0.04,0.57-0.33c0-0.36-0.26-0.8-0.57-0.99
			C302.73,353.88,302.48,354.02,302.48,354.39z"/>
		<path class="st31" d="M300.46,353.22c0,0.36,0.26,0.8,0.57,0.99c0.32,0.18,0.57,0.04,0.57-0.33c0-0.36-0.26-0.8-0.57-0.99
			C300.72,352.71,300.46,352.86,300.46,353.22z"/>
		<path class="st31" d="M298.45,352.06c0,0.36,0.26,0.8,0.57,0.99c0.32,0.18,0.57,0.04,0.57-0.33c0-0.36-0.26-0.8-0.57-0.99
			C298.7,351.55,298.45,351.7,298.45,352.06z"/>
	</g>
</g>
<g>
	<g>
		<g>
			<path class="st24" d="M251.52,230.33c0.64-0.25,1.4-0.38,1.84-0.84c0.37-0.39,0.43-0.95,0.84-1.31c1.01-0.9,2.98,0.13,4.24-0.5
				c0.33-0.17,0.59-0.44,0.94-0.56c1.23-0.41,2.34,1.2,3.64,0.99c0.35-0.06,0.68-0.25,1.03-0.23c0.3,0.01,0.57,0.17,0.79,0.35
				c0.46,0.35,0.91,0.93,1.22,1.58c0.29,0.12,0.53,0.27,0.68,0.5c0.14,0.21,0.18,0.45,0.19,0.68c0.04,0.74-0.25,1.62-0.77,2.39
				c-0.07,0.34-0.19,0.67-0.36,0.99c-0.45,0.86-1.21,1.64-1.91,2.08c-0.34,0.22-0.7,0.42-1.05,0.63v1.23c0,0.26-0.25,0.47-0.56,0.47
				c-0.13,0-0.24-0.04-0.33-0.1c0.02-0.12,0.03-0.25,0.03-0.38c0-0.89-0.47-1.61-1.04-1.61c-0.57,0-1.04,0.72-1.04,1.61
				c0,0.47,0.13,0.89,0.34,1.19c-0.36,0.66-0.63,1.36-1.06,1.98c-0.62,0.87-1.85,1.56-2.86,1.1c-0.16-0.07-0.33-0.19-0.5-0.33
				c-0.22-0.18-0.45-0.4-0.66-0.68c-0.17-0.06-0.33-0.14-0.45-0.27c-0.2-0.23-0.26-0.52-0.44-0.76c-0.43-0.56-1.48-0.72-1.68-1.36
				c-0.12-0.4,0.15-0.82,0.04-1.22c-0.17-0.62-1.14-0.86-1.46-1.44c-0.3-0.55,0.09-1.18,0.23-1.78c0.24-1.03-0.31-2.06-0.83-3.01
				C250.27,231.18,250.89,230.59,251.52,230.33z"/>
			<path class="st35" d="M256.33,242.56c1.01,0.46,2.24-0.23,2.86-1.1c0.44-0.62,0.71-1.32,1.06-1.98
				c-0.21-0.29-0.34-0.72-0.34-1.19c0-0.89,0.47-1.61,1.04-1.61c0.57,0,1.04,0.72,1.04,1.61c0,0.13-0.01,0.26-0.03,0.38
				c0.09,0.06,0.2,0.1,0.33,0.1c0.31,0,0.57-0.21,0.57-0.47v-1.23c0.35-0.21,0.71-0.42,1.05-0.63c0.7-0.44,1.46-1.22,1.91-2.08v3.93
				c0,2.64-2.42,4.81-5.5,5.05c0.04,1.65,0.08,3.31,0.12,4.96c0.04,1.54-4.42,1.53-4.46,0c-0.05-2.03-0.1-4.05-0.15-6.08
				C256,242.36,256.17,242.48,256.33,242.56z"/>
		</g>
		<g>
			<path class="st24" d="M236.32,261.85c0.77-0.8,1.54-1.6,2.31-2.4c0.73-0.76,1.46-1.52,2.19-2.28c2.42-2.52,4.85-5.05,7.27-7.57
				c2.38-2.48,6.53,1.04,4.17,3.49c-2.46,2.56-4.92,5.12-7.37,7.67c-0.65,0.68-1.31,1.36-1.96,2.04c-0.38,0.4-0.77,0.8-1.15,1.2
				c3.99,8.3,7.98,16.61,11.98,24.91c1.42,2.95-4.29,4.22-5.69,1.31c-4.16-8.66-8.33-17.32-12.49-25.98
				C235.15,263.4,235.7,262.49,236.32,261.85z"/>
			<path class="st0" d="M270.89,364.29c-1.71-0.83-4.72-0.72-6.7,0.23l-2.6,1.26c-1.97,0.95-2.19,2.41-0.48,3.23
				c1.71,0.83,4.72,0.72,6.7-0.23l2.6-1.26C272.39,366.57,272.6,365.11,270.89,364.29z"/>
			<path class="st0" d="M258.7,355.86c-1.71-0.83-4.72-0.72-6.7,0.23l-2.6,1.26c-1.97,0.95-2.19,2.41-0.48,3.23
				c1.71,0.83,4.72,0.72,6.7-0.23l2.6-1.26C260.2,358.14,260.41,356.69,258.7,355.86z"/>
			<path class="st36" d="M268.75,297.57c0.31-5.08-9.13-5.06-9.44,0c-0.12,1.98-0.22,3.96-0.33,5.94l-4.53-2.19
				c-0.16-2.96-0.32-5.91-0.49-8.87c-0.29-5.06-9.73-5.09-9.44,0c1.23,21.23,2.24,42.45,2.58,63.7c0.08,5.08,9.52,5.09,9.44,0
				c-0.25-16.28-0.91-32.54-1.76-48.8l3.92,1.89c-0.83,18.3-0.97,36.6-0.31,54.93c0.18,5.07,9.62,5.09,9.44,0
				C267.03,341.94,267.39,319.77,268.75,297.57z"/>
			<path class="st24" d="M268.7,257.83c-0.14-2.64-1.39-5.14-3.53-6.71c-3.33-2.44-8.12-3.89-12.7-3.73
				c-5.36,0.2-7.31,6.34-8.11,11.88v35.84c0.89,3.88,3.66,5.8,14.81,10.72c1.79,0.79,3.79,1.28,5.81,1.35
				c2.01,0.06,2.8-1.04,3.93-2.48c1-1.29,0.23-6.52,0.2-8.06C268.82,283.61,269.2,267.56,268.7,257.83z"/>
		</g>
	</g>
	<path class="st37" d="M284.19,247.75c-0.3-0.17-0.54-0.59-0.54-0.93l0.01-4.35c-0.86-0.6-1.7-1.51-2.36-2.64
		c-1.53-2.63-1.53-5.48,0.01-6.36c1.54-0.87,4.04,0.55,5.57,3.19c1.53,2.63,1.53,5.48-0.01,6.36c-0.6,0.34-1.34,0.33-2.12,0.04
		l-0.01,4.39C284.74,247.78,284.49,247.92,284.19,247.75z M281.98,239.44c1.16,1.99,3.05,3.07,4.21,2.41
		c1.17-0.66,1.17-2.82,0.01-4.81c-1.16-1.99-3.05-3.07-4.21-2.41C280.82,235.29,280.82,237.45,281.98,239.44z"/>
	<path class="st35" d="M283.11,251.75l3.04-1.75c0.96-0.55,1.75-2.05,1.75-3.33c0-1.28-0.79-1.87-1.75-1.32l-3.04,1.75
		c-0.96,0.55-1.75,2.05-1.75,3.33C281.36,251.71,282.14,252.3,283.11,251.75z"/>
	<g>
		<path class="st24" d="M284.96,251.79c-3.28,7.09-6.57,14.18-9.85,21.27c-0.78,1.68-3.67,1.68-4.44,0c-2.55-5.5-5.1-11-7.64-16.5
			c-1.38-2.97,3.06-5.58,4.44-2.58c2.55,5.5,5.1,11,7.64,16.5c-1.48,0-2.96,0-4.44,0c3.28-7.09,6.57-14.18,9.85-21.27
			C281.9,246.21,286.34,248.81,284.96,251.79L284.96,251.79z"/>
	</g>
</g>
<g>
	<path class="st38" d="M115.98,246.27c-1.7-0.82-4.7-0.71-6.66,0.23l-2.59,1.24c-1.96,0.94-2.18,2.38-0.48,3.2
		c1.7,0.82,4.7,0.71,6.66-0.23l2.59-1.24C117.46,248.52,117.68,247.08,115.98,246.27z"/>
	<path class="st38" d="M101.82,237.17c-1.7-0.82-4.7-0.71-6.66,0.23l-2.59,1.24c-1.96,0.94-2.18,2.38-0.48,3.2
		c1.7,0.82,4.7,0.71,6.66-0.23l2.59-1.24C103.31,239.43,103.52,237.99,101.82,237.17z"/>
	<g>
		<path class="st4" d="M115.45,213.66c0-0.01-11.34-22.95-11.34-22.95l-1.66-0.56c-1.28-4.42-2.87-8.74-4.8-12.9
			c-2.18-4.69,6.89-6.73,9.05-2.08c5.59,12.02,8.41,25.22,9.01,38.48l-0.28,0.02C115.44,213.66,115.45,213.66,115.45,213.66z"/>
		<path class="st20" d="M115.43,213.67l0.28-0.02c0.52,11.33-1.44,22.78-3.88,33.47c-1.13,4.93-6.79,3.78-5.67-1.14
			c2.28-10,3.18-21.57,2.64-32.15C113.62,214.05,115.23,213.7,115.43,213.67z"/>
		<g>
			<path class="st20" d="M85.55,203.27c2.79,3.56,5,4.69,8.24,6.97c1,8.6,2.94,17.82,3.94,26.41c0.58,5-5.8,5.46-6.38,0.49
				c-1.36-11.73-4.69-22.93-5.94-33.97L85.55,203.27C85.55,203.27,85.55,203.27,85.55,203.27z"/>
			<path class="st4" d="M91.39,174.53c0.48,4.13,0.96,8.26,1.44,12.39l-0.85-0.28l-6.65-2.77l0.2,19.37
				c0.02,0.03-0.12-0.07-0.12-0.07c-0.96-8.52-1.93-17.1-2.98-26.16C81.85,172.01,90.81,169.56,91.39,174.53z"/>
			<path class="st4" d="M102.45,190.15c2.23,7.67,3.49,15.63,3.9,23.62c-3.26-0.31-7.04-1.06-10.71-2.67
				c-0.94-8.06-1.87-16.12-2.81-24.18L102.45,190.15z"/>
			<path class="st4" d="M85.55,203.27l0.15,0.11L85.55,203.27c-0.02-0.03-0.22-19.4-0.22-19.4l6.65,2.77l0.85,0.28
				c0.94,8.06,1.87,16.12,2.81,24.18C91.96,209.49,88.39,207.03,85.55,203.27z"/>
			<path class="st39" d="M85.55,203.27c0,0,0.15,0.11,0.15,0.11L85.55,203.27z"/>
		</g>
		<path class="st4" d="M104.11,190.71l11.34,22.94l-0.06,0l0.06,0c-0.02,0.01-0.18,0.02-0.18,0.02l0.17-0.01
			c-0.2,0.03-4.02,0.59-9.08,0.1c-0.4-7.98-1.67-15.95-3.9-23.62L104.11,190.71z"/>
		<path class="st4" d="M115.26,213.68l0.17-0.01L115.26,213.68z"/>
	</g>
	<path class="st20" d="M145.44,163.09c1.26-0.76,3.05-0.53,3.96,0.52c0.92,1.05,0.63,2.53-0.63,3.3l-3.64,2.2
		c-1.26,0.76-3.04,0.53-3.96-0.52c-0.92-1.05-0.63-2.53,0.63-3.3L145.44,163.09z"/>
	<path class="st4" d="M93.18,187.88l10.01,4.81c1.44,0.69,2.62-0.05,2.62-1.65c0-1.6-1.18-3.47-2.62-4.16l-10.01-4.81
		c-1.44-0.69-2.62,0.05-2.62,1.65C90.56,185.31,91.74,187.19,93.18,187.88z"/>
	<path class="st5" d="M89.22,162.94c-0.74,3-8.04,8.35-6.79,14.08c1.04,4.74,21.82,18,25.5,7.99c3.62-9.85-1.45-15.45-0.93-20.52
		c0.82-7.94,5.19-8.19,5.09-22.91c-0.04-4.8-3.94-12.69-10.78-11.82C96.71,130.33,96.92,131.83,89.22,162.94z"/>
	<g>
		<path class="st5" d="M141.5,169.57c-6.95-3.31-14.08-6.45-20.89-9.95c-9.26-4.77-12.02-13.54-15.96-21.46
			c-1.44-2.9,4.23-4.17,5.66-1.3c3.43,6.89,5.76,14.68,13.81,18.8c6.65,3.4,13.57,6.47,20.34,9.69
			C147.74,166.91,144.79,171.13,141.5,169.57L141.5,169.57z"/>
	</g>
	<path class="st20" d="M107.48,133.84c1.19-0.57,1.04-1.57-0.33-2.23l-1.72-0.83c-1.37-0.66-3.46-0.73-4.64-0.16
		c-1.19,0.57-1.04,1.57,0.33,2.23l1.72,0.83C104.2,134.34,106.29,134.41,107.48,133.84z"/>
	<g>
		<g>
			<path class="st20" d="M101,131.8l4.97,1.06c0.02-0.06,0.05-0.11,0.07-0.17c0.5-2.62,1-5.24,1.51-7.87
				c0.35-1.8-4.69-2.88-5.03-1.08c-0.5,2.62-1,5.24-1.51,7.87C100.99,131.68,101,131.74,101,131.8z"/>
		</g>
		<path class="st20" d="M104.1,126.23c-0.46-0.1-0.86-0.38-1.09-0.75c-1.71-2.77-0.63-7.35,1.53-10.23
			c1.42-1.89,2.49-2.66,6.34-1.95c0.97,0.18,3.67,0.55,4.41,1.9c0.26,0.18,0.51,0.35,0.75,0.54l-1.41,6.55
			c-0.71,3.28-4.35,5.28-8.13,4.47L104.1,126.23z"/>
		<path class="st13" d="M112.94,119.65c-1.42,0.55-2.98,0.92-4.12,1.89c-0.97,0.82-1.54,1.98-2.46,2.84
			c-0.92,0.87-2.48,1.38-3.51,0.59c-2.05-1.56-3.52-9.29,0.15-13.04c2.57-2.63,11.13-0.32,12.93,1.94
			C117.77,116.17,114.98,118.87,112.94,119.65z"/>
		<path class="st20" d="M107.97,120.85c-0.22,1.04,0.12,2,0.77,2.13c0.65,0.14,1.36-0.59,1.58-1.63c0.22-1.04-0.12-2-0.77-2.13
			C108.91,119.08,108.2,119.81,107.97,120.85z"/>
	</g>
	<path class="st13" d="M94.65,121.03c-3.37,1.42-7.46,2.46-9.1,5.29c-1.36,2.36-0.52,5.2-1.36,7.72c-1.25,3.75-5.86,6.01-8.12,9.42
		c-2.93,4.43-1.03,10.56,3.95,13.45c4.99,2.89,12.34,2.34,16.83-1.06c4.49-3.4,5.87-9.26,3.54-13.93c-0.99-1.98-2.57-3.74-3.5-5.75
		c-0.94-2-1.13-4.47,0.51-6.13c0.88-0.9,2.24-1.51,2.71-2.6c0.63-1.48-0.66-3.07-0.49-4.63c0.16-1.51,4.06-4.47,2.16-5.58
		C99.85,116.13,96.24,120.36,94.65,121.03z"/>
</g>
</svg>
