<?xml version="1.0" encoding="utf-8"?>
<!-- Generator: Adobe Illustrator 26.4.1, SVG Export Plug-In . SVG Version: 6.00 Build 0)  -->
<svg version="1.1" id="_x2014_ÎÓÈ_x5F_1" xmlns="http://www.w3.org/2000/svg" xmlns:xlink="http://www.w3.org/1999/xlink"
	 x="0px" y="0px" viewBox="0 0 309.2 269.1" style="enable-background:new 0 0 309.2 269.1;" xml:space="preserve">
<style type="text/css">
	.st0{fill:#F0F0FC;}
	.st1{fill:url(#SVGID_1_);}
	.st2{fill:#FFFFFF;}
	.st3{fill:#CBD3EF;}
	.st4{fill:#5074F9;}
	.st5{fill:#324896;}
	.st6{fill:#27317A;}
	.st7{fill:url(#SVGID_00000099661750823184839400000017287938748038636452_);}
	.st8{fill:url(#SVGID_00000114036343187586037530000001612489063479348908_);}
	.st9{fill:#FF7A93;}
	.st10{fill:#232F6D;}
	.st11{opacity:0.6;}
	.st12{fill:#9FAFFC;}
	.st13{fill:url(#SVGID_00000170254309204608963090000011292825346724600214_);}
	.st14{fill:#89635C;}
	.st15{fill:#284CF9;}
	.st16{fill:url(#SVGID_00000076598711844198909470000002124627654159436470_);}
	.st17{fill:url(#SVGID_00000161600541811221074910000008544202074322589352_);}
	.st18{fill:#212D60;}
	.st19{fill:#FF55A2;}
	.st20{fill:url(#SVGID_00000133489046676575476170000014891085477674976644_);}
	.st21{fill:url(#SVGID_00000018924153794697960490000004980732981117001396_);}
	.st22{fill:#485DB5;}
	.st23{fill:#F74B9D;}
	.st24{opacity:0.2;fill:#9FAFFC;enable-background:new    ;}
	.st25{fill:#9FAFFC;fill-opacity:0;}
	.st26{fill:url(#SVGID_00000160896190390722981920000011739450571051149987_);}
	.st27{fill:#FFE115;}
	.st28{fill:#D8418D;}
	.st29{opacity:0.43;fill:#6878D4;enable-background:new    ;}
	.st30{fill:url(#SVGID_00000088091468151813595480000011116284108370493360_);}
	.st31{fill:url(#SVGID_00000147907458265535139420000008975652860016156078_);}
	.st32{fill:url(#SVGID_00000039099941088402271190000016371568431297226427_);}
	.st33{fill:url(#SVGID_00000027599023237977735900000013275907645955766922_);}
	.st34{fill:url(#SVGID_00000145015953441721093100000001084546820896397237_);}
	.st35{fill:url(#SVGID_00000005231864958055609190000006034650362552048523_);}
	.st36{fill:#CCCCCC;}
	.st37{fill:#D8F1F5;}
	.st38{fill:url(#SVGID_00000026864922266359546030000007969049793722601871_);}
	.st39{fill:url(#SVGID_00000111176473711293117010000011569235829259369115_);}
	.st40{fill:url(#SVGID_00000091718347177384750800000004915847115909481094_);}
	.st41{fill:url(#SVGID_00000002380577654121842940000016308453102682740141_);}
	.st42{fill:url(#SVGID_00000145756439813126498840000004767177927719436990_);}
	.st43{fill:url(#SVGID_00000161595540429425605430000009844558706447293091_);}
	.st44{fill:url(#SVGID_00000119091771152999597080000017249863060555325087_);}
	.st45{fill:url(#SVGID_00000133491866321128934980000010301428432834463635_);}
	.st46{fill:url(#SVGID_00000148627422917798474960000012263685357153431726_);}
	.st47{fill:url(#SVGID_00000154413373109314644590000008962310728531816865_);}
	.st48{fill:url(#SVGID_00000171717388705276809000000014371727830089140880_);}
	.st49{fill:url(#SVGID_00000174588454862097357700000010263475585666864782_);}
	.st50{fill:url(#SVGID_00000067956977520818136570000013365001780230061471_);}
	.st51{fill:url(#SVGID_00000067231439657961318980000002959269808686517903_);}
	.st52{fill:url(#SVGID_00000074407016240045678330000015153364148012307901_);}
	.st53{fill:url(#SVGID_00000173151435070905400150000003101866953766524846_);}
	.st54{fill:url(#SVGID_00000018916301989654740210000006988351688804287935_);}
	.st55{fill:url(#SVGID_00000153673434363557951080000017765108064684148914_);}
	.st56{fill:url(#SVGID_00000136399527545108116470000015159223254226782365_);}
	.st57{fill:url(#SVGID_00000072991849709562086560000006183010627304781988_);}
	.st58{fill:url(#SVGID_00000128468931417740974010000005361127434017707140_);}
	.st59{fill:url(#SVGID_00000083774470273033910110000007284849075527668618_);}
	.st60{fill:url(#SVGID_00000077286905305227946300000004310964147705879730_);}
	.st61{fill:url(#SVGID_00000164492871652531026530000009787969414519733406_);}
	.st62{fill:url(#SVGID_00000105414744314256424480000013207719152488601246_);}
	.st63{fill:url(#SVGID_00000033333362204931347290000006421546729219862414_);}
	.st64{fill:url(#SVGID_00000126304117735482325130000008796792969380977054_);}
	.st65{fill:url(#SVGID_00000003079286575657825900000013991225330020945831_);}
</style>
<g>
	<g>
		<path class="st0" d="M216.7,264.2l-23.9-13.8c-1.4-0.8-1.4-2.7,0-3.5l24.1-13.8c2-1.1,4.4-1.1,6.4,0l24.4,14
			c1.3,0.8,1.3,2.6,0,3.4l-23.9,13.7C221.6,265.4,218.9,265.4,216.7,264.2z"/>
		
			<linearGradient id="SVGID_1_" gradientUnits="userSpaceOnUse" x1="-8734.3057" y1="566.8286" x2="-8793.3154" y2="566.8286" gradientTransform="matrix(1 0 0 1 8988.46 -326)">
			<stop  offset="0.4092" style="stop-color:#B4CCFC"/>
			<stop  offset="0.4618" style="stop-color:#ADC7FB"/>
			<stop  offset="0.5371" style="stop-color:#9AB9F9"/>
			<stop  offset="0.6257" style="stop-color:#7CA1F5"/>
			<stop  offset="0.627" style="stop-color:#7BA1F5"/>
		</linearGradient>
		<path class="st1" d="M192.7,248.7l24.1-13.8c2-1.1,4.4-1.1,6.4,0l24.4,14c0.3,0.2,0.5,0.4,0.7,0.7c0.5-0.9,0.3-2.1-0.7-2.7
			l-24.4-14c-2-1.1-4.4-1.1-6.4,0l-24.1,13.8c-1,0.6-1.3,1.8-0.8,2.7C192.1,249.2,192.4,248.9,192.7,248.7z"/>
	</g>
	<path class="st0" d="M202,104.3l-6.6-3.8c-0.4-0.2-0.4-0.8,0-1l6.7-3.8c0.6-0.3,1.2-0.3,1.8,0l6.8,3.9c0.4,0.2,0.4,0.7,0,0.9
		l-6.6,3.8C203.4,104.7,202.7,104.7,202,104.3z"/>
	<path class="st2" d="M24.1,129.6L13,123.2c-0.6-0.4-0.6-1.3,0-1.6l11.1-6.4c0.9-0.5,2-0.5,3,0l11.3,6.5c0.6,0.3,0.6,1.2,0,1.6
		l-11,6.3C26.3,130.1,25.1,130.1,24.1,129.6z"/>
	<path class="st2" d="M45.3,97.2l-5.4-3.1c-0.3-0.2-0.3-0.6,0-0.8l5.5-3.2c0.5-0.3,1-0.3,1.5,0l5.5,3.2c0.3,0.2,0.3,0.6,0,0.8
		l-5.4,3.1C46.4,97.5,45.8,97.5,45.3,97.2z"/>
	<g>
		<path class="st3" d="M282.1,259.3c0.7,0,1.4-0.2,2.1-0.5l12.3-7.1c0.5-0.3,0.7-0.7,0.7-1.3s-0.3-1-0.7-1.3l-12.5-7.2
			c-1.2-0.7-2.6-0.7-3.8,0l-12.4,7.1c-0.5,0.3-0.8,0.8-0.8,1.3s0.3,1,0.8,1.3l12.3,7.1C280.7,259.1,281.4,259.3,282.1,259.3z
			 M282,242.3c0.5,0,1,0.1,1.4,0.4l12.5,7.2c0.2,0.1,0.3,0.4,0.3,0.5c0,0.1,0,0.3-0.3,0.5l-12.3,7.1c-1,0.6-2.2,0.6-3.2,0l-12.3-7.1
			c-0.3-0.1-0.3-0.4-0.3-0.5s0-0.3,0.3-0.5l12.4-7.1C281,242.4,281.5,242.3,282,242.3z"/>
	</g>
	<g>
		<path class="st3" d="M253.2,228.7c0.4,0,0.9-0.1,1.3-0.3l7-4c0.3-0.2,0.5-0.5,0.5-0.9c0-0.4-0.2-0.7-0.5-0.9l-7.1-4.1
			c-0.7-0.4-1.6-0.4-2.4,0l-7,4.1c-0.3,0.2-0.5,0.5-0.5,0.9s0.2,0.7,0.5,0.9l7,4C252.4,228.6,252.8,228.7,253.2,228.7z M261,223.6
			l-7,4c-0.5,0.3-1.1,0.3-1.6,0l-7-4c0,0-0.1-0.1-0.1-0.1s0-0.1,0.1-0.1l7-4.1c0.4-0.2,1-0.2,1.4,0l7.1,4.1l0.2,0.6L261,223.6z"/>
	</g>
	<g>
		<g>
			<rect x="155.7" y="180.2" class="st0" width="2.3" height="69.4"/>
		</g>
		<g>
			<rect x="210.3" y="147.9" class="st0" width="2.3" height="69.4"/>
		</g>
		<g>
			<rect x="54.8" y="124.8" class="st0" width="2.3" height="69.4"/>
		</g>
		<path class="st4" d="M118.3,219.3c-2.2-1.3-6.2-1.1-8.8,0.4l-3.4,2c-2.6,1.5-2.9,3.8-0.6,5c2.2,1.3,6.2,1.1,8.8-0.4l3.4-2
			C120.3,222.8,120.6,220.6,118.3,219.3z"/>
		<path class="st5" d="M100.6,176.3c0,0.1,0,0.1,0.1,0.2c0.6,2.6,1.2,5.1,1.7,7.7c2.3,11.6,3.4,23.8,1,35.5
			c-1.6,7.7,10.3,11,11.9,3.3c1.5-7.1,3-34.8-2.5-50.6L100.6,176.3z"/>
		<g>
			<path class="st3" d="M83.5,253.5c-1.4,0-2.8-0.4-4.1-1.1l-31.7-18.5c-0.9-0.5-1.5-1.5-1.5-2.6s0.6-2,1.5-2.6L75,213.1l0.9-28.9
				l2.3,0.1l-1,30.2l-28.4,16.3c-0.3,0.2-0.3,0.5-0.3,0.6c0,0.1,0,0.4,0.3,0.6l31.7,18.5c1.8,1,4,1.1,5.8,0l23.3-13.3
				c1.4-0.8,2.3-2.3,2.3-4l0.2-35.5l2.3,0l-0.2,35.5c0,2.5-1.4,4.8-3.5,6l-23.3,13.3C86.3,253.2,84.9,253.5,83.5,253.5z"/>
		</g>
		<path class="st4" d="M140.3,232c-2.2-1.3-6.2-1.1-8.8,0.4l-3.4,2c-2.6,1.5-2.9,3.8-0.6,5c2.2,1.3,6.2,1.1,8.8-0.4l3.4-2
			C142.3,235.5,142.6,233.3,140.3,232z"/>
		<path class="st6" d="M133,187.5c-0.8-2.6-1.7-5.5-2.9-8.1l-10.6,6.7c0.7,1.9,1.3,3.8,1.9,5.7c3.9,13.2,5.2,26.9,2.7,40.5
			c-1.4,7.8,10.5,11.1,11.9,3.3C139,219.4,137.7,203.1,133,187.5z"/>
		<g>
			
				<linearGradient id="SVGID_00000072996441196045857030000004243448399998832048_" gradientUnits="userSpaceOnUse" x1="14215.6514" y1="530.0028" x2="14290.6934" y2="530.0028" gradientTransform="matrix(-1 0 0 1 14342.1611 -326)">
				<stop  offset="0.4092" style="stop-color:#B4CCFC"/>
				<stop  offset="0.4618" style="stop-color:#ADC7FB"/>
				<stop  offset="0.5371" style="stop-color:#9AB9F9"/>
				<stop  offset="0.6257" style="stop-color:#7CA1F5"/>
				<stop  offset="0.627" style="stop-color:#7BA1F5"/>
			</linearGradient>
			<path style="fill:url(#SVGID_00000072996441196045857030000004243448399998832048_);" d="M116.6,192.6l-30.5,17.5
				c-2.8,1.6-6.2,1.6-9,0l-30.4-17.5c-0.6-0.4-1-0.9-1.2-1.5v5.9c0.1,0.7,0.5,1.4,1.2,1.8l30.4,17.5c2.8,1.6,6.2,1.6,9,0l30.5-17.6
				c0.9-0.5,1.3-1.4,1.3-2.2v-5.9C117.8,191.3,117.3,192.1,116.6,192.6z"/>
			<path class="st0" d="M45.5,191.1v-1.2C45.4,190.3,45.4,190.7,45.5,191.1z"/>
			<path class="st0" d="M117.8,190.1v0.4C117.8,190.4,117.8,190.3,117.8,190.1z"/>
			<path class="st2" d="M116.6,188.1l-16.5-9.5l-14.2-8.2c-2.5-1.5-5.7-1.5-8.2,0l-14.2,8.2l-16.8,9.7c-0.6,0.4-1,0.9-1.2,1.5v1.2
				c0.2,0.6,0.5,1.2,1.2,1.5l30.4,17.5c2.8,1.6,6.2,1.6,9,0l30.5-17.6c0.8-0.5,1.2-1.2,1.3-2v-0.4
				C117.8,189.3,117.3,188.6,116.6,188.1z"/>
		</g>
		<path class="st5" d="M96,162.4c-11.2,5.2-21.8,12.2-32.6,18.3c-6.9,3.9-0.7,14.5,6.2,10.6c9.4-5.3,18.8-10.5,28.2-15.8
			c0.6-0.3,2.2-1.5,2.2-1.5s0.7-0.5,0,0c0,0.4,0.3,1.1,0.6,2.3l12.2-3.9C109.8,163.6,104.5,158.4,96,162.4z"/>
		<path class="st6" d="M113.3,171.2c-11.7,5.7-22.8,13.3-34,19.9c-6.9,4-0.6,14.7,6.2,10.6c9.8-5.7,19.6-11.5,29.5-17.2
			c0.9-0.5,2.1-1.5,3.2-2.1c0,0,0.4-0.2,0,0c0.1,0.3,0.4,0.9,0.9,2.1c0.2,0.5,0.3,1,0.5,1.5l10.6-6.7
			C127,172.4,122.1,166.9,113.3,171.2z"/>
		<g>
			
				<linearGradient id="SVGID_00000124123143959748545180000000022992389996037820_" gradientUnits="userSpaceOnUse" x1="-892.9577" y1="476.6947" x2="-697.4623" y2="476.6947" gradientTransform="matrix(-1 0 0 1 -640.5093 -326)">
				<stop  offset="0.4092" style="stop-color:#B4CCFC"/>
				<stop  offset="0.4618" style="stop-color:#ADC7FB"/>
				<stop  offset="0.5371" style="stop-color:#9AB9F9"/>
				<stop  offset="0.6257" style="stop-color:#7CA1F5"/>
				<stop  offset="0.627" style="stop-color:#7BA1F5"/>
			</linearGradient>
			<path style="fill:url(#SVGID_00000124123143959748545180000000022992389996037820_);" d="M100.9,148.2l46.6,27
				c6.1,3.6,13.7,3.6,19.9,0l50.3-32l-0.4,7c0,1.8-1,3.1-2.5,3.9l-47.4,27.6c-6.1,3.5-13.7,3.5-19.9,0l-95.3-55.2
				c-1.6-0.9-2.6-2.7-2.6-4.5v-5.1L100.9,148.2z"/>
			<path class="st0" d="M51.1,114.4l62-35.3L215.4,139c3.3,1.9,3.3,6.7,0,8.6l-47.9,27.6c-6.2,3.6-13.8,3.5-19.9,0l-46.6-27
				l-49.9-28.9C49.2,118.2,49.2,115.5,51.1,114.4z"/>
		</g>
		<path class="st9" d="M111.4,87.1c-1.9-0.4-3.8,0.7-4.2,2.6l-1,4.3c-0.4,1.9,0.8,3.8,2.7,4.2c1.9,0.4,3.8-0.7,4.2-2.6l1-4.3
			C114.5,89.4,113.3,87.5,111.4,87.1z"/>
		<g>
			<polygon class="st2" points="85.5,98.8 107.7,86.1 112.5,83.3 128.3,92.4 106.1,105.1 101.3,107.9 			"/>
			<path class="st10" d="M119.9,88.1l-2.9-1.7c-0.3-0.2-0.2-0.4,0.1-0.6c0.3-0.2,0.8-0.2,1,0l2.9,1.7c0.3,0.2,0.2,0.4-0.1,0.6
				C120.6,88.2,120.2,88.2,119.9,88.1z"/>
			<g class="st11">
				<g>
					<g>
						<path class="st12" d="M114.3,88.7c-0.1,0-0.1-0.1,0-0.1c0.1,0,0.2,0,0.2,0c0.1,0,0.1,0.1,0,0.1
							C114.5,88.8,114.4,88.8,114.3,88.7z"/>
						<path class="st12" d="M113.7,89.1c-0.1,0-0.1-0.1,0-0.1c0.1,0,0.2,0,0.2,0c0.1,0,0.1,0.1,0,0.1
							C113.9,89.1,113.8,89.1,113.7,89.1z"/>
						<path class="st12" d="M113.1,89.4c-0.1,0-0.1-0.1,0-0.1c0.1,0,0.2,0,0.2,0c0.1,0,0.1,0.1,0,0.1
							C113.3,89.4,113.2,89.4,113.1,89.4z"/>
						<path class="st12" d="M112.6,89.7c-0.1,0-0.1-0.1,0-0.1c0.1,0,0.2,0,0.2,0c0.1,0,0.1,0.1,0,0.1
							C112.7,89.8,112.6,89.8,112.6,89.7z"/>
						<path class="st12" d="M112,90.1c-0.1,0-0.1-0.1,0-0.1c0.1,0,0.2,0,0.2,0c0.1,0,0.1,0.1,0,0.1C112.1,90.1,112,90.1,112,90.1z"
							/>
						<path class="st12" d="M111.4,90.4c-0.1,0-0.1-0.1,0-0.1c0.1,0,0.2,0,0.2,0c0.1,0,0.1,0.1,0,0.1
							C111.6,90.4,111.4,90.4,111.4,90.4z"/>
						<path class="st12" d="M110.8,90.7c-0.1,0-0.1-0.1,0-0.1c0.1,0,0.2,0,0.2,0c0.1,0,0.1,0.1,0,0.1
							C111,90.8,110.9,90.8,110.8,90.7z"/>
						<path class="st12" d="M110.2,91.1c-0.1,0-0.1-0.1,0-0.1c0.1,0,0.2,0,0.2,0c0.1,0,0.1,0.1,0,0.1
							C110.4,91.1,110.3,91.1,110.2,91.1z"/>
						<path class="st12" d="M109.6,91.4c-0.1,0-0.1-0.1,0-0.1c0.1,0,0.2,0,0.2,0c0.1,0,0.1,0.1,0,0.1
							C109.8,91.5,109.7,91.5,109.6,91.4z"/>
						<path class="st12" d="M109.1,91.8c-0.1,0-0.1-0.1,0-0.1c0.1,0,0.2,0,0.2,0c0.1,0,0.1,0.1,0,0.1
							C109.2,91.8,109.1,91.8,109.1,91.8z"/>
					</g>
				</g>
				<polygon class="st12" points="117.5,90.7 115.2,89.4 115.5,89.2 117.7,90.5 				"/>
				<polygon class="st12" points="116.9,91 114.7,89.7 115,89.6 117.2,90.8 				"/>
				<polygon class="st12" points="116.4,91.3 114.1,90 114.4,89.9 116.6,91.1 				"/>
				<polygon class="st12" points="117.6,92.7 113.6,90.4 113.9,90.2 117.9,92.5 				"/>
				<polygon class="st12" points="115.8,92.8 113.6,91.5 113.9,91.3 116.1,92.6 				"/>
				<polygon class="st12" points="115.2,93.1 113,91.8 113.3,91.7 115.5,92.9 				"/>
				<polygon class="st12" points="114.7,93.4 112.5,92.1 112.8,92 115,93.3 				"/>
				<polygon class="st12" points="121.9,92.9 118,90.7 117.7,90.8 121.6,93.1 				"/>
				<polygon class="st12" points="121.3,93.2 117.5,91 117.2,91.2 121.1,93.4 				"/>
				<polygon class="st12" points="120.8,93.6 116.9,91.3 116.6,91.5 120.5,93.7 				"/>
				<polygon class="st12" points="120.2,93.9 118.6,92.9 118.3,93.1 120,94 				"/>
				<polygon class="st12" points="119.2,94.5 116.3,92.8 116.1,92.9 119,94.6 				"/>
				<polygon class="st12" points="118.7,94.8 115.8,93.1 115.5,93.3 118.4,94.9 				"/>
				<polygon class="st12" points="118.1,95.1 115.2,93.4 115,93.6 117.9,95.2 				"/>
				<polygon class="st12" points="115.2,94.5 113,93.2 113.3,93.1 115.5,94.3 				"/>
				<polygon class="st12" points="117.5,95.5 115.8,94.5 115.5,94.7 117.2,95.6 				"/>
				<polygon class="st12" points="116.9,95.8 112.7,93.4 112.5,93.5 116.6,95.9 				"/>
				<polygon class="st12" points="116.4,96.1 112.2,93.7 111.9,93.9 116.1,96.3 				"/>
				<polygon class="st12" points="113.5,88.1 111.7,87 111.4,87.2 113.2,88.3 				"/>
				<polygon class="st12" points="113,88.4 111.2,87.4 110.9,87.5 112.7,88.6 				"/>
				<polygon class="st12" points="111.9,89 109.2,87.5 108.9,87.6 111.6,89.2 				"/>
				<polygon class="st12" points="108.1,88 107.9,88.2 110,89.4 110.3,89.3 				"/>
				<polygon class="st12" points="110.8,86.5 110.5,86.7 111.2,87 111.4,86.9 				"/>
				<polygon class="st12" points="110.3,86.8 110,87 110.6,87.4 110.9,87.2 				"/>
				<polygon class="st12" points="106.4,89.1 106.1,89.2 107,89.8 107.3,89.6 				"/>
				<polygon class="st12" points="105.8,89.4 105.5,89.5 106.5,90.1 106.7,89.9 				"/>
			</g>
			<g class="st11">
				<g>
					<g>
						<path class="st12" d="M108.2,92.3c-0.1,0-0.1-0.1,0-0.1c0.1,0,0.2,0,0.2,0c0.1,0,0.1,0.1,0,0.1
							C108.3,92.3,108.2,92.3,108.2,92.3z"/>
						<path class="st12" d="M107.6,92.6c-0.1,0-0.1-0.1,0-0.1c0.1,0,0.2,0,0.2,0c0.1,0,0.1,0.1,0,0.1
							C107.8,92.7,107.7,92.7,107.6,92.6z"/>
						<path class="st12" d="M107,93c-0.1,0-0.1-0.1,0-0.1c0.1,0,0.2,0,0.2,0c0.1,0,0.1,0.1,0,0.1C107.2,93,107.1,93,107,93z"/>
						<path class="st12" d="M106.4,93.3c-0.1,0-0.1-0.1,0-0.1c0.1,0,0.2,0,0.2,0c0.1,0,0.1,0.1,0,0.1
							C106.6,93.3,106.5,93.3,106.4,93.3z"/>
						<path class="st12" d="M105.8,93.7c-0.1,0-0.1-0.1,0-0.1c0.1,0,0.2,0,0.2,0c0.1,0,0.1,0.1,0,0.1
							C106,93.7,105.9,93.7,105.8,93.7z"/>
						<path class="st12" d="M105.3,94c-0.1,0-0.1-0.1,0-0.1c0.1,0,0.2,0,0.2,0c0.1,0,0.1,0.1,0,0.1C105.4,94,105.3,94,105.3,94z"/>
						<path class="st12" d="M104.7,94.3c-0.1,0-0.1-0.1,0-0.1c0.1,0,0.2,0,0.2,0c0.1,0,0.1,0.1,0,0.1
							C104.8,94.4,104.7,94.4,104.7,94.3z"/>
						<path class="st12" d="M104.1,94.7c-0.1,0-0.1-0.1,0-0.1c0.1,0,0.2,0,0.2,0c0.1,0,0.1,0.1,0,0.1
							C104.3,94.7,104.1,94.7,104.1,94.7z"/>
						<path class="st12" d="M103.5,95c-0.1,0-0.1-0.1,0-0.1c0.1,0,0.2,0,0.2,0c0.1,0,0.1,0.1,0,0.1C103.7,95,103.6,95,103.5,95z"/>
						<path class="st12" d="M102.9,95.3c-0.1,0-0.1-0.1,0-0.1c0.1,0,0.2,0,0.2,0c0.1,0,0.1,0.1,0,0.1
							C103.1,95.4,103,95.4,102.9,95.3z"/>
					</g>
				</g>
				<polygon class="st12" points="111.3,94.2 109.1,93 109.4,92.8 111.6,94.1 				"/>
				<polygon class="st12" points="110.8,94.6 108.6,93.3 108.9,93.1 111.1,94.4 				"/>
				<polygon class="st12" points="110.2,94.9 108,93.6 108.3,93.4 110.5,94.7 				"/>
				<polygon class="st12" points="111.5,96.2 107.5,93.9 107.7,93.8 111.7,96.1 				"/>
				<polygon class="st12" points="109.7,96.4 107.5,95.1 107.7,94.9 109.9,96.2 				"/>
				<polygon class="st12" points="109.1,96.7 106.9,95.4 107.2,95.2 109.4,96.5 				"/>
				<polygon class="st12" points="108.6,97 106.4,95.7 106.6,95.6 108.8,96.8 				"/>
				<polygon class="st12" points="115.8,96.5 111.9,94.2 111.6,94.4 115.5,96.7 				"/>
				<polygon class="st12" points="115.2,96.8 111.3,94.6 111.1,94.7 114.9,97 				"/>
				<polygon class="st12" points="114.7,97.1 110.8,94.9 110.5,95 114.4,97.3 				"/>
				<polygon class="st12" points="114.1,97.4 112.5,96.5 112.2,96.7 113.8,97.6 				"/>
				<polygon class="st12" points="113.1,98 110.2,96.4 109.9,96.5 112.8,98.2 				"/>
				<polygon class="st12" points="112.6,98.3 109.7,96.7 109.4,96.8 112.3,98.5 				"/>
				<polygon class="st12" points="112,98.7 109.1,97 108.8,97.2 111.7,98.8 				"/>
				<polygon class="st12" points="109.1,98.1 106.9,96.8 107.2,96.6 109.4,97.9 				"/>
				<polygon class="st12" points="111.4,99 109.7,98.1 109.4,98.2 111.1,99.2 				"/>
				<polygon class="st12" points="110.8,99.4 106.6,97 106.3,97.1 110.5,99.5 				"/>
				<polygon class="st12" points="110.2,99.7 106.1,97.3 105.8,97.4 110,99.8 				"/>
				<polygon class="st12" points="107.4,91.7 105.6,90.6 105.3,90.8 107.1,91.8 				"/>
				<polygon class="st12" points="106.8,92 105,90.9 104.8,91.1 106.6,92.1 				"/>
				<polygon class="st12" points="105.7,92.6 103,91 102.7,91.2 105.5,92.8 				"/>
				<polygon class="st12" points="102,91.6 101.7,91.8 103.9,93 104.1,92.9 				"/>
				<polygon class="st12" points="104.7,90.1 104.4,90.3 105,90.6 105.3,90.5 				"/>
				<polygon class="st12" points="104.1,90.4 103.9,90.6 104.5,90.9 104.8,90.8 				"/>
				<polygon class="st12" points="100.2,92.6 100,92.8 100.9,93.3 101.2,93.2 				"/>
				<polygon class="st12" points="99.7,93 99.4,93.1 100.3,93.6 100.6,93.5 				"/>
			</g>
		</g>
		<g>
			<g>
				
					<linearGradient id="SVGID_00000153705759112474435970000017101315649097060757_" gradientUnits="userSpaceOnUse" x1="-810.306" y1="462.4776" x2="-736.2247" y2="462.4776" gradientTransform="matrix(-1 0 0 1 -640.5093 -326)">
					<stop  offset="0.4092" style="stop-color:#B4CCFC"/>
					<stop  offset="0.4618" style="stop-color:#ADC7FB"/>
					<stop  offset="0.5371" style="stop-color:#9AB9F9"/>
					<stop  offset="0.6257" style="stop-color:#7CA1F5"/>
					<stop  offset="0.627" style="stop-color:#7BA1F5"/>
				</linearGradient>
				<path style="fill:url(#SVGID_00000153705759112474435970000017101315649097060757_);" d="M95.7,120.7l48.2,28.2
					c1.4,0.9,3.2,0.9,4.7,0l16.5-11v3.4c0,0.7-0.4,1.4-1,1.8l-14.8,8.4c-1.9,1.1-4.2,1.1-6.1,0l-46.5-26.6c-0.6-0.3-0.9-0.9-0.9-1.6
					L95.7,120.7L95.7,120.7z"/>
				<g>
					<path class="st2" d="M96.2,120.1l17.9-10.2c1.6-0.9,3.6-0.9,5.2,0l44.9,26.5c1.4,0.8,1.4,2.8,0,3.6l-15.6,8.9
						c-1.4,0.8-3.1,0.8-4.5,0l-47.8-27.3C95.6,121.3,95.6,120.5,96.2,120.1z"/>
				</g>
			</g>
			<g>
				<g>
					<path class="st3" d="M116.1,111.3c0.4-0.2,1.1-0.2,1.6,0c0.4,0.2,0.4,0.7,0,0.9c-0.4,0.2-1.1,0.2-1.6,0
						C115.7,111.9,115.7,111.5,116.1,111.3z"/>
				</g>
				<g>
					<path class="st3" d="M118.3,112.6c0.4-0.2,1.1-0.2,1.6,0c0.4,0.2,0.4,0.7,0,0.9c-0.4,0.2-1.1,0.2-1.6,0
						C117.9,113.2,117.9,112.8,118.3,112.6z"/>
				</g>
				<g>
					<path class="st3" d="M120.5,113.8c0.4-0.2,1.1-0.2,1.6,0c0.4,0.2,0.4,0.7,0,0.9c-0.4,0.2-1.1,0.2-1.6,0
						C120.1,114.5,120.1,114.1,120.5,113.8z"/>
				</g>
			</g>
			<g>
				<g>
					<g>
						<polygon class="st3" points="113.9,113.6 117.1,115.4 113.9,117.2 110.7,115.4 						"/>
					</g>
					<g>
						<polygon class="st3" points="120.9,117.6 117.7,119.4 114.5,117.6 117.7,115.8 						"/>
					</g>
					<g>
						<polygon class="st3" points="124.6,119.8 121.5,121.6 118.3,119.8 121.5,117.9 						"/>
					</g>
					<g>
						<polygon class="st3" points="128.4,121.9 125.3,123.8 122.1,121.9 125.2,120.1 						"/>
					</g>
					<g>
						<polygon class="st3" points="132.2,124.1 129.1,125.9 125.9,124.1 129,122.3 						"/>
					</g>
					<g>
						<polygon class="st3" points="136,126.3 132.8,128.1 129.6,126.3 132.8,124.5 						"/>
					</g>
					<g>
						<polygon class="st3" points="139.8,128.5 136.6,130.3 133.4,128.5 136.6,126.6 						"/>
					</g>
					<g>
						<polygon class="st3" points="143.6,130.6 140.4,132.5 137.2,130.6 140.4,128.8 						"/>
					</g>
					<g>
						<polygon class="st3" points="147.4,132.8 144.2,134.6 141,132.8 144.2,131 						"/>
					</g>
					<g>
						<polygon class="st3" points="151.1,135 148,136.8 144.8,135 147.9,133.2 						"/>
					</g>
					<g>
						<polygon class="st3" points="154.9,137.2 151.8,139 148.6,137.1 151.7,135.3 						"/>
					</g>
					<g>
						<polygon class="st3" points="158.7,139.3 155.5,141.2 152.4,139.3 155.5,137.5 						"/>
					</g>
				</g>
				<g>
					<g>
						<polygon class="st3" points="109.9,119.6 106.7,117.7 109.9,115.9 113,117.7 						"/>
					</g>
					<g>
						<polygon class="st3" points="113.6,118.1 116.8,119.9 113.7,121.7 110.5,119.9 						"/>
					</g>
					<g>
						<polygon class="st3" points="120.6,122.1 117.5,123.9 114.3,122.1 117.4,120.3 						"/>
					</g>
					<g>
						<polygon class="st3" points="124.4,124.3 121.2,126.1 118,124.2 121.2,122.4 						"/>
					</g>
					<g>
						<polygon class="st3" points="128.2,126.4 125,128.3 121.8,126.4 125,124.6 						"/>
					</g>
					<g>
						<polygon class="st3" points="132,128.6 128.8,130.4 125.6,128.6 128.8,126.8 						"/>
					</g>
					<g>
						<polygon class="st3" points="135.7,130.8 132.6,132.6 129.4,130.8 132.6,129 						"/>
					</g>
					<g>
						<polygon class="st3" points="139.5,133 136.4,134.8 133.2,132.9 136.3,131.1 						"/>
					</g>
					<g>
						<polygon class="st3" points="143.3,135.1 140.2,136.9 137,135.1 140.1,133.3 						"/>
					</g>
					<g>
						<polygon class="st3" points="147.1,137.3 143.9,139.1 140.8,137.3 143.9,135.5 						"/>
					</g>
					<g>
						<polygon class="st3" points="150.9,139.5 147.7,141.3 144.5,139.5 147.7,137.6 						"/>
					</g>
					<g>
						<polygon class="st3" points="154.7,141.6 151.5,143.5 148.3,141.6 151.5,139.8 						"/>
					</g>
				</g>
				<g>
					<g>
						<polygon class="st3" points="105.7,122 102.5,120.1 105.7,118.3 108.9,120.1 						"/>
					</g>
					<g>
						<polygon class="st3" points="109.5,124.1 106.3,122.3 109.5,120.5 112.6,122.3 						"/>
					</g>
					<g>
						<polygon class="st3" points="113.2,122.7 116.4,124.5 113.3,126.3 110.1,124.5 						"/>
					</g>
					<g>
						<polygon class="st3" points="117,124.8 120.2,126.7 117,128.5 113.9,126.7 						"/>
					</g>
					<g>
						<polygon class="st3" points="124,128.8 120.8,130.6 117.7,128.8 120.8,127 						"/>
					</g>
					<g>
						<polygon class="st3" points="127.8,131 124.6,132.8 121.4,131 124.6,129.2 						"/>
					</g>
					<g>
						<polygon class="st3" points="131.6,133.2 128.4,135 125.2,133.2 128.4,131.4 						"/>
					</g>
					<g>
						<polygon class="st3" points="135.4,135.4 132.2,137.2 129,135.3 132.2,133.5 						"/>
					</g>
					<g>
						<polygon class="st3" points="139.1,137.5 136,139.3 132.8,137.5 136,135.7 						"/>
					</g>
					<g>
						<polygon class="st3" points="142.9,139.7 139.8,141.5 136.6,139.7 139.7,137.9 						"/>
					</g>
					<g>
						<polygon class="st3" points="146.7,141.9 143.6,143.7 140.4,141.9 143.5,140 						"/>
					</g>
					<g>
						<polygon class="st3" points="150.5,144 147.3,145.9 144.1,144 147.3,142.2 						"/>
					</g>
				</g>
			</g>
		</g>
		<g>
			<path class="st14" d="M112.2,97.2c-1.4,5.2-2.8,10.4-4.1,15.6c-1.1,4.3-1.8,10.9-5.2,14.2c-4.1,3.8-9.6,2-14.4,1.3
				c-5.6-0.9-11.1-1.7-16.7-2.6c-3.9-0.6-2.4-6.6,1.5-6c4.1,0.6,8.2,1.3,12.3,1.9c4.1,0.6,11.4,3.5,14-0.9c2.1-3.6,2.6-9.7,3.6-13.7
				c1-3.7,2-7.5,3-11.2C107.2,91.9,113.2,93.4,112.2,97.2L112.2,97.2z"/>
		</g>
		<g>
			<g>
				<path class="st14" d="M74.8,102.6c0.1,3.8,0.2,7.7,0.2,11.5c0.1,2.6,6.9,2.6,6.9,0c-0.1-3.8-0.2-7.7-0.2-11.5
					C81.6,100,74.7,99.9,74.8,102.6L74.8,102.6z"/>
			</g>
			<path class="st14" d="M77.5,105.6c-0.6,0-1.2-0.3-1.6-0.7c-3-3.4-2.9-10.1-0.9-14.8c1.3-3.1,2.5-4.5,7.7-4.6
				c1.3,0,4.9-0.3,6.3,1.3c0.4,0.2,0.8,0.3,1.1,0.5v9.6c0,4.8-4.2,8.7-9.3,8.7C80.8,105.6,77.5,105.6,77.5,105.6z"/>
			<path class="st6" d="M68.1,83.2c1-0.4,2.2-0.7,2.8-1.4c0.6-0.7,0.7-1.6,1.3-2.3c1.6-1.5,4.6,0.2,6.5-0.9c0.5-0.3,0.9-0.7,1.5-1
				c1.9-0.7,3.6,2.1,5.6,1.7c0.5-0.1,1-0.4,1.6-0.4c0.5,0,0.9,0.3,1.2,0.6c0.7,0.6,1.4,1.6,1.9,2.7c0.4,0.2,0.8,0.5,1,0.9
				c0.2,0.4,0.3,0.8,0.3,1.2c0.1,1.3-0.4,2.8-1.2,4.1c-0.4,2.1-2,4.2-3.5,5.3c-0.5,0.4-1.1,0.7-1.6,1.1v2.1c0,0.5-0.4,0.8-0.8,0.8
				h-0.1c-0.5,0-0.8-0.4-0.8-0.8v-0.8c-0.5,0.5-1.1,0.9-1.5,1.5c-1,1.4-1.5,3.2-2.4,4.7c-0.9,1.5-2.8,2.7-4.4,1.9
				c-0.6-0.3-1.2-0.9-1.8-1.7c-0.3-0.1-0.5-0.2-0.7-0.5c-0.3-0.4-0.4-0.9-0.7-1.3c-0.7-1-2.3-1.2-2.6-2.3c-0.2-0.7,0.2-1.4,0.1-2.1
				c-0.3-1.1-1.8-1.5-2.3-2.5c-0.5-0.9,0.1-2,0.4-3c0.4-1.8-0.5-3.5-1.3-5.2C66.2,84.7,67.2,83.6,68.1,83.2z"/>
			<path class="st14" d="M81.1,96.9c0,1.5,0.7,2.8,1.6,2.8s1.6-1.2,1.6-2.8c0-1.5-0.7-2.8-1.6-2.8C81.8,94.1,81.1,95.4,81.1,96.9z"
				/>
		</g>
		<g>
			<path class="st14" d="M108.1,141.5c4.1-1,8.7-4.9,12.4-6.9c3.4-1.9,6.8-3.8,10.1-5.7c3.5-1.9,6.6,3.4,3.1,5.3
				c-4.7,2.6-9.4,5.3-14.1,7.9c-3.9,2.2-9.1,6.4-13.8,6.1c-4-0.2-6.4-2.9-8.6-5.9l5-3.4C103.9,140.8,105.8,142.1,108.1,141.5z"/>
			<path class="st15" d="M61,135.3c0.6-9.4,4-26.2,12.3-23.8c8.2,2.4,14.9,4,17.5,10.8c2.3,3.3,4.7,6.6,7,9.8
				c1.3,1.8,2.7,4.6,4.5,6.8l-5,3.4c-0.8-1.2-1.6-2.3-2.4-3.5c-1.1-1.5-2.1-3-3.2-4.5c-0.4,6.8-1.1,20.1-0.6,52.8
				c0,2.4,1,10.6-0.3,12.6c-1.4,2.3-2.4,4-5,3.9c-2.5-0.1-5.1-0.9-7.3-2.1c-18.6-10.1-18.7-12.1-19.3-23.6
				C58.5,163.7,60.1,149.5,61,135.3z"/>
		</g>
		<path class="st14" d="M139.6,128c-0.9-1.7-3-2.5-4.7-1.6l-3.9,1.9c-1.7,0.9-2.5,3-1.6,4.7c0.9,1.7,3,2.5,4.7,1.6l3.9-1.9
			C139.7,131.9,140.4,129.8,139.6,128z"/>
		<g>
			<path class="st2" d="M46.2,138.4c0.5-0.3,1.2-0.4,2,0.1L83.8,159c1.4,0.8,2.5,2.8,2.5,4.4v3.2v4.4v0.7v15c0,0.8-0.3,1.3-0.7,1.6
				c0,0-1,0.6-2,1.1c0.3-0.3,0.5-0.8,0.5-1.5v-17.5v-0.7v-1.9v-3.2c0-1.6-1.1-3.6-2.5-4.4L46,139.7c-0.7-0.4-1.3-0.4-1.8-0.2
				c0,0,0,0-0.1,0.1C44.1,139.5,46.2,138.4,46.2,138.4z"/>
			<path class="st0" d="M44.2,139.6C44.2,139.5,44.2,139.5,44.2,139.6c0.6-0.3,1.2-0.2,1.8,0.1l35.7,20.5c1.4,0.8,2.5,2.8,2.5,4.4
				v3.2v1.9v0.7V188c0,0.7-0.2,1.1-0.5,1.5c-0.1,0.1-0.1,0.1-0.2,0.2c0,0,0,0-0.1,0c0,0,0,0-0.1,0c-0.5,0.2-1.1,0.2-1.7-0.2
				L46,168.9c-1.4-0.8-2.5-2.8-2.5-4.4v-17.5v-0.2v-2.6v-3.1C43.5,140.4,43.7,139.8,44.2,139.6z"/>
		</g>
		<g>
			
				<linearGradient id="SVGID_00000008853147409268901710000006657949146615986092_" gradientUnits="userSpaceOnUse" x1="-6837.5737" y1="406.0006" x2="-6831.0898" y2="417.6901" gradientTransform="matrix(1 0 -0.281 1 7059.6675 -326)">
				<stop  offset="0.4092" style="stop-color:#B4CCFC"/>
				<stop  offset="0.4618" style="stop-color:#ADC7FB"/>
				<stop  offset="0.5371" style="stop-color:#9AB9F9"/>
				<stop  offset="0.6257" style="stop-color:#7CA1F5"/>
				<stop  offset="0.627" style="stop-color:#7BA1F5"/>
			</linearGradient>
			<path style="fill:url(#SVGID_00000008853147409268901710000006657949146615986092_);" d="M114.1,82.8c-0.1-0.5-0.3-0.9-0.7-1.2
				l-4.8-3.3c-0.2-0.1-0.5-0.1-0.8,0l-0.7,0.3l-0.1,0.2c0,0,0.1,0,0.1,0.1l4.8,3.3c0.4,0.3,0.6,0.7,0.7,1.1c0,0.3,0,0.6-0.1,0.9
				l-4.3,15.2l-0.2,0.6l0.7-0.4c0.3-0.1,0.6-0.4,0.7-0.8l4.3-15.4C114.1,83.4,114.1,83.1,114.1,82.8z"/>
			<path class="st0" d="M107.8,78.7l4.8,3.3c0.4,0.3,0.6,0.7,0.7,1.1c0,0.3,0,0.6-0.1,0.9L109,99.4c-0.1,0.3-0.3,0.6-0.6,0.8
				c-0.3,0.2-0.7,0.2-1,0l-4.6-3.1c-0.6-0.4-0.8-1.1-0.6-1.9l4.4-15.8c0.1-0.2,0.2-0.4,0.4-0.5c0,0,0,0,0.1,0
				C107.4,78.6,107.6,78.6,107.8,78.7z M106.7,80l-4.1,14.5c-0.2,0.7,0,1.4,0.5,1.8l4.2,2.9c0.5,0.3,1.3-0.1,1.5-0.7l3.9-14.1
				c0.2-0.8,0-1.5-0.6-1.9l-4.4-3C107.5,79.2,106.8,79.5,106.7,80z"/>
			<path class="st6" d="M112.9,84.3c0.2-0.8,0-1.5-0.6-1.9l-4.5-3.1c-0.4-0.2-1,0.1-1.1,0.5l-4.1,14.7c-0.2,0.7,0,1.4,0.5,1.8
				l4.3,2.9c0.5,0.3,1.3-0.1,1.5-0.7L112.9,84.3z"/>
			<path class="st2" d="M113.1,85.9c-0.1,0-0.1,0-0.1-0.1l0.2-0.9c0-0.1,0.1-0.2,0.2-0.3c0.1,0,0.1,0,0.1,0.1l-0.2,0.9
				C113.3,85.7,113.2,85.8,113.1,85.9z"/>
			<path class="st2" d="M112.7,87.4c-0.1,0-0.1,0-0.1-0.1l0.2-0.9c0-0.1,0.1-0.2,0.2-0.3c0.1,0,0.1,0,0.1,0.1l-0.2,0.9
				C112.8,87.2,112.7,87.3,112.7,87.4z"/>
		</g>
		<g>
			<path class="st3" d="M75.2,212.6c0.8,0,1.4-0.6,1.4-1.4v-43.5c0-2.4-1.3-4.6-3.4-5.7l-20.2-11c-0.8-0.4-1.7-0.4-2.5,0
				c-0.8,0.5-1.2,1.3-1.2,2.2l0.4,44.3c0,0.8,0.7,1.4,1.5,1.4c0.8,0,1.4-0.7,1.4-1.4l-0.4-43.8l19.7,10.7c1.2,0.6,1.9,1.8,1.9,3.2
				v43.5C73.8,212,74.4,212.6,75.2,212.6z"/>
		</g>
		<g>
			<g>
				
					<linearGradient id="SVGID_00000072253304889540170770000007672724724397844117_" gradientUnits="userSpaceOnUse" x1="-841.6885" y1="470.3566" x2="-822.1892" y2="470.3566" gradientTransform="matrix(-1 0 0 1 -640.5093 -326)">
					<stop  offset="0.4092" style="stop-color:#B4CCFC"/>
					<stop  offset="0.4618" style="stop-color:#ADC7FB"/>
					<stop  offset="0.5371" style="stop-color:#9AB9F9"/>
					<stop  offset="0.6257" style="stop-color:#7CA1F5"/>
					<stop  offset="0.627" style="stop-color:#7BA1F5"/>
				</linearGradient>
				<path style="fill:url(#SVGID_00000072253304889540170770000007672724724397844117_);" d="M176.7,137.4v6.4
					c0,0.3,0.2,0.6,0.5,0.8l10.9,6.3c1,0.6,2.2,0.6,3.2,0l10.9-6.3c0.3-0.2,0.5-0.5,0.4-0.8h0.1v-6.4L176.7,137.4L176.7,137.4z"/>
				<path class="st2" d="M188.1,144.4l-10.9-6.3c-0.6-0.4-0.6-1.2,0-1.6l11-6.3c0.9-0.5,2-0.5,2.9,0l11.1,6.4c0.6,0.3,0.6,1.2,0,1.6
					l-10.9,6.3C190.3,145,189.1,145,188.1,144.4z"/>
			</g>
			<path class="st18" d="M186.7,146.2c0.2,0.1,0.4,0.5,0.4,0.7c0,0.3-0.2,0.4-0.4,0.3l-7.1-4.1l0-1L186.7,146.2z"/>
			<g>
				<path class="st18" d="M192.1,147c0,0.3-0.2,0.6-0.4,0.8c-0.2,0.1-0.4,0-0.4-0.2s0.2-0.6,0.4-0.8
					C191.9,146.6,192.1,146.7,192.1,147z"/>
				<path class="st18" d="M193.6,146.1c0,0.3-0.2,0.6-0.4,0.8c-0.2,0.1-0.4,0-0.4-0.2s0.2-0.6,0.4-0.8S193.6,145.8,193.6,146.1z"/>
				<path class="st19" d="M195.2,145.2c0,0.3-0.2,0.6-0.4,0.8c-0.2,0.1-0.4,0-0.4-0.2c0-0.3,0.2-0.6,0.4-0.8
					C195,144.8,195.2,144.9,195.2,145.2z"/>
				<path class="st19" d="M196.8,144.3c0,0.3-0.2,0.6-0.4,0.8c-0.2,0.1-0.4,0-0.4-0.2c0-0.3,0.2-0.6,0.4-0.8
					C196.6,143.9,196.8,144,196.8,144.3z"/>
				<path class="st19" d="M198.3,143.4c0,0.3-0.2,0.6-0.4,0.8c-0.2,0.1-0.4,0-0.4-0.2c0-0.3,0.2-0.6,0.4-0.8
					C198.1,143,198.3,143.1,198.3,143.4z"/>
				<path class="st18" d="M199.9,142.5c0,0.3-0.2,0.6-0.4,0.8c-0.2,0.1-0.4,0-0.4-0.2s0.2-0.6,0.4-0.8
					C199.7,142.1,199.9,142.2,199.9,142.5z"/>
				<path class="st18" d="M201.4,141.6c0,0.3-0.2,0.6-0.4,0.8c-0.2,0.1-0.4,0-0.4-0.2c0-0.3,0.2-0.6,0.4-0.8
					C201.2,141.2,201.4,141.3,201.4,141.6z"/>
			</g>
		</g>
		<g>
			<g>
				
					<linearGradient id="SVGID_00000082358864943634057500000016522790112222528387_" gradientUnits="userSpaceOnUse" x1="-802.6944" y1="443.96" x2="-775.2249" y2="443.96" gradientTransform="matrix(-1 0 0 1 -640.5093 -326)">
					<stop  offset="0.4092" style="stop-color:#B4CCFC"/>
					<stop  offset="0.4618" style="stop-color:#ADC7FB"/>
					<stop  offset="0.5371" style="stop-color:#9AB9F9"/>
					<stop  offset="0.6257" style="stop-color:#7CA1F5"/>
					<stop  offset="0.627" style="stop-color:#7BA1F5"/>
				</linearGradient>
				<path style="fill:url(#SVGID_00000082358864943634057500000016522790112222528387_);" d="M135.8,117.3l13.8,7.7
					c1.6,0.9,4.3,0.8,6-0.2l5.1-2.8c1.8-1,2-2.5,0.4-3.4l-13.8-7.7c-1.6-0.9-4.3-0.8-6,0.2l-5.1,2.8
					C134.4,115,134.2,116.5,135.8,117.3z"/>
			</g>
			<g>
				<path class="st2" d="M135.8,115.7l13.8,7.7c1.6,0.9,4.3,0.8,6-0.2l5.1-2.8c1.8-1,2-2.5,0.4-3.4l-13.8-7.7
					c-1.6-0.9-4.3-0.8-6,0.2l-5.1,2.8C134.4,113.3,134.2,114.9,135.8,115.7z"/>
			</g>
			<polygon class="st2" points="153.9,117.4 144.6,112.3 144.6,100.8 153.9,106 			"/>
			<path class="st3" d="M153.9,117.4l1.9-1.2c0.3-0.2,0.5-0.6,0.5-0.9v-7.8l-2.4-0.8L153.9,117.4z"/>
			<g>
				
					<linearGradient id="SVGID_00000083066282583076504890000018131343101761124498_" gradientUnits="userSpaceOnUse" x1="-8048.103" y1="380.7594" x2="-8048.103" y2="426.4933" gradientTransform="matrix(1 0 0 1 8213.6221 -326)">
					<stop  offset="0.4092" style="stop-color:#B4CCFC"/>
					<stop  offset="0.4618" style="stop-color:#ADC7FB"/>
					<stop  offset="0.5371" style="stop-color:#9AB9F9"/>
					<stop  offset="0.6257" style="stop-color:#7CA1F5"/>
					<stop  offset="0.627" style="stop-color:#7BA1F5"/>
				</linearGradient>
				<path style="fill:url(#SVGID_00000083066282583076504890000018131343101761124498_);" d="M197,79.7c-0.4-1.6-1.8-2.9-3.2-3.8
					l-54.5-28.7c-0.9-0.5-2-0.6-3.1-0.2l-2.3,0.8l19,9v-0.1l39.8,21.6c1.1,0.6,1.9,1.7,2.1,2.9c0.1,0.6,0.1,1.2-0.1,1.9l-12,40.4
					c1.4-0.6,3.3-1.7,3.7-3.2L197,81.8C197.2,81.1,197.2,80.4,197,79.7z"/>
				<g>
					<path class="st6" d="M131.5,50.3l-8.7,36.2c-0.5,2.2,0.5,4.4,2.4,5.6l54.9,31.4c1.6,0.9,3.6,0.1,4.1-1.7l10.7-38.8
						c0.5-1.8-0.3-3.7-2-4.6L136.7,48C134.7,46.9,132.1,48,131.5,50.3z"/>
				</g>
				<g>
					<g>
						<g>
							<path class="st22" d="M146,60c-0.1-0.1-0.2-0.3-0.2-0.5c0-0.2,0.2-0.3,0.3-0.2c0.1,0.1,0.2,0.3,0.2,0.5
								C146.3,60,146.1,60.1,146,60z"/>
							<path class="st22" d="M145.5,61.7c-0.1-0.1-0.2-0.3-0.2-0.5c0-0.2,0.2-0.3,0.3-0.2c0.1,0.1,0.2,0.3,0.2,0.5
								C145.8,61.7,145.7,61.8,145.5,61.7z"/>
							<path class="st22" d="M145.1,63.4c-0.1-0.1-0.2-0.3-0.2-0.5c0-0.2,0.2-0.3,0.3-0.2c0.1,0.1,0.2,0.3,0.2,0.5
								C145.4,63.4,145.3,63.5,145.1,63.4z"/>
							<path class="st22" d="M144.7,65.1c-0.1-0.1-0.2-0.3-0.2-0.5c0-0.2,0.2-0.3,0.3-0.2c0.1,0.1,0.2,0.3,0.2,0.5
								C145,65.1,144.8,65.2,144.7,65.1z"/>
							<path class="st22" d="M144.3,66.8c-0.1-0.1-0.2-0.3-0.2-0.5c0-0.2,0.2-0.3,0.3-0.2s0.2,0.3,0.2,0.5
								C144.6,66.8,144.4,66.9,144.3,66.8z"/>
							<path class="st22" d="M143.9,68.5c-0.1-0.1-0.2-0.3-0.2-0.5c0-0.2,0.2-0.3,0.3-0.2s0.2,0.3,0.2,0.5
								C144.1,68.5,144,68.6,143.9,68.5z"/>
							<path class="st22" d="M143.4,70.2c-0.1-0.1-0.2-0.3-0.2-0.5c0-0.2,0.2-0.3,0.3-0.2c0.1,0.1,0.2,0.3,0.2,0.5
								C143.7,70.2,143.6,70.3,143.4,70.2z"/>
							<path class="st22" d="M143,71.9c-0.1-0.1-0.2-0.3-0.2-0.5c0-0.2,0.2-0.3,0.3-0.2c0.1,0.1,0.2,0.3,0.2,0.5
								C143.3,71.9,143.2,72,143,71.9z"/>
							<path class="st22" d="M142.6,73.6c-0.1-0.1-0.2-0.3-0.2-0.5c0-0.2,0.2-0.3,0.3-0.2c0.1,0.1,0.2,0.3,0.2,0.5
								C142.9,73.6,142.7,73.7,142.6,73.6z"/>
							<path class="st22" d="M142.2,75.3c-0.1-0.1-0.2-0.3-0.2-0.5c0-0.2,0.2-0.3,0.3-0.2s0.2,0.3,0.2,0.5
								C142.5,75.3,142.3,75.4,142.2,75.3z"/>
						</g>
						<g>
							<path class="st22" d="M141.7,77.1c-0.1-0.1-0.2-0.3-0.2-0.5c0-0.2,0.2-0.3,0.3-0.2c0.1,0.1,0.2,0.3,0.2,0.5
								C142,77.1,141.9,77.2,141.7,77.1z"/>
							<path class="st22" d="M141.3,78.8c-0.1-0.1-0.2-0.3-0.2-0.5c0-0.2,0.2-0.3,0.3-0.2c0.1,0.1,0.2,0.3,0.2,0.5
								C141.6,78.8,141.5,78.9,141.3,78.8z"/>
							<path class="st22" d="M140.9,80.5c-0.1-0.1-0.2-0.3-0.2-0.5c0-0.2,0.2-0.3,0.3-0.2s0.2,0.3,0.2,0.5
								C141.2,80.5,141,80.6,140.9,80.5z"/>
							<path class="st22" d="M140.5,82.2c-0.1-0.1-0.2-0.3-0.2-0.5c0-0.2,0.2-0.3,0.3-0.2s0.2,0.3,0.2,0.5
								C140.8,82.2,140.6,82.3,140.5,82.2z"/>
							<path class="st22" d="M140.1,83.9c-0.1-0.1-0.2-0.3-0.2-0.5c0-0.2,0.2-0.3,0.3-0.2c0.1,0.1,0.2,0.3,0.2,0.5
								S140.2,84,140.1,83.9z"/>
							<path class="st22" d="M139.6,85.6c-0.1-0.1-0.2-0.3-0.2-0.5c0-0.2,0.2-0.3,0.3-0.2c0.1,0.1,0.2,0.3,0.2,0.5
								C139.9,85.6,139.8,85.7,139.6,85.6z"/>
							<path class="st22" d="M139.2,87.3c-0.1-0.1-0.2-0.3-0.2-0.5c0-0.2,0.2-0.3,0.3-0.2c0.1,0.1,0.2,0.3,0.2,0.5
								C139.5,87.3,139.3,87.4,139.2,87.3z"/>
							<path class="st22" d="M138.8,89c-0.1-0.1-0.2-0.3-0.2-0.5c0-0.2,0.2-0.3,0.3-0.2c0.1,0.1,0.2,0.3,0.2,0.5
								S138.9,89.1,138.8,89z"/>
							<path class="st22" d="M138.4,90.7c-0.1-0.1-0.2-0.3-0.2-0.5c0-0.2,0.2-0.3,0.3-0.2c0.1,0.1,0.2,0.3,0.2,0.5
								C138.6,90.7,138.5,90.8,138.4,90.7z"/>
							<path class="st22" d="M137.9,92.4c-0.1-0.1-0.2-0.3-0.2-0.5s0.2-0.3,0.3-0.2c0.1,0.1,0.2,0.3,0.2,0.5
								C138.2,92.4,138.1,92.5,137.9,92.4z"/>
						</g>
					</g>
					<polygon class="st22" points="152.9,64.3 148.1,61.6 148.3,60.8 153.1,63.5 					"/>
					<polygon class="st22" points="152.5,65.9 147.7,63.2 148,62.4 152.7,65.1 					"/>
					<polygon class="st22" points="152.1,67.5 147.4,64.8 147.6,64 152.3,66.7 					"/>
					<polygon class="st22" points="155.5,71.4 147,66.4 147.2,65.6 155.7,70.5 					"/>
					<polygon class="st22" points="153.1,73.3 148.4,70.6 148.6,69.8 153.3,72.5 					"/>
					<polygon class="st22" points="152.7,74.9 148,72.2 148.2,71.4 152.9,74.1 					"/>
					<polygon class="st22" points="166.6,82.9 161.9,80.2 162.1,79.4 166.8,82.1 					"/>
					<polygon class="st22" points="152.3,76.5 147.6,73.8 147.8,73 152.5,75.7 					"/>
					<polygon class="st22" points="165.4,71.6 153.5,64.7 153.7,63.9 165.6,70.7 					"/>
					<polygon class="st22" points="162,71.4 153.1,66.3 153.3,65.5 162.2,70.6 					"/>
					<polygon class="st22" points="168.7,75.3 162.7,71.8 162.9,71 168.9,74.4 					"/>
					<polygon class="st22" points="170.2,78 152.7,67.9 152.9,67.1 170.5,77.2 					"/>
					<polygon class="st22" points="168.5,78.8 157.1,72.3 157.3,71.5 168.7,78 					"/>
					<polygon class="st22" points="169.1,82.5 153.7,73.7 153.9,72.9 169.3,81.7 					"/>
					<polygon class="st22" points="161.3,79.9 153.3,75.3 153.5,74.5 161.5,79 					"/>
					<polygon class="st22" points="165.3,84 152.9,76.9 153.1,76.1 165.5,83.2 					"/>
					<polygon class="st22" points="154.4,80 149.7,77.2 149.9,76.4 154.6,79.1 					"/>
					<polygon class="st22" points="167.8,87.6 155,80.3 155.3,79.5 168,86.8 					"/>
					<polygon class="st22" points="168.8,90 149.3,78.8 149.5,78 169,89.2 					"/>
					<polygon class="st22" points="160,86.8 148.9,80.5 149.1,79.6 160.2,86 					"/>
					<polygon class="st22" points="168.3,91.6 160.7,87.2 160.9,86.4 168.5,90.8 					"/>
					<polygon class="st22" points="150.7,83.3 145.9,80.6 146.1,79.8 150.9,82.5 					"/>
					<polygon class="st22" points="157.6,89.1 145.5,82.2 145.7,81.4 157.8,88.3 					"/>
					<polygon class="st22" points="167.6,94.8 158.3,89.5 158.6,88.7 167.8,94 					"/>
					<polygon class="st22" points="154,88.9 145.1,83.8 145.3,83 154.2,88.1 					"/>
					<polygon class="st22" points="155.4,91.5 144.7,85.4 144.9,84.6 155.6,90.7 					"/>
					<polygon class="st22" points="158.9,95.5 147.2,88.7 147.4,87.9 159.1,94.7 					"/>
					<polygon class="st22" points="161.5,98.8 146.8,90.3 147,89.5 161.7,98 					"/>
					<polygon class="st22" points="151.1,94.6 146.4,91.9 146.6,91.1 151.3,93.8 					"/>
					<polygon class="st22" points="164.7,104.2 162.8,103.2 163,102.4 164.9,103.4 					"/>
					<polygon class="st22" points="162,102.8 146,93.5 146.2,92.7 162.2,101.9 					"/>
					<polygon class="st22" points="151.1,98.3 146.3,95.6 146.5,94.8 151.3,97.5 					"/>
					<polygon class="st22" points="163.2,105.2 151.7,98.7 151.9,97.8 163.4,104.4 					"/>
					<polygon class="st22" points="154.2,101.9 145.2,96.7 145.4,95.9 154.4,101.1 					"/>
					<polygon class="st22" points="148,100.2 143.3,97.5 143.5,96.7 148.2,99.4 					"/>
					<polygon class="st22" points="144,58.4 140.2,56.1 140,57 143.8,59.2 					"/>
					<polygon class="st22" points="143.7,60 139.8,57.7 139.6,58.6 143.4,60.8 					"/>
					<polygon class="st22" points="142.9,63.2 137,59.8 136.8,60.6 142.7,64 					"/>
					<polygon class="st22" points="136.3,62.8 136.1,63.6 140.6,66.2 140.9,65.4 					"/>
					<polygon class="st22" points="138.2,55 138,55.8 139.4,56.6 139.6,55.8 					"/>
					<polygon class="st22" points="137.8,56.6 137.6,57.4 139,58.2 139.2,57.4 					"/>
					<polygon class="st22" points="135,67.9 134.8,68.7 136.8,69.9 137,69 					"/>
					<polygon class="st22" points="134.6,69.5 134.4,70.3 136.4,71.5 136.6,70.6 					"/>
					<polygon class="st22" points="133.4,74.3 133.2,75.1 137.8,77.7 138,76.9 					"/>
					<polygon class="st22" points="132.6,77.5 132.4,78.3 137,80.9 137.2,80.1 					"/>
					<polygon class="st22" points="132.2,79.2 132,80 133.7,81 133.9,80.2 					"/>
					<polygon class="st22" points="131,84 130.8,84.8 132.5,85.8 132.7,85 					"/>
					<polygon class="st22" points="130.2,87.2 130,88.1 131.7,89 131.9,88.2 					"/>
				</g>
			</g>
		</g>
		<g>
			<g>
				<g>
					<polygon class="st23" points="175.7,114.2 175.2,115.9 174,115.1 174.5,113.5 					"/>
					<polygon class="st22" points="176.6,110.7 176.2,112.4 174.9,111.7 175.4,110 					"/>
					<polygon class="st22" points="177.6,107.3 177.1,109 175.9,108.3 176.4,106.6 					"/>
					<polygon class="st23" points="178.6,103.9 178.1,105.6 176.9,104.9 177.3,103.2 					"/>
					<polygon class="st22" points="179.5,100.5 179,102.2 177.8,101.4 178.3,99.7 					"/>
					<polygon class="st22" points="180.5,97 180,98.7 178.8,98 179.3,96.3 					"/>
				</g>
			</g>
			<g>
				<g>
					<polygon class="st24" points="177.6,115.3 177.1,117 175.9,116.3 176.3,114.6 					"/>
					<polygon class="st23" points="178.5,111.8 178,113.5 176.8,112.8 177.3,111.1 					"/>
					<polygon class="st2" points="179.5,108.4 179,110.1 177.8,109.4 178.3,107.7 					"/>
					<polygon class="st22" points="180.4,105 180,106.7 178.7,106 179.2,104.3 					"/>
					<polygon class="st22" points="181.4,101.6 180.9,103.3 179.7,102.5 180.2,100.8 					"/>
					<polygon class="st25" points="182.4,98.1 181.9,99.8 180.7,99.1 181.1,97.4 					"/>
				</g>
			</g>
			<g>
				<g>
					<polygon class="st22" points="179.5,116.4 179,118.1 177.8,117.4 178.3,115.7 					"/>
					<polygon class="st22" points="180.4,113 180,114.7 178.7,113.9 179.2,112.2 					"/>
					<polygon class="st24" points="181.4,109.5 180.9,111.2 179.7,110.5 180.2,108.8 					"/>
					<polygon class="st23" points="182.4,106.1 181.9,107.8 180.6,107.1 181.1,105.4 					"/>
					<polygon class="st22" points="183.3,102.7 182.8,104.4 181.6,103.7 182.1,102 					"/>
					<polygon class="st25" points="184.3,99.3 183.8,101 182.6,100.2 183,98.5 					"/>
				</g>
			</g>
			<g>
				<g>
					<polygon class="st2" points="181.2,117.4 180.8,119.1 179.6,118.4 180,116.7 					"/>
					<polygon class="st23" points="182.2,114 181.7,115.7 180.5,115 181,113.3 					"/>
					<polygon class="st22" points="183.2,110.6 182.7,112.3 181.5,111.6 181.9,109.9 					"/>
					<polygon class="st22" points="184.1,107.2 183.7,108.8 182.4,108.1 182.9,106.4 					"/>
					<polygon class="st22" points="185.1,103.7 184.6,105.4 183.4,104.7 183.9,103 					"/>
					<polygon class="st2" points="186,100.3 185.6,102 184.3,101.3 184.8,99.6 					"/>
				</g>
			</g>
		</g>
		<g>
			<polygon class="st23" points="181.5,83.1 175.6,79.4 175.4,80.1 181.3,83.8 			"/>
			<polygon class="st2" points="180.8,85.7 174.9,82 174.7,82.8 180.6,86.4 			"/>
			<polygon class="st23" points="176.7,75.2 176.5,75.9 178.5,77.1 178.7,76.4 			"/>
			<polygon class="st23" points="176.3,76.6 176.1,77.3 178.2,78.6 178.4,77.8 			"/>
			<polygon class="st23" points="173.8,86.6 173.6,87.3 175.3,88.4 175.5,87.7 			"/>
			<polygon class="st23" points="173.4,88 173.2,88.8 174.9,89.8 175.1,89.1 			"/>
			<polygon class="st23" points="172.3,92.3 172.1,93 176.1,95.5 176.3,94.8 			"/>
			<polygon class="st23" points="171.6,95.1 171.4,95.9 175.4,98.3 175.6,97.6 			"/>
			<polygon class="st2" points="171.2,96.7 171,97.4 172.5,98.3 172.7,97.6 			"/>
			<polygon class="st23" points="170.1,100.9 169.9,101.7 171.4,102.6 171.6,101.8 			"/>
			<polygon class="st2" points="169.4,103.8 169.2,104.5 170.7,105.4 170.9,104.7 			"/>
		</g>
		<g>
			
				<linearGradient id="SVGID_00000176001169724207797890000018372882560683236776_" gradientUnits="userSpaceOnUse" x1="8156.4058" y1="486.9024" x2="8209.7842" y2="486.9024" gradientTransform="matrix(-1 0 0 1 8354.5146 -326)">
				<stop  offset="0.5622" style="stop-color:#FF7364"/>
				<stop  offset="0.5931" style="stop-color:#FF845E"/>
				<stop  offset="0.6571" style="stop-color:#FFA052"/>
				<stop  offset="0.7257" style="stop-color:#FFB74A"/>
				<stop  offset="0.8" style="stop-color:#FFC744"/>
				<stop  offset="0.8843" style="stop-color:#FFD040"/>
				<stop  offset="1" style="stop-color:#FFD33F"/>
			</linearGradient>
			<path style="fill:url(#SVGID_00000176001169724207797890000018372882560683236776_);" d="M140.8,160.6l1.4,0.8l-0.4,0.2l-0.7-0.4
				l-0.3-0.2c-0.1-0.1-0.2-0.2-0.2-0.3l0-0.6C140.6,160.3,140.6,160.5,140.8,160.6z"/>
			<path class="st27" d="M140.6,163.2c-0.2-0.1-0.3-0.4-0.3-0.6c0-0.2,0.1-0.3,0.3-0.4l0.3-0.2v1.3L140.6,163.2z"/>
			<path class="st28" d="M140.4,162.7c0,0.2,0.1,0.4,0.3,0.6l0.3,0.2l0.1,0.1l13.3,7.6c0,0,0.1,0,0.2,0.1c0.1,0,0.1,0,0.2,0
				c0,0,0,0,0.1,0c0,0,0,0,0.1,0c0,0,0.1,0,0.1,0c0.1,0,0.1,0,0.1-0.1c0.2-0.1,0.3-0.3,0.3-0.5c0-0.2-0.1-0.5-0.2-0.7c0,0,0,0,0-0.1
				c0-0.1-0.1-0.2-0.2-0.3c0-0.1-0.1-0.1-0.1-0.2c0-0.1-0.1-0.1-0.2-0.2c-0.1-0.1-0.2-0.2-0.3-0.2c0,0-12.6-7.3-12.6-7.3l0.4-0.2
				l13.2,7.6c0.6,0.3,1.4,0.3,2,0l8.7-5l4.2-2.4l10.2-5.9l1.4-0.8c0.2-0.1,0.3-0.4,0.3-0.6c0,0,0,3.3,0,3.3c0,0.4-0.2,0.8-0.5,1
				c-0.1,0.1-0.2,0.1-0.2,0.2l-11.4,6.6l-13,7.5c-0.5,0.3-1.1,0.3-1.6,0l-15-8.6c-0.2-0.1-0.3-0.3-0.3-0.5L140.4,162.7z"/>
			<path class="st19" d="M181.9,154.8l-1.4,0.8l-10.2,5.9l-4.2,2.4l-8.7,5c-0.6,0.3-1.4,0.3-2,0l-13.2-7.6l-1.4-0.8
				c-0.2-0.1-0.3-0.3-0.3-0.5c0-0.2,0.1-0.4,0.3-0.5l25.2-14.5c0.3-0.2,0.6-0.2,0.8,0l15,8.6c0.2,0.1,0.3,0.3,0.3,0.5
				C182.3,154.5,182.2,154.7,181.9,154.8z"/>
			<path class="st2" d="M154.3,168.9c0.1,0.1,0.2,0.2,0.3,0.3c0.1,0,0.1,0.1,0.2,0.2s0.1,0.1,0.1,0.2c0.1,0.1,0.1,0.2,0.2,0.3
				c0,0,0,0,0,0.1c0.1,0.2,0.2,0.5,0.2,0.7c0,0.2-0.1,0.4-0.3,0.5c0,0-0.1,0-0.1,0.1c-0.1,0-0.1,0-0.1,0c0,0,0,0-0.1,0
				c0,0,0,0-0.1,0c0,0-0.1,0-0.1,0c-0.1,0-0.1,0-0.2-0.1l-13.3-7.6l-0.1-0.1v-1.3v-0.9l0.2,0.1l0.7,0.4L154.3,168.9z"/>
		</g>
	</g>
	<g>
		<path class="st5" d="M228.1,247.5l0.1-88.1c0-1.4-0.8-2.7-2-3.4l-25.2-14.3l-0.2,0.4l25.2,14.3c1.1,0.6,1.8,1.8,1.8,3l-0.1,88.1
			L228.1,247.5L228.1,247.5z"/>
	</g>
	<g>
		<path class="st19" d="M223.8,250.2h0.5v-89.3c0-1.5-0.8-2.9-2.1-3.6L198,143.4l-0.2,0.4l24.1,13.9c1.1,0.7,1.8,1.9,1.8,3.2V250.2z
			"/>
	</g>
	<g>
		<path class="st2" d="M22.9,21.7v71.1c0,1.3,0.7,2.6,1.9,3.2l29.3,16.5l-0.5,0.8L24.3,97c-1.5-0.8-2.4-2.4-2.4-4.1V21.7H22.9z"/>
	</g>
</g>
<g>
	<path class="st29" d="M284.3,211.2l-15.9-9.8c-1.6-1-3.5-1-5.1,0l-20.3,12.5l17.8,11.3h7.7l15.7-10.3
		C285.7,214,285.6,212,284.3,211.2z"/>
	<g>
		
			<linearGradient id="SVGID_00000036248742136602405640000010257657423077343628_" gradientUnits="userSpaceOnUse" x1="242.1429" y1="539.7821" x2="272.1834" y2="539.7821" gradientTransform="matrix(1 0 0 1 0 -326)">
			<stop  offset="0.4092" style="stop-color:#B4CCFC"/>
			<stop  offset="0.4618" style="stop-color:#ADC7FB"/>
			<stop  offset="0.5371" style="stop-color:#9AB9F9"/>
			<stop  offset="0.6257" style="stop-color:#7CA1F5"/>
			<stop  offset="0.627" style="stop-color:#7BA1F5"/>
		</linearGradient>
		<path style="fill:url(#SVGID_00000036248742136602405640000010257657423077343628_);" d="M279.9,202.3v10.6c0,0.5-0.2,1-0.7,1.3
			l-16.9,10.4c-1.5,1-3.4,1-5,0l-16.8-10.4c-0.5-0.3-0.7-0.8-0.7-1.4h-0.1v-10.6H279.9z"/>
		<path class="st2" d="M262.3,213.9l16.9-10.4c1-0.6,1-2.1,0-2.6l-17-10.4c-1.4-0.9-3.1-0.9-4.5,0L240.5,201c-0.9,0.6-0.9,2,0,2.6
			l16.8,10.4C258.9,214.8,260.8,214.8,262.3,213.9z"/>
	</g>
	<path class="st18" d="M264.4,216.9c-0.3,0.2-0.6,0.7-0.6,1.2s0.3,0.7,0.6,0.5l10.9-6.7l0-1.7L264.4,216.9z"/>
	<path class="st18" d="M276.8,209.2l-1.5,0.9l0,1.7l1.5-1c0.3-0.2,0.6-0.7,0.6-1.2C277.4,209.2,277.1,209,276.8,209.2z"/>
	<g>
		<g>
			
				<linearGradient id="SVGID_00000118360227875092862260000013210542235933292941_" gradientUnits="userSpaceOnUse" x1="242.1429" y1="526.0363" x2="272.1834" y2="526.0363" gradientTransform="matrix(1 0 0 1 0 -326)">
				<stop  offset="0.4092" style="stop-color:#B4CCFC"/>
				<stop  offset="0.4618" style="stop-color:#ADC7FB"/>
				<stop  offset="0.5371" style="stop-color:#9AB9F9"/>
				<stop  offset="0.6257" style="stop-color:#7CA1F5"/>
				<stop  offset="0.627" style="stop-color:#7BA1F5"/>
			</linearGradient>
			<path style="fill:url(#SVGID_00000118360227875092862260000013210542235933292941_);" d="M279.9,188.5v10.6c0,0.5-0.2,1-0.7,1.3
				l-16.9,10.4c-1.5,1-3.4,1-5,0l-16.8-10.4c-0.5-0.3-0.7-0.8-0.7-1.4h-0.1v-10.6H279.9z"/>
			<path class="st2" d="M262.3,200.1l16.9-10.4c1-0.6,1-2.1,0-2.6l-17-10.4c-1.4-0.9-3.1-0.9-4.5,0l-17.2,10.6c-0.9,0.6-0.9,2,0,2.6
				l16.8,10.4C258.9,201.1,260.8,201.1,262.3,200.1z"/>
		</g>
		<path class="st18" d="M264.4,203.1c-0.3,0.2-0.6,0.7-0.6,1.2s0.3,0.7,0.6,0.5l10.9-6.7l0-1.7L264.4,203.1z"/>
		<path class="st18" d="M276.8,195.5l-1.5,0.9l0,1.7l1.5-1c0.3-0.2,0.6-0.7,0.6-1.2C277.4,195.5,277.1,195.3,276.8,195.5z"/>
	</g>
	<g>
		<g>
			
				<linearGradient id="SVGID_00000146481218544090709560000001088150693740861100_" gradientUnits="userSpaceOnUse" x1="242.1429" y1="512.2562" x2="272.1834" y2="512.2562" gradientTransform="matrix(1 0 0 1 0 -326)">
				<stop  offset="0.4092" style="stop-color:#B4CCFC"/>
				<stop  offset="0.4618" style="stop-color:#ADC7FB"/>
				<stop  offset="0.5371" style="stop-color:#9AB9F9"/>
				<stop  offset="0.6257" style="stop-color:#7CA1F5"/>
				<stop  offset="0.627" style="stop-color:#7BA1F5"/>
			</linearGradient>
			<path style="fill:url(#SVGID_00000146481218544090709560000001088150693740861100_);" d="M279.9,174.8v10.6c0,0.5-0.2,1-0.7,1.3
				L262.3,197c-1.5,1-3.4,1-5,0l-16.8-10.4c-0.5-0.3-0.7-0.8-0.7-1.4h-0.1v-10.6L279.9,174.8L279.9,174.8z"/>
			<path class="st2" d="M262.3,186.4l16.9-10.4c1-0.6,1-2.1,0-2.6l-17-10.4c-1.4-0.9-3.1-0.9-4.5,0l-17.2,10.6c-0.9,0.6-0.9,2,0,2.6
				l16.8,10.4C258.9,187.3,260.8,187.3,262.3,186.4z"/>
		</g>
		<path class="st18" d="M264.4,189.3c-0.3,0.2-0.6,0.7-0.6,1.2s0.3,0.7,0.6,0.5l10.9-6.7l0-1.7L264.4,189.3z"/>
		<path class="st18" d="M276.8,181.7l-1.5,0.9l0,1.7l1.5-1c0.3-0.2,0.6-0.7,0.6-1.2S277.1,181.5,276.8,181.7z"/>
	</g>
	<g>
		<g>
			
				<linearGradient id="SVGID_00000039840452590200087440000017615579802400625290_" gradientUnits="userSpaceOnUse" x1="242.1429" y1="498.3816" x2="272.1834" y2="498.3816" gradientTransform="matrix(1 0 0 1 0 -326)">
				<stop  offset="0.4092" style="stop-color:#B4CCFC"/>
				<stop  offset="0.4618" style="stop-color:#ADC7FB"/>
				<stop  offset="0.5371" style="stop-color:#9AB9F9"/>
				<stop  offset="0.6257" style="stop-color:#7CA1F5"/>
				<stop  offset="0.627" style="stop-color:#7BA1F5"/>
			</linearGradient>
			<path style="fill:url(#SVGID_00000039840452590200087440000017615579802400625290_);" d="M279.9,160.9v10.6c0,0.5-0.2,1-0.7,1.3
				l-16.9,10.4c-1.5,1-3.4,1-5,0l-16.8-10.4c-0.5-0.3-0.7-0.8-0.7-1.4h-0.1v-10.6H279.9z"/>
			<path class="st2" d="M262.3,172.5l16.9-10.4c1-0.6,1-2.1,0-2.6l-17-10.4c-1.4-0.9-3.1-0.9-4.5,0l-17.2,10.6c-0.9,0.6-0.9,2,0,2.6
				l16.8,10.4C258.9,173.4,260.8,173.4,262.3,172.5z"/>
		</g>
		<path class="st18" d="M264.4,175.5c-0.3,0.2-0.6,0.7-0.6,1.2c0,0.5,0.3,0.7,0.6,0.5l10.9-6.7l0-1.7L264.4,175.5z"/>
		<path class="st18" d="M276.8,167.8l-1.5,0.9l0,1.7l1.5-1c0.3-0.2,0.6-0.7,0.6-1.2C277.4,167.8,277.1,167.6,276.8,167.8z"/>
	</g>
	<g>
		<path class="st18" d="M256.5,177c0,0.5,0.3,1,0.7,1.3c0.4,0.2,0.7,0,0.7-0.4c0-0.5-0.3-1-0.7-1.3
			C256.8,176.3,256.5,176.5,256.5,177z"/>
		<path class="st18" d="M254.1,175.5c0,0.5,0.3,1,0.7,1.3c0.4,0.2,0.7,0,0.7-0.4c0-0.5-0.3-1-0.7-1.3
			C254.4,174.8,254.1,175,254.1,175.5z"/>
		<path class="st18" d="M251.7,174c0,0.5,0.3,1,0.7,1.3c0.4,0.2,0.7,0,0.7-0.4c0-0.5-0.3-1-0.7-1.3C252,173.4,251.7,173.5,251.7,174
			z"/>
		<path class="st18" d="M249.3,172.5c0,0.5,0.3,1,0.7,1.3c0.4,0.2,0.7,0,0.7-0.4c0-0.5-0.3-1-0.7-1.3
			C249.6,171.9,249.3,172.1,249.3,172.5z"/>
		<path class="st19" d="M246.9,171c0,0.5,0.3,1,0.7,1.3c0.4,0.2,0.7,0,0.7-0.4c0-0.5-0.3-1-0.7-1.3
			C247.2,170.4,246.9,170.6,246.9,171z"/>
		<path class="st19" d="M244.5,169.6c0,0.5,0.3,1,0.7,1.3c0.4,0.2,0.7,0,0.7-0.4c0-0.5-0.3-1-0.7-1.3
			C244.8,168.9,244.5,169.1,244.5,169.6z"/>
		<path class="st19" d="M242.1,168.1c0,0.5,0.3,1,0.7,1.3c0.4,0.2,0.7,0,0.7-0.4c0-0.5-0.3-1-0.7-1.3
			C242.4,167.4,242.1,167.6,242.1,168.1z"/>
	</g>
	<g>
		<path class="st18" d="M256.9,191.3c0,0.5,0.3,1,0.7,1.3s0.7,0,0.7-0.4c0-0.5-0.3-1-0.7-1.3C257.2,190.7,256.9,190.9,256.9,191.3z"
			/>
		<path class="st15" d="M254.5,189.9c0,0.5,0.3,1,0.7,1.3c0.4,0.2,0.7,0,0.7-0.4c0-0.5-0.3-1-0.7-1.3
			C254.8,189.2,254.5,189.4,254.5,189.9z"/>
		<path class="st15" d="M252.1,188.4c0,0.5,0.3,1,0.7,1.3s0.7,0,0.7-0.4c0-0.5-0.3-1-0.7-1.3S252.1,187.9,252.1,188.4z"/>
		<path class="st15" d="M249.7,186.9c0,0.5,0.3,1,0.7,1.3c0.4,0.2,0.7,0,0.7-0.4c0-0.5-0.3-1-0.7-1.3
			C250,186.2,249.7,186.4,249.7,186.9z"/>
		<path class="st15" d="M247.2,185.4c0,0.5,0.3,1,0.7,1.3s0.7,0,0.7-0.4c0-0.5-0.3-1-0.7-1.3S247.2,185,247.2,185.4z"/>
		<path class="st15" d="M244.8,183.9c0,0.5,0.3,1,0.7,1.3s0.7,0,0.7-0.4c0-0.5-0.3-1-0.7-1.3C245.2,183.3,244.8,183.5,244.8,183.9z"
			/>
		<path class="st18" d="M242.4,182.5c0,0.5,0.3,1,0.7,1.3c0.4,0.2,0.7,0,0.7-0.4s-0.3-1-0.7-1.3S242.4,182,242.4,182.5z"/>
	</g>
	<g>
		<path class="st19" d="M256.3,205.2c0,0.5,0.3,1,0.7,1.3c0.4,0.2,0.7,0,0.7-0.4c0-0.5-0.3-1-0.7-1.3
			C256.6,204.5,256.3,204.7,256.3,205.2z"/>
		<path class="st18" d="M253.9,203.7c0,0.5,0.3,1,0.7,1.3s0.7,0,0.7-0.4c0-0.5-0.3-1-0.7-1.3S253.9,203.2,253.9,203.7z"/>
		<path class="st18" d="M251.5,202.2c0,0.5,0.3,1,0.7,1.3c0.4,0.2,0.7,0,0.7-0.4c0-0.5-0.3-1-0.7-1.3
			C251.8,201.6,251.5,201.8,251.5,202.2z"/>
		<path class="st19" d="M249.1,200.7c0,0.5,0.3,1,0.7,1.3c0.4,0.2,0.7,0,0.7-0.4c0-0.5-0.3-1-0.7-1.3
			C249.4,200.1,249.1,200.3,249.1,200.7z"/>
		<path class="st19" d="M246.7,199.3c0,0.5,0.3,1,0.7,1.3s0.7,0,0.7-0.4c0-0.5-0.3-1-0.7-1.3C247,198.6,246.7,198.8,246.7,199.3z"/>
		<path class="st19" d="M244.3,197.8c0,0.5,0.3,1,0.7,1.3c0.4,0.2,0.7,0,0.7-0.4c0-0.5-0.3-1-0.7-1.3S244.3,197.3,244.3,197.8z"/>
		<path class="st19" d="M241.9,196.3c0,0.5,0.3,1,0.7,1.3c0.4,0.2,0.7,0,0.7-0.4c0-0.5-0.3-1-0.7-1.3
			C242.2,195.7,241.9,195.8,241.9,196.3z"/>
	</g>
	<g>
		<path class="st18" d="M256.2,218.1c0,0.5,0.3,1,0.7,1.3s0.7,0,0.7-0.4c0-0.5-0.3-1-0.7-1.3S256.2,217.7,256.2,218.1z"/>
		<path class="st18" d="M253.8,216.6c0,0.5,0.3,1,0.7,1.3c0.4,0.2,0.7,0,0.7-0.4c0-0.5-0.3-1-0.7-1.3
			C254.1,216,253.8,216.2,253.8,216.6z"/>
		<path class="st15" d="M251.4,215.2c0,0.5,0.3,1,0.7,1.3s0.7,0,0.7-0.4c0-0.5-0.3-1-0.7-1.3C251.7,214.5,251.4,214.7,251.4,215.2z"
			/>
		<path class="st15" d="M248.9,213.7c0,0.5,0.3,1,0.7,1.3c0.4,0.2,0.7,0,0.7-0.4c0-0.5-0.3-1-0.7-1.3
			C249.3,213,248.9,213.2,248.9,213.7z"/>
		<path class="st15" d="M246.5,212.2c0,0.5,0.3,1,0.7,1.3c0.4,0.2,0.7,0,0.7-0.4c0-0.5-0.3-1-0.7-1.3
			C246.9,211.6,246.5,211.7,246.5,212.2z"/>
		<path class="st18" d="M244.1,210.7c0,0.5,0.3,1,0.7,1.3c0.4,0.2,0.7,0,0.7-0.4c0-0.5-0.3-1-0.7-1.3
			C244.5,210.1,244.1,210.3,244.1,210.7z"/>
		<path class="st18" d="M241.7,209.2c0,0.5,0.3,1,0.7,1.3s0.7,0,0.7-0.4c0-0.5-0.3-1-0.7-1.3C242,208.6,241.7,208.8,241.7,209.2z"/>
	</g>
</g>
<g>
	<g>
		
			<linearGradient id="SVGID_00000052079009314719711100000013843567592959530165_" gradientUnits="userSpaceOnUse" x1="214.4963" y1="55.7098" x2="227.2493" y2="55.7098">
			<stop  offset="0" style="stop-color:#5DF5FF"/>
			<stop  offset="0.366" style="stop-color:#4FD0FF"/>
			<stop  offset="1" style="stop-color:#3387FF"/>
		</linearGradient>
		<path style="fill:url(#SVGID_00000052079009314719711100000013843567592959530165_);" d="M225.5,65.7l-9.3-5.4
			c-1-0.5-1.7-2-1.7-3.3V47c0-1.3,0.8-1.9,1.7-1.3l9.3,5.4c1,0.5,1.7,2,1.7,3.3v10C227.2,65.7,226.5,66.3,225.5,65.7z"/>
	</g>
	
		<linearGradient id="SVGID_00000095338366825852524740000017911455357562493846_" gradientUnits="userSpaceOnUse" x1="215.0582" y1="55.2978" x2="228.4725" y2="55.2978">
		<stop  offset="0" style="stop-color:#5DF5FF"/>
		<stop  offset="0.366" style="stop-color:#4FD0FF"/>
		<stop  offset="1" style="stop-color:#3387FF"/>
	</linearGradient>
	<path style="fill:url(#SVGID_00000095338366825852524740000017911455357562493846_);" d="M226.8,50.4l-9.3-5.4
		c-0.4-0.2-0.8-0.3-1.1-0.1l0,0l0,0c0,0,0,0,0,0l-1.3,0.7l0,0c0.3-0.2,0.7-0.2,1.2,0.1l9.3,5.4c1,0.5,1.7,2,1.7,3.3v10
		c0,0.7-0.2,1.2-0.6,1.4l1.3-0.7l0,0c0.3-0.2,0.6-0.7,0.6-1.4v-10C228.5,52.4,227.7,50.9,226.8,50.4z"/>
	<path class="st36" d="M226.8,50.4l-9.3-5.4c-0.4-0.2-0.8-0.3-1.1-0.1l0,0l0,0c0,0,0,0,0,0l-1.3,0.7l0,0c0.3-0.2,0.7-0.2,1.2,0.1
		l9.3,5.4c1,0.5,1.7,2,1.7,3.3v10c0,0.7-0.2,1.2-0.6,1.4l1.3-0.7l0,0c0.3-0.2,0.6-0.7,0.6-1.4v-10C228.5,52.4,227.7,50.9,226.8,50.4
		z"/>
</g>
<g id="XMLID_866_">
	<path class="st37" d="M224.7,54.8c-0.2,0.2-0.4,0.4-0.7,0.5c1.1,4.9-1.7,4.9-3.8,3.7c-0.2-0.1-0.4-0.2-0.5-0.3
		c-2-1.5-2.6-2.7-2.6-2.8c0.1,0.1,0.2,0.2,0.4,0.2c0.7,0.4,1.4,0.5,2,0.4c-0.7-0.4-1.3-1.3-1.5-2.1c0.1,0.1,0.2,0.1,0.3,0.2
		c0.1,0.1,0.3,0.1,0.4,0.2c-0.7-0.6-1.3-1.6-1.3-2.5c0.2,0.2,0.5,0.5,0.7,0.6c-0.4-0.6-0.7-1.3-0.7-1.9c0-0.3,0.1-0.6,0.2-0.8
		c0.8,1.6,1.9,3,3.3,3.8c0-0.1,0-0.3,0-0.4c0-1,0.7-1.4,1.6-0.9c0.5,0.3,0.9,0.7,1.2,1.2c0.4,0.1,0.7,0.2,1,0.1
		c-0.1,0.4-0.4,0.6-0.7,0.6C224.2,54.7,224.4,54.8,224.7,54.8z"/>
</g>
<g>
	<g>
		
			<linearGradient id="SVGID_00000163066136347549560030000016828756972976019849_" gradientUnits="userSpaceOnUse" x1="228.7483" y1="36.7456" x2="241.5013" y2="36.7456">
			<stop  offset="0" style="stop-color:#FF4593"/>
			<stop  offset="0.4163" style="stop-color:#E73B94"/>
			<stop  offset="1" style="stop-color:#BF2A97"/>
		</linearGradient>
		<path style="fill:url(#SVGID_00000163066136347549560030000016828756972976019849_);" d="M239.8,46.7l-9.3-5.4
			c-1-0.5-1.7-2-1.7-3.3V28c0-1.3,0.8-1.9,1.7-1.3l9.3,5.4c1,0.5,1.7,2,1.7,3.3v10C241.5,46.7,240.7,47.3,239.8,46.7z"/>
	</g>
	
		<linearGradient id="SVGID_00000181052866259056157300000014664269142451704481_" gradientUnits="userSpaceOnUse" x1="229.3102" y1="36.3336" x2="242.7246" y2="36.3336">
		<stop  offset="0" style="stop-color:#FF4593"/>
		<stop  offset="0.4163" style="stop-color:#E73B94"/>
		<stop  offset="1" style="stop-color:#BF2A97"/>
	</linearGradient>
	<path style="fill:url(#SVGID_00000181052866259056157300000014664269142451704481_);" d="M241,31.4l-9.3-5.4
		c-0.4-0.2-0.8-0.3-1.1-0.1l0,0l0,0c0,0,0,0,0,0l-1.3,0.7l0,0c0.3-0.2,0.7-0.2,1.2,0.1l9.3,5.4c1,0.5,1.7,2,1.7,3.3v10
		c0,0.7-0.2,1.2-0.6,1.4l1.3-0.7l0,0c0.3-0.2,0.6-0.7,0.6-1.4v-10C242.7,33.4,242,32,241,31.4z"/>
	<path class="st36" d="M241,31.4l-9.3-5.4c-0.4-0.2-0.8-0.3-1.1-0.1l0,0l0,0c0,0,0,0,0,0l-1.3,0.7l0,0c0.3-0.2,0.7-0.2,1.2,0.1
		l9.3,5.4c1,0.5,1.7,2,1.7,3.3v10c0,0.7-0.2,1.2-0.6,1.4l1.3-0.7l0,0c0.3-0.2,0.6-0.7,0.6-1.4v-10C242.7,33.4,242,32,241,31.4z"/>
</g>
<g>
	<g>
		<g>
			
				<linearGradient id="SVGID_00000062153462488965586850000013971085677096802475_" gradientUnits="userSpaceOnUse" x1="276.8557" y1="82.5326" x2="289.6088" y2="82.5326">
				<stop  offset="0" style="stop-color:#5DF5FF"/>
				<stop  offset="0.366" style="stop-color:#4FD0FF"/>
				<stop  offset="1" style="stop-color:#3387FF"/>
			</linearGradient>
			<path style="fill:url(#SVGID_00000062153462488965586850000013971085677096802475_);" d="M287.9,92.5l-9.3-5.4
				c-1-0.5-1.7-2-1.7-3.3v-10c0-1.3,0.8-1.9,1.7-1.3l9.3,5.4c1,0.5,1.7,2,1.7,3.3v10C289.6,92.5,288.8,93.1,287.9,92.5z"/>
		</g>
		
			<linearGradient id="SVGID_00000163073380931501357940000014663719737206814082_" gradientUnits="userSpaceOnUse" x1="277.4177" y1="82.1205" x2="290.832" y2="82.1205">
			<stop  offset="0" style="stop-color:#5DF5FF"/>
			<stop  offset="0.366" style="stop-color:#4FD0FF"/>
			<stop  offset="1" style="stop-color:#3387FF"/>
		</linearGradient>
		<path style="fill:url(#SVGID_00000163073380931501357940000014663719737206814082_);" d="M289.1,77.2l-9.3-5.4
			c-0.4-0.2-0.8-0.3-1.1-0.1l0,0l0,0c0,0,0,0,0,0l-1.3,0.7l0,0c0.3-0.2,0.7-0.2,1.2,0.1l9.3,5.4c1,0.5,1.7,2,1.7,3.3v10
			c0,0.7-0.2,1.2-0.6,1.4l1.3-0.7l0,0c0.3-0.2,0.6-0.7,0.6-1.4v-10C290.8,79.2,290.1,77.7,289.1,77.2z"/>
		<path class="st36" d="M289.1,77.2l-9.3-5.4c-0.4-0.2-0.8-0.3-1.1-0.1l0,0l0,0c0,0,0,0,0,0l-1.3,0.7l0,0c0.3-0.2,0.7-0.2,1.2,0.1
			l9.3,5.4c1,0.5,1.7,2,1.7,3.3v10c0,0.7-0.2,1.2-0.6,1.4l1.3-0.7l0,0c0.3-0.2,0.6-0.7,0.6-1.4v-10
			C290.8,79.2,290.1,77.7,289.1,77.2z"/>
	</g>
	<g id="XMLID_00000004546207021919335670000013592595323244224166_">
		<path class="st37" d="M284,77.8c0.4,0.2,0.7,0.5,1,0.7l-0.1,1.6c-0.2-0.1-0.4-0.3-0.6-0.4c-0.6-0.4-0.9,0-0.9,0.7l0,0.4l1.2,0.7
			l0,1.6l-1.2-0.7l0,5.4l-1.9-1.1l0-5.4l-0.8-0.5l0-1.6l0.8,0.5l0-0.3c0-0.8,0.2-1.6,0.8-1.9C282.8,77.3,283.5,77.4,284,77.8z"/>
	</g>
</g>
<g>
	<g>
		<g>
			<path class="st37" d="M235.1,36c-1-0.6-1.8-0.6-2.5-0.3c0,0-0.1,0-0.1,0.1l0.8,1.4c0,0,0.1,0,0.1-0.1c0.4-0.2,1-0.2,1.6,0.2
				c0.6,0.4,1.2,1,1.6,1.7c0,0,0.1,0.1,0.1,0.1l0.8-0.5c0,0-0.1-0.1-0.1-0.1C237,37.5,236.1,36.5,235.1,36z"/>
			<path class="st37" d="M235.1,38.6c-0.3-0.2-0.6-0.2-0.8-0.1c0,0-0.1,0-0.1,0.1L235,40l0.1,0.1l0.1,0l0.8-0.5c0,0-0.1-0.1-0.1-0.1
				C235.7,39.1,235.4,38.8,235.1,38.6z"/>
			<path class="st37" d="M239.2,37.6c-1-1.8-2.5-3.4-4.1-4.3c-1.6-0.9-3.1-1-4.1-0.4c0,0-0.1,0-0.1,0.1l0.8,1.4c0,0,0.1,0,0.1-0.1
				c0.8-0.5,2-0.4,3.3,0.3c1.3,0.7,2.4,2,3.3,3.5c0,0,0.1,0.1,0.1,0.1l0.8-0.5C239.3,37.7,239.3,37.7,239.2,37.6z"/>
		</g>
	</g>
</g>
<g>
	<g>
		
			<linearGradient id="SVGID_00000067936728086945796100000004731379913711583922_" gradientUnits="userSpaceOnUse" x1="164.2119" y1="45.8559" x2="176.965" y2="45.8559">
			<stop  offset="0" style="stop-color:#5DF5FF"/>
			<stop  offset="0.366" style="stop-color:#4FD0FF"/>
			<stop  offset="1" style="stop-color:#3387FF"/>
		</linearGradient>
		<path style="fill:url(#SVGID_00000067936728086945796100000004731379913711583922_);" d="M175.2,55.9l-9.3-5.4
			c-1-0.5-1.7-2-1.7-3.3v-10c0-1.3,0.8-1.9,1.7-1.3l9.3,5.4c1,0.5,1.7,2,1.7,3.3v10C177,55.8,176.2,56.4,175.2,55.9z"/>
		<path class="st37" d="M173.7,45.8c-1-2.5-2.5-2-2.5-2c-0.1,0-0.3,0-0.4-0.1l-0.4-0.2c-0.1-0.1-0.3-0.2-0.4-0.4
			c0,0-1.5-2.2-2.5-0.9c-1,1.3-0.6,3.6-0.6,3.6c0.1,0.5,0.3,1,0.7,1.2c0.4,0.2,1.4-0.6,1.4-0.6c0.1-0.1,0.2-0.1,0.4,0l2.4,1.4
			c0.1,0.1,0.3,0.3,0.4,0.4c0,0,1,1.9,1.4,2.2c0.4,0.3,0.7,0.1,0.7-0.4C174.3,50.1,174.7,48.3,173.7,45.8z M169.8,44.3v0.6v0.1l0,0
			l-0.5-0.3v0.6v0.1l0,0l-0.5-0.3l0,0v-0.1v-0.6l-0.5-0.3l0,0v-0.1v-0.6v-0.1l0,0l0.5,0.3V43v-0.1l0,0l0.5,0.3l0,0v0.1v0.6
			L169.8,44.3L169.8,44.3L169.8,44.3z M172.1,47c-0.2-0.1-0.4-0.5-0.4-0.7c0-0.3,0.2-0.4,0.4-0.2c0.2,0.1,0.4,0.5,0.4,0.7
			S172.3,47.2,172.1,47z M172.1,45.7c-0.2-0.1-0.4-0.5-0.4-0.7s0.2-0.4,0.4-0.2c0.2,0.1,0.4,0.5,0.4,0.7
			C172.5,45.8,172.3,45.9,172.1,45.7z M173.1,47c-0.2-0.1-0.4-0.5-0.4-0.7c0-0.3,0.2-0.4,0.4-0.2c0.2,0.1,0.4,0.5,0.4,0.7
			C173.5,47.1,173.3,47.2,173.1,47z"/>
	</g>
	
		<linearGradient id="SVGID_00000134221019535228378270000003889824052597044608_" gradientUnits="userSpaceOnUse" x1="164.7739" y1="45.4439" x2="178.1882" y2="45.4439">
		<stop  offset="0" style="stop-color:#5DF5FF"/>
		<stop  offset="0.366" style="stop-color:#4FD0FF"/>
		<stop  offset="1" style="stop-color:#3387FF"/>
	</linearGradient>
	<path style="fill:url(#SVGID_00000134221019535228378270000003889824052597044608_);" d="M176.5,40.5l-9.3-5.4
		c-0.4-0.2-0.8-0.3-1.1-0.1l0,0l0,0c0,0,0,0,0,0l-1.3,0.7l0,0c0.3-0.2,0.7-0.2,1.2,0.1l9.3,5.4c1,0.5,1.7,2,1.7,3.3v10
		c0,0.7-0.2,1.2-0.6,1.4l1.3-0.7l0,0c0.3-0.2,0.6-0.7,0.6-1.4v-10C178.2,42.5,177.4,41.1,176.5,40.5z"/>
	<path class="st36" d="M176.5,40.5l-9.3-5.4c-0.4-0.2-0.8-0.3-1.1-0.1l0,0l0,0c0,0,0,0,0,0l-1.3,0.7l0,0c0.3-0.2,0.7-0.2,1.2,0.1
		l9.3,5.4c1,0.5,1.7,2,1.7,3.3v10c0,0.7-0.2,1.2-0.6,1.4l1.3-0.7l0,0c0.3-0.2,0.6-0.7,0.6-1.4v-10C178.2,42.5,177.4,41.1,176.5,40.5
		z"/>
</g>
<g>
	<g>
		
			<linearGradient id="SVGID_00000106119526027014236370000011521612425020256941_" gradientUnits="userSpaceOnUse" x1="251.3185" y1="31.9372" x2="264.0715" y2="31.9372">
			<stop  offset="0" style="stop-color:#5DF5FF"/>
			<stop  offset="0.366" style="stop-color:#4FD0FF"/>
			<stop  offset="1" style="stop-color:#3387FF"/>
		</linearGradient>
		<path style="fill:url(#SVGID_00000106119526027014236370000011521612425020256941_);" d="M262.3,41.9l-9.3-5.4
			c-1-0.5-1.7-2-1.7-3.3v-10c0-1.3,0.8-1.9,1.7-1.3l9.3,5.4c1,0.5,1.7,2,1.7,3.3v10C264.1,41.9,263.3,42.5,262.3,41.9z"/>
		<path class="st37" d="M258.1,28.4l0.8,2.4c0.1,0.2,0.2,0.4,0.3,0.5l1.8,1.4c0.4,0.3,0.5,0.8,0.2,1l-1.3,0.7
			c-0.1,0.1-0.1,0.2-0.1,0.4l0.3,2.3c0.1,0.4-0.3,0.5-0.6,0.2l-1.6-1.9c-0.1-0.1-0.3-0.2-0.4-0.2l-1.6,0c-0.3,0-0.7-0.5-0.6-0.9
			l0.3-1.9c0-0.1,0-0.3-0.1-0.5l-1.3-2.2c-0.3-0.4-0.1-0.8,0.2-0.7l1.8,0.7c0.1,0.1,0.3,0,0.3-0.1l0.8-1.4
			C257.5,27.6,257.9,27.9,258.1,28.4z"/>
	</g>
	
		<linearGradient id="SVGID_00000037674523283724011670000017192555314692235704_" gradientUnits="userSpaceOnUse" x1="251.8804" y1="31.5251" x2="265.2947" y2="31.5251">
		<stop  offset="0" style="stop-color:#5DF5FF"/>
		<stop  offset="0.366" style="stop-color:#4FD0FF"/>
		<stop  offset="1" style="stop-color:#3387FF"/>
	</linearGradient>
	<path style="fill:url(#SVGID_00000037674523283724011670000017192555314692235704_);" d="M263.6,26.6l-9.3-5.4
		c-0.4-0.2-0.8-0.3-1.1-0.1l0,0l0,0c0,0,0,0,0,0l-1.3,0.7l0,0c0.3-0.2,0.7-0.2,1.2,0.1l9.3,5.4c1,0.5,1.7,2,1.7,3.3v10
		c0,0.7-0.2,1.2-0.6,1.4l1.3-0.7l0,0c0.3-0.2,0.6-0.7,0.6-1.4v-10C265.3,28.6,264.5,27.1,263.6,26.6z"/>
	<path class="st36" d="M263.6,26.6l-9.3-5.4c-0.4-0.2-0.8-0.3-1.1-0.1l0,0l0,0c0,0,0,0,0,0l-1.3,0.7l0,0c0.3-0.2,0.7-0.2,1.2,0.1
		l9.3,5.4c1,0.5,1.7,2,1.7,3.3v10c0,0.7-0.2,1.2-0.6,1.4l1.3-0.7l0,0c0.3-0.2,0.6-0.7,0.6-1.4v-10C265.3,28.6,264.5,27.1,263.6,26.6
		z"/>
</g>
<g>
	<g>
		
			<linearGradient id="SVGID_00000181771480670569615940000008429480355080284586_" gradientUnits="userSpaceOnUse" x1="252.3706" y1="81.8681" x2="265.1236" y2="81.8681">
			<stop  offset="0" style="stop-color:#8320FD"/>
			<stop  offset="1" style="stop-color:#5D4294"/>
		</linearGradient>
		<path style="fill:url(#SVGID_00000181771480670569615940000008429480355080284586_);" d="M263.4,91.9l-9.3-5.4
			c-1-0.5-1.7-2-1.7-3.3v-10c0-1.3,0.8-1.9,1.7-1.3l9.3,5.4c1,0.5,1.7,2,1.7,3.3v10C265.1,91.8,264.4,92.4,263.4,91.9z"/>
		<path class="st37" d="M258.7,78.3c-2.1-1.2-3.8-0.8-3.8,0.9c0,1.1,0.7,2.4,1.7,3.6v1.5l1.3-0.3l0,0c0.2,0.2,0.5,0.4,0.8,0.5
			c2.1,1.2,3.8,0.8,3.8-0.9C262.5,81.8,260.8,79.5,258.7,78.3z"/>
	</g>
	
		<linearGradient id="SVGID_00000016755439546772330500000010034463535854909838_" gradientUnits="userSpaceOnUse" x1="252.9325" y1="81.456" x2="266.3469" y2="81.456">
		<stop  offset="0" style="stop-color:#8320FD"/>
		<stop  offset="1" style="stop-color:#5D4294"/>
	</linearGradient>
	<path style="fill:url(#SVGID_00000016755439546772330500000010034463535854909838_);" d="M264.6,76.5l-9.3-5.4
		c-0.4-0.2-0.8-0.3-1.1-0.1l0,0l0,0c0,0,0,0,0,0l-1.3,0.7l0,0c0.3-0.2,0.7-0.2,1.2,0.1l9.3,5.4c1,0.5,1.7,2,1.7,3.3v10
		c0,0.7-0.2,1.2-0.6,1.4l1.3-0.7l0,0c0.3-0.2,0.6-0.7,0.6-1.4v-10C266.3,78.5,265.6,77.1,264.6,76.5z"/>
	<path class="st36" d="M264.6,76.5l-9.3-5.4c-0.4-0.2-0.8-0.3-1.1-0.1l0,0l0,0c0,0,0,0,0,0l-1.3,0.7l0,0c0.3-0.2,0.7-0.2,1.2,0.1
		l9.3,5.4c1,0.5,1.7,2,1.7,3.3v10c0,0.7-0.2,1.2-0.6,1.4l1.3-0.7l0,0c0.3-0.2,0.6-0.7,0.6-1.4v-10C266.3,78.5,265.6,77.1,264.6,76.5
		z"/>
</g>
<g>
	<g>
		
			<linearGradient id="SVGID_00000177459557677918244900000000259005565701391036_" gradientUnits="userSpaceOnUse" x1="252.6233" y1="106.957" x2="265.3763" y2="106.957">
			<stop  offset="0" style="stop-color:#FF4593"/>
			<stop  offset="0.4163" style="stop-color:#E73B94"/>
			<stop  offset="1" style="stop-color:#BF2A97"/>
		</linearGradient>
		<path style="fill:url(#SVGID_00000177459557677918244900000000259005565701391036_);" d="M263.7,117l-9.3-5.4
			c-1-0.5-1.7-2-1.7-3.3v-10c0-1.3,0.8-1.9,1.7-1.3l9.3,5.4c1,0.5,1.7,2,1.7,3.3v10C265.4,116.9,264.6,117.5,263.7,117z"/>
		<path class="st37" d="M260.7,104.3c0.1,0.1,0.2,0.1,0.3,0.2c0.7,0.5,1.5,1.6,1.6,3v0.4c-0.1,1.2-1,2.2-3.6,2.7
			c-2.6-3.5-3.5-5.5-3.6-6.8v-0.4c0.1-1.3,0.9-1.5,1.6-1.1c0.1,0.1,0.2,0.1,0.3,0.2c0.8,0.5,1.2,1.1,1.7,1.9
			C259.4,103.9,259.8,103.8,260.7,104.3"/>
	</g>
	
		<linearGradient id="SVGID_00000142156815523932728670000003886654705066149531_" gradientUnits="userSpaceOnUse" x1="253.1852" y1="106.545" x2="266.5996" y2="106.545">
		<stop  offset="0" style="stop-color:#FF4593"/>
		<stop  offset="0.4163" style="stop-color:#E73B94"/>
		<stop  offset="1" style="stop-color:#BF2A97"/>
	</linearGradient>
	<path style="fill:url(#SVGID_00000142156815523932728670000003886654705066149531_);" d="M264.9,101.6l-9.3-5.4
		c-0.4-0.2-0.8-0.3-1.1-0.1l0,0l0,0c0,0,0,0,0,0l-1.3,0.7l0,0c0.3-0.2,0.7-0.2,1.2,0.1l9.3,5.4c1,0.5,1.7,2,1.7,3.3v10
		c0,0.7-0.2,1.2-0.6,1.4l1.3-0.7l0,0c0.3-0.2,0.6-0.7,0.6-1.4v-10C266.6,103.6,265.8,102.2,264.9,101.6z"/>
	<path class="st36" d="M264.9,101.6l-9.3-5.4c-0.4-0.2-0.8-0.3-1.1-0.1l0,0l0,0c0,0,0,0,0,0l-1.3,0.7l0,0c0.3-0.2,0.7-0.2,1.2,0.1
		l9.3,5.4c1,0.5,1.7,2,1.7,3.3v10c0,0.7-0.2,1.2-0.6,1.4l1.3-0.7l0,0c0.3-0.2,0.6-0.7,0.6-1.4v-10
		C266.6,103.6,265.8,102.2,264.9,101.6z"/>
</g>
<g>
	<g>
		
			<linearGradient id="SVGID_00000095319151981824020090000013187421340974568857_" gradientUnits="userSpaceOnUse" x1="200.52" y1="30.4241" x2="213.273" y2="30.4241">
			<stop  offset="0" style="stop-color:#8320FD"/>
			<stop  offset="1" style="stop-color:#5D4294"/>
		</linearGradient>
		<path style="fill:url(#SVGID_00000095319151981824020090000013187421340974568857_);" d="M211.6,40.4l-9.3-5.4
			c-1-0.5-1.7-2-1.7-3.3v-10c0-1.3,0.8-1.9,1.7-1.3l9.3,5.4c1,0.5,1.7,2,1.7,3.3v10C213.3,40.4,212.5,41,211.6,40.4z"/>
		<path class="st37" d="M208.9,27.9l-2.6-1l-0.8-0.3v0.9v3.4c-0.1-0.1-0.2-0.2-0.3-0.3c-0.6-0.4-1.1-0.1-1.1,0.6
			c0,0.7,0.5,1.6,1.1,1.9c0.6,0.4,1.1,0.1,1.1-0.6v-4.7l2.6,1v3.3c-0.1-0.1-0.2-0.2-0.3-0.3c-0.6-0.4-1.1-0.1-1.1,0.6
			s0.5,1.6,1.1,1.9c0.6,0.4,1.1,0.1,1.1-0.6v-4.7v-0.9L208.9,27.9z"/>
	</g>
	
		<linearGradient id="SVGID_00000137835628430872308310000012851621820473620866_" gradientUnits="userSpaceOnUse" x1="201.082" y1="30.0121" x2="214.4963" y2="30.0121">
		<stop  offset="0" style="stop-color:#8320FD"/>
		<stop  offset="1" style="stop-color:#5D4294"/>
	</linearGradient>
	<path style="fill:url(#SVGID_00000137835628430872308310000012851621820473620866_);" d="M212.8,25.1l-9.3-5.4
		c-0.4-0.2-0.8-0.3-1.1-0.1l0,0l0,0c0,0,0,0,0,0l-1.3,0.7l0,0c0.3-0.2,0.7-0.2,1.2,0.1l9.3,5.4c1,0.5,1.7,2,1.7,3.3v10
		c0,0.7-0.2,1.2-0.6,1.4l1.3-0.7l0,0c0.3-0.2,0.6-0.7,0.6-1.4v-10C214.5,27.1,213.7,25.6,212.8,25.1z"/>
	<path class="st36" d="M212.8,25.1l-9.3-5.4c-0.4-0.2-0.8-0.3-1.1-0.1l0,0l0,0c0,0,0,0,0,0l-1.3,0.7l0,0c0.3-0.2,0.7-0.2,1.2,0.1
		l9.3,5.4c1,0.5,1.7,2,1.7,3.3v10c0,0.7-0.2,1.2-0.6,1.4l1.3-0.7l0,0c0.3-0.2,0.6-0.7,0.6-1.4v-10C214.5,27.1,213.7,25.6,212.8,25.1
		z"/>
</g>
<g>
	<g>
		<g>
			
				<linearGradient id="SVGID_00000155117563937398364650000005778570757730075301_" gradientUnits="userSpaceOnUse" x1="189.8043" y1="47.9301" x2="201.7508" y2="47.9301">
				<stop  offset="0" style="stop-color:#FF4593"/>
				<stop  offset="0.4163" style="stop-color:#E73B94"/>
				<stop  offset="1" style="stop-color:#BF2A97"/>
			</linearGradient>
			<path style="fill:url(#SVGID_00000155117563937398364650000005778570757730075301_);" d="M200.1,57.3l-8.7-5
				c-0.9-0.5-1.6-1.9-1.6-3.1v-9.4c0-1.2,0.7-1.7,1.6-1.2l8.7,5c0.9,0.5,1.6,1.9,1.6,3.1v9.4C201.8,57.3,201,57.8,200.1,57.3z"/>
		</g>
		
			<linearGradient id="SVGID_00000147196339871155493830000007570689207033885887_" gradientUnits="userSpaceOnUse" x1="190.3307" y1="47.5441" x2="202.8967" y2="47.5441">
			<stop  offset="0" style="stop-color:#FF4593"/>
			<stop  offset="0.4163" style="stop-color:#E73B94"/>
			<stop  offset="1" style="stop-color:#BF2A97"/>
		</linearGradient>
		<path style="fill:url(#SVGID_00000147196339871155493830000007570689207033885887_);" d="M201.3,42.9l-8.7-5
			c-0.4-0.2-0.7-0.2-1-0.1l0,0l0,0c0,0,0,0,0,0l-1.2,0.7l0,0c0.3-0.2,0.7-0.2,1.1,0.1l8.7,5c0.9,0.5,1.6,1.9,1.6,3.1v9.4
			c0,0.7-0.2,1.1-0.6,1.3l1.2-0.7l0,0c0.3-0.2,0.5-0.7,0.5-1.3V46C202.9,44.8,202.2,43.4,201.3,42.9z"/>
		<path class="st36" d="M201.3,42.9l-8.7-5c-0.4-0.2-0.7-0.2-1-0.1l0,0l0,0c0,0,0,0,0,0l-1.2,0.7l0,0c0.3-0.2,0.7-0.2,1.1,0.1l8.7,5
			c0.9,0.5,1.6,1.9,1.6,3.1v9.4c0,0.7-0.2,1.1-0.6,1.3l1.2-0.7l0,0c0.3-0.2,0.5-0.7,0.5-1.3V46C202.9,44.8,202.2,43.4,201.3,42.9z"
			/>
	</g>
	<path class="st37" d="M194.6,43.8c-0.3-0.5-1-0.3-1,0.2v6.5c0,0.4,0.5,0.8,0.9,0.5l3.2-1.9c0.3-0.2,0.3-0.5,0.1-0.8L194.6,43.8z"/>
</g>
<g>
	<g>
		<g>
			
				<linearGradient id="SVGID_00000098934558264256776300000001192622294224862337_" gradientUnits="userSpaceOnUse" x1="204.1917" y1="81.7087" x2="216.9446" y2="81.7087">
				<stop  offset="0" style="stop-color:#8320FD"/>
				<stop  offset="1" style="stop-color:#5D4294"/>
			</linearGradient>
			<path style="fill:url(#SVGID_00000098934558264256776300000001192622294224862337_);" d="M215.2,91.7l-9.3-5.4
				c-1-0.5-1.7-2-1.7-3.3V73c0-1.3,0.8-1.9,1.7-1.3l9.3,5.4c1,0.5,1.7,2,1.7,3.3v10C216.9,91.7,216.2,92.3,215.2,91.7z"/>
		</g>
		
			<linearGradient id="SVGID_00000150069565787857957300000001870465863733443979_" gradientUnits="userSpaceOnUse" x1="204.7536" y1="81.2967" x2="218.1679" y2="81.2967">
			<stop  offset="0" style="stop-color:#8320FD"/>
			<stop  offset="1" style="stop-color:#5D4294"/>
		</linearGradient>
		<path style="fill:url(#SVGID_00000150069565787857957300000001870465863733443979_);" d="M216.4,76.4l-9.3-5.4
			c-0.4-0.2-0.8-0.3-1.1-0.1l0,0l0,0c0,0,0,0,0,0l-1.3,0.7l0,0c0.3-0.2,0.7-0.2,1.2,0.1l9.3,5.4c1,0.5,1.7,2,1.7,3.3v10
			c0,0.7-0.2,1.2-0.6,1.4l1.3-0.7l0,0c0.3-0.2,0.6-0.7,0.6-1.4v-10C218.2,78.4,217.4,76.9,216.4,76.4z"/>
		<path class="st36" d="M216.4,76.4l-9.3-5.4c-0.4-0.2-0.8-0.3-1.1-0.1l0,0l0,0c0,0,0,0,0,0l-1.3,0.7l0,0c0.3-0.2,0.7-0.2,1.2,0.1
			l9.3,5.4c1,0.5,1.7,2,1.7,3.3v10c0,0.7-0.2,1.2-0.6,1.4l1.3-0.7l0,0c0.3-0.2,0.6-0.7,0.6-1.4v-10
			C218.2,78.4,217.4,76.9,216.4,76.4z"/>
	</g>
	<g id="XMLID_873_">
		<g>
			<path class="st37" d="M213.5,78.6c0.9,0.5,1.7,1.8,1.7,2.9l0,5.8c0,1.1-0.8,1.5-1.7,1l-5.1-2.9c-0.9-0.5-1.7-1.8-1.7-2.9l0-5.8
				c0-1.1,0.8-1.5,1.7-1L213.5,78.6z M214.3,86.9l0-5.8c0-0.6-0.4-1.3-0.9-1.5l-5.1-2.9c-0.5-0.3-0.9-0.1-0.9,0.5l0,5.8
				c0,0.6,0.4,1.3,0.9,1.5l5.1,2.9C213.9,87.7,214.3,87.4,214.3,86.9"/>
		</g>
		<g>
			<path class="st37" d="M213.2,80c0.3,0.2,0.6,0.6,0.6,1c0,0.4-0.3,0.5-0.6,0.3c-0.3-0.2-0.6-0.6-0.6-1S212.9,79.8,213.2,80z"/>
		</g>
		<g>
			<path class="st37" d="M210.9,79.7c1.1,0.6,2,2.2,2,3.4c0,1.2-0.9,1.8-2,1.1c-1.1-0.6-2-2.2-2-3.4C209,79.6,209.9,79.1,210.9,79.7
				z M210.9,83.3c0.7,0.4,1.2,0.1,1.2-0.7c0-0.7-0.5-1.7-1.2-2c-0.7-0.4-1.2-0.1-1.2,0.7C209.8,82.1,210.3,83,210.9,83.3"/>
		</g>
	</g>
</g>
<g>
	<g>
		<g>
			<g>
				
					<linearGradient id="SVGID_00000031170492649377894510000013740671207164473012_" gradientUnits="userSpaceOnUse" x1="279.4293" y1="56.0443" x2="291.3758" y2="56.0443">
					<stop  offset="0" style="stop-color:#FF4593"/>
					<stop  offset="0.4163" style="stop-color:#E73B94"/>
					<stop  offset="1" style="stop-color:#BF2A97"/>
				</linearGradient>
				<path style="fill:url(#SVGID_00000031170492649377894510000013740671207164473012_);" d="M289.8,65.4l-8.7-5
					c-0.9-0.5-1.6-1.9-1.6-3.1v-9.4c0-1.2,0.7-1.7,1.6-1.2l8.7,5c0.9,0.5,1.6,1.9,1.6,3.1v9.4C291.4,65.4,290.7,65.9,289.8,65.4z"/>
			</g>
			
				<linearGradient id="SVGID_00000098904973355854208930000016211136148683447197_" gradientUnits="userSpaceOnUse" x1="279.9557" y1="55.6583" x2="292.5217" y2="55.6583">
				<stop  offset="0" style="stop-color:#FF4593"/>
				<stop  offset="0.4163" style="stop-color:#E73B94"/>
				<stop  offset="1" style="stop-color:#BF2A97"/>
			</linearGradient>
			<path style="fill:url(#SVGID_00000098904973355854208930000016211136148683447197_);" d="M290.9,51l-8.7-5
				c-0.4-0.2-0.7-0.2-1-0.1l0,0l0,0c0,0,0,0,0,0l-1.2,0.7l0,0c0.3-0.2,0.7-0.2,1.1,0.1l8.7,5c0.9,0.5,1.6,1.9,1.6,3.1v9.4
				c0,0.7-0.2,1.1-0.6,1.3l1.2-0.7l0,0c0.3-0.2,0.5-0.7,0.5-1.3v-9.4C292.5,52.9,291.8,51.6,290.9,51z"/>
			<path class="st36" d="M290.9,51l-8.7-5c-0.4-0.2-0.7-0.2-1-0.1l0,0l0,0c0,0,0,0,0,0l-1.2,0.7l0,0c0.3-0.2,0.7-0.2,1.1,0.1l8.7,5
				c0.9,0.5,1.6,1.9,1.6,3.1v9.4c0,0.7-0.2,1.1-0.6,1.3l1.2-0.7l0,0c0.3-0.2,0.5-0.7,0.5-1.3v-9.4C292.5,52.9,291.8,51.6,290.9,51z"
				/>
		</g>
	</g>
	<g id="XMLID_279_">
		<path class="st37" d="M285.2,51.7c1.3,0.8,2.5,2.2,2.6,3.8c0.2,1.9-0.6,3.3-2.1,2.4c-0.1,0-0.1-0.1-0.2-0.1
			c-0.4-0.3-0.9-0.9-0.9-1.1c-0.2,1-0.8,3.1-1.5,3.3c-0.2-1.8,0.7-3.9,0.9-5.1c-0.4-0.9,0-2,0.6-1.7c0.1,0,0.2,0.1,0.3,0.2
			c1,1.1-0.9,2.4,0.4,3.4c0.1,0.1,0.1,0.1,0.2,0.1c1.2,0.7,1.7-1.8,0.9-3.2c-0.3-0.6-0.8-1-1.2-1.3c-1.1-0.6-2.3-0.2-2.1,1.4
			c0.1,0.5,0.5,1,0.2,1.4c-0.7-0.6-1-1.7-1-2.4c0.1-1.5,1.2-1.9,2.4-1.4C284.9,51.6,285,51.6,285.2,51.7z"/>
	</g>
</g>
<g>
	<g>
		<g>
			
				<linearGradient id="SVGID_00000114045624510440330290000002915182264148255106_" gradientUnits="userSpaceOnUse" x1="250.4013" y1="57.7178" x2="263.1543" y2="57.7178">
				<stop  offset="0" style="stop-color:#5DF5FF"/>
				<stop  offset="0.366" style="stop-color:#4FD0FF"/>
				<stop  offset="1" style="stop-color:#3387FF"/>
			</linearGradient>
			<path style="fill:url(#SVGID_00000114045624510440330290000002915182264148255106_);" d="M261.4,67.7l-9.3-5.4
				c-1-0.5-1.7-2-1.7-3.3V49c0-1.3,0.8-1.9,1.7-1.3l9.3,5.4c1,0.5,1.7,2,1.7,3.3v10C263.2,67.7,262.4,68.3,261.4,67.7z"/>
		</g>
		
			<linearGradient id="SVGID_00000159450539498801442260000018392408770785100676_" gradientUnits="userSpaceOnUse" x1="250.9632" y1="57.3057" x2="264.3776" y2="57.3057">
			<stop  offset="0" style="stop-color:#5DF5FF"/>
			<stop  offset="0.366" style="stop-color:#4FD0FF"/>
			<stop  offset="1" style="stop-color:#3387FF"/>
		</linearGradient>
		<path style="fill:url(#SVGID_00000159450539498801442260000018392408770785100676_);" d="M262.7,52.4l-9.3-5.4
			c-0.4-0.2-0.8-0.3-1.1-0.1l0,0l0,0c0,0,0,0,0,0l-1.3,0.7l0,0c0.3-0.2,0.7-0.2,1.2,0.1l9.3,5.4c1,0.5,1.7,2,1.7,3.3v10
			c0,0.7-0.2,1.2-0.6,1.4l1.3-0.7l0,0c0.3-0.2,0.6-0.7,0.6-1.4v-10C264.4,54.4,263.6,52.9,262.7,52.4z"/>
		<path class="st36" d="M262.7,52.4l-9.3-5.4c-0.4-0.2-0.8-0.3-1.1-0.1l0,0l0,0c0,0,0,0,0,0l-1.3,0.7l0,0c0.3-0.2,0.7-0.2,1.2,0.1
			l9.3,5.4c1,0.5,1.7,2,1.7,3.3v10c0,0.7-0.2,1.2-0.6,1.4l1.3-0.7l0,0c0.3-0.2,0.6-0.7,0.6-1.4v-10
			C264.4,54.4,263.6,52.9,262.7,52.4z"/>
	</g>
	<g id="XMLID_257_">
		<path class="st37" d="M258.4,57.3l-0.3,2c-0.1,0.6,0,1,0.2,1.1c0.4,0.3,1-0.1,1-1.4c0-1.5-0.8-3.1-2.4-4c-1.5-0.9-2.9-0.3-2.9,1.9
			c0,1.9,1.1,3.6,2.6,4.5c0.5,0.3,1.1,0.5,1.5,0.5l0.2,0.8c-0.6,0-1.1-0.2-1.8-0.6c-1.7-1-3.1-3.2-3.1-5.4c0-2.3,1.5-3.5,3.8-2.2
			c1.8,1,3,3.1,3,5.1c0,1.7-0.8,2.3-1.9,1.6c-0.5-0.3-0.8-0.7-0.9-1.4c-0.3,0.4-0.8,0.4-1.3,0.1c-0.7-0.4-1.1-1.2-1.1-2.1
			c0-1.4,0.9-2.2,2.3-1.3C257.6,56.6,258.1,57,258.4,57.3z M257.2,58.4l0.1-1c-0.1-0.1-0.2-0.2-0.3-0.2c-0.7-0.4-1.2,0.1-1.2,1
			c0,0.4,0.2,0.8,0.5,1C256.7,59.3,257.1,59,257.2,58.4"/>
	</g>
</g>
<g>
	<g>
		<g>
			
				<linearGradient id="SVGID_00000137822987785643168310000000690515533690191517_" gradientUnits="userSpaceOnUse" x1="275.5084" y1="30.4241" x2="288.2614" y2="30.4241">
				<stop  offset="0" style="stop-color:#8320FD"/>
				<stop  offset="1" style="stop-color:#5D4294"/>
			</linearGradient>
			<path style="fill:url(#SVGID_00000137822987785643168310000000690515533690191517_);" d="M286.5,40.4l-9.3-5.4
				c-1-0.5-1.7-2-1.7-3.3v-10c0-1.3,0.8-1.9,1.7-1.3l9.3,5.4c1,0.5,1.7,2,1.7,3.3v10C288.3,40.4,287.5,41,286.5,40.4z"/>
		</g>
		
			<linearGradient id="SVGID_00000016062604580609298920000008088788206764227990_" gradientUnits="userSpaceOnUse" x1="276.0703" y1="30.012" x2="289.4847" y2="30.012">
			<stop  offset="0" style="stop-color:#8320FD"/>
			<stop  offset="1" style="stop-color:#5D4294"/>
		</linearGradient>
		<path style="fill:url(#SVGID_00000016062604580609298920000008088788206764227990_);" d="M287.8,25.1l-9.3-5.4
			c-0.4-0.2-0.8-0.3-1.1-0.1l0,0l0,0c0,0,0,0,0,0l-1.3,0.7l0,0c0.3-0.2,0.7-0.2,1.2,0.1l9.3,5.4c1,0.5,1.7,2,1.7,3.3v10
			c0,0.7-0.2,1.2-0.6,1.4l1.3-0.7l0,0c0.3-0.2,0.6-0.7,0.6-1.4v-10C289.5,27.1,288.7,25.6,287.8,25.1z"/>
		<path class="st36" d="M287.8,25.1l-9.3-5.4c-0.4-0.2-0.8-0.3-1.1-0.1l0,0l0,0c0,0,0,0,0,0l-1.3,0.7l0,0c0.3-0.2,0.7-0.2,1.2,0.1
			l9.3,5.4c1,0.5,1.7,2,1.7,3.3v10c0,0.7-0.2,1.2-0.6,1.4l1.3-0.7l0,0c0.3-0.2,0.6-0.7,0.6-1.4v-10
			C289.5,27.1,288.7,25.6,287.8,25.1z"/>
	</g>
	<g>
		<path class="st37" d="M285.1,31.7c0,0.2,0,0.4,0,0.7c0,1-0.4,1.7-0.9,2.1l-2.3-3.9L285.1,31.7z"/>
		<path class="st37" d="M281.6,26.5c0.9,0.5,1.7,1.4,2.3,2.4l-2.3,1.3l0.5,3.9c-0.2-0.1-0.4-0.2-0.5-0.3c-1.8-1-3.2-3.5-3.2-5.5
			C278.4,26.3,279.8,25.5,281.6,26.5z"/>
		<path class="st37" d="M284.3,29c0.5,0.8,0.8,1.7,0.9,2.5l-3.2-1.2L284.3,29z"/>
		<path class="st37" d="M284.1,34.5c-0.5,0.3-1.1,0.3-1.7,0l-0.5-3.9L284.1,34.5z"/>
	</g>
</g>
<g>
	<g>
		
			<linearGradient id="SVGID_00000009585546041689172960000002576227269676765359_" gradientUnits="userSpaceOnUse" x1="227.5673" y1="82.4377" x2="240.3203" y2="82.4377">
			<stop  offset="0" style="stop-color:#FF4593"/>
			<stop  offset="0.4163" style="stop-color:#E73B94"/>
			<stop  offset="1" style="stop-color:#BF2A97"/>
		</linearGradient>
		<path style="fill:url(#SVGID_00000009585546041689172960000002576227269676765359_);" d="M238.6,92.4l-9.3-5.4
			c-1-0.5-1.7-2-1.7-3.3v-10c0-1.3,0.8-1.9,1.7-1.3l9.3,5.4c1,0.5,1.7,2,1.7,3.3v10C240.3,92.4,239.5,93,238.6,92.4z"/>
		<g>
			<path class="st37" d="M236.6,81.1L236.6,81.1c-0.7-1.3-1.7-2.4-2.7-3c-1.1-0.6-2.1-0.6-2.7-0.1l0,0c-0.5,0.4-0.9,1.2-0.9,2.2
				c0,1,0.3,2.2,0.9,3.2l0,0c0.7,1.3,1.6,2.4,2.7,3c1.1,0.6,2.1,0.6,2.7,0.2l0,0c0.5-0.4,0.9-1.2,0.9-2.2
				C237.4,83.3,237.1,82.1,236.6,81.1z M232.7,77.9c-0.4,0.1-0.7,0.5-0.9,1c-0.2-0.2-0.3-0.5-0.4-0.7
				C231.7,77.9,232.2,77.8,232.7,77.9 M231.2,78.3c0.2,0.3,0.3,0.6,0.5,0.8c-0.2,0.4-0.2,1-0.3,1.6l-1-0.6
				C230.5,79.3,230.8,78.7,231.2,78.3 M230.5,80.4l1,0.6c0,0.6,0.1,1.3,0.2,1.9c-0.2,0-0.4,0.1-0.5,0.2
				C230.8,82.2,230.5,81.3,230.5,80.4 M231.3,83.4c0.1-0.1,0.3-0.2,0.4-0.2c0.2,0.7,0.5,1.4,0.9,2C232.2,84.7,231.7,84.1,231.3,83.4
				 M233.7,86c-0.1,0-0.1-0.1-0.2-0.1c-0.6-0.5-1.2-1.5-1.5-2.7c0.5-0.1,1.1,0,1.7,0.4L233.7,86 M233.7,83.2
				c-0.6-0.3-1.3-0.5-1.8-0.4c-0.1-0.6-0.2-1.1-0.2-1.7l2,1.2L233.7,83.2 M233.7,82l-2-1.2c0-0.6,0.1-1,0.2-1.5
				c0.5,0.7,1.2,1.3,1.8,1.7L233.7,82 M233.7,80.8c-0.6-0.4-1.2-0.9-1.7-1.6c0.3-0.8,0.9-1.1,1.5-0.9c0.1,0,0.1,0.1,0.2,0.1
				L233.7,80.8 M237.2,84l-1-0.6c0-0.6-0.1-1.3-0.2-1.9c0.2,0,0.4-0.1,0.5-0.2C236.9,82.2,237.1,83.1,237.2,84 M236.3,81
				c-0.1,0.1-0.3,0.2-0.4,0.2c-0.2-0.7-0.5-1.4-0.9-2C235.5,79.7,235.9,80.3,236.3,81 M234,78.4c0.1,0,0.1,0.1,0.2,0.1
				c0.6,0.5,1.2,1.6,1.5,2.7c-0.5,0.1-1.1,0-1.7-0.4L234,78.4 M233.9,81.2c0.6,0.3,1.3,0.5,1.8,0.4c0.1,0.6,0.2,1.1,0.2,1.7l-2-1.2
				L233.9,81.2 M233.9,82.4l2,1.2c0,0.6-0.1,1.1-0.2,1.5c-0.5-0.7-1.2-1.3-1.8-1.7L233.9,82.4 M234.1,86.2c-0.1,0-0.1-0.1-0.2-0.1
				l0-2.5c0.6,0.4,1.2,0.9,1.7,1.6C235.3,86.1,234.8,86.4,234.1,86.2 M234.9,86.5c0.4-0.1,0.7-0.5,0.9-1c0.2,0.2,0.3,0.5,0.4,0.7
				C235.9,86.5,235.4,86.6,234.9,86.5 M236.4,86.1c-0.2-0.3-0.3-0.6-0.5-0.8c0.2-0.4,0.2-1,0.3-1.6l1,0.6
				C237.1,85.1,236.9,85.8,236.4,86.1"/>
		</g>
	</g>
	
		<linearGradient id="SVGID_00000016773289178362972500000005609382610257261499_" gradientUnits="userSpaceOnUse" x1="228.1292" y1="82.0257" x2="241.5435" y2="82.0257">
		<stop  offset="0" style="stop-color:#FF4593"/>
		<stop  offset="0.4163" style="stop-color:#E73B94"/>
		<stop  offset="1" style="stop-color:#BF2A97"/>
	</linearGradient>
	<path style="fill:url(#SVGID_00000016773289178362972500000005609382610257261499_);" d="M239.8,77.1l-9.3-5.4
		c-0.4-0.2-0.8-0.3-1.1-0.1l0,0l0,0c0,0,0,0,0,0l-1.3,0.7l0,0c0.3-0.2,0.7-0.2,1.2,0.1l9.3,5.4c1,0.5,1.7,2,1.7,3.3v10
		c0,0.7-0.2,1.2-0.6,1.4l1.3-0.7l0,0c0.3-0.2,0.6-0.7,0.6-1.4v-10C241.5,79.1,240.8,77.6,239.8,77.1z"/>
	<path class="st36" d="M239.8,77.1l-9.3-5.4c-0.4-0.2-0.8-0.3-1.1-0.1l0,0l0,0c0,0,0,0,0,0l-1.3,0.7l0,0c0.3-0.2,0.7-0.2,1.2,0.1
		l9.3,5.4c1,0.5,1.7,2,1.7,3.3v10c0,0.7-0.2,1.2-0.6,1.4l1.3-0.7l0,0c0.3-0.2,0.6-0.7,0.6-1.4v-10C241.5,79.1,240.8,77.6,239.8,77.1
		z"/>
</g>
<g>
	<g>
		<g>
			
				<linearGradient id="SVGID_00000034795160163656277810000000525701331337103011_" gradientUnits="userSpaceOnUse" x1="225.6857" y1="107.992" x2="238.4387" y2="107.992">
				<stop  offset="0" style="stop-color:#5DF5FF"/>
				<stop  offset="0.366" style="stop-color:#4FD0FF"/>
				<stop  offset="1" style="stop-color:#3387FF"/>
			</linearGradient>
			<path style="fill:url(#SVGID_00000034795160163656277810000000525701331337103011_);" d="M236.7,118l-9.3-5.4
				c-1-0.5-1.7-2-1.7-3.3v-10c0-1.3,0.8-1.9,1.7-1.3l9.3,5.4c1,0.5,1.7,2,1.7,3.3v10C238.4,118,237.7,118.5,236.7,118z"/>
		</g>
		
			<linearGradient id="SVGID_00000095307083937832273420000004576951015638009017_" gradientUnits="userSpaceOnUse" x1="226.2476" y1="107.5799" x2="239.6619" y2="107.5799">
			<stop  offset="0" style="stop-color:#5DF5FF"/>
			<stop  offset="0.366" style="stop-color:#4FD0FF"/>
			<stop  offset="1" style="stop-color:#3387FF"/>
		</linearGradient>
		<path style="fill:url(#SVGID_00000095307083937832273420000004576951015638009017_);" d="M237.9,102.6l-9.3-5.4
			c-0.4-0.2-0.8-0.3-1.1-0.1l0,0l0,0c0,0,0,0,0,0l-1.3,0.7l0,0c0.3-0.2,0.7-0.2,1.2,0.1l9.3,5.4c1,0.5,1.7,2,1.7,3.3v10
			c0,0.7-0.2,1.2-0.6,1.4l1.3-0.7l0,0c0.3-0.2,0.6-0.7,0.6-1.4v-10C239.7,104.7,238.9,103.2,237.9,102.6z"/>
		<path class="st36" d="M237.9,102.6l-9.3-5.4c-0.4-0.2-0.8-0.3-1.1-0.1l0,0l0,0c0,0,0,0,0,0l-1.3,0.7l0,0c0.3-0.2,0.7-0.2,1.2,0.1
			l9.3,5.4c1,0.5,1.7,2,1.7,3.3v10c0,0.7-0.2,1.2-0.6,1.4l1.3-0.7l0,0c0.3-0.2,0.6-0.7,0.6-1.4v-10
			C239.7,104.7,238.9,103.2,237.9,102.6z"/>
	</g>
	<g>
		<path class="st37" d="M231.7,103.6c1,0.6,1.9,2.2,1.9,3.5c0,1.3-0.8,1.8-1.9,1.1c-1-0.6-1.9-2.2-1.9-3.5
			C229.8,103.5,230.7,103,231.7,103.6z"/>
	</g>
	<g>
		<path class="st37" d="M232.3,109c1.4,0.9,2.5,3,2.5,4.7c0,0.4-0.3,0.5-0.6,0.3l-5.1-3.2c-0.3-0.2-0.6-0.7-0.6-1
			c0-1.7,1.2-2.4,2.6-1.6L232.3,109z"/>
	</g>
</g>
</svg>
